{
.formatVersion = 3;
axes = (
{
name = Weight;
tag = wght;
},
{
name = Width;
tag = wdth;
},
{
name = Slant;
tag = slnt;
}
);
familyName = "Sour Gummy";
customParameters = (
{
name = glyphOrder;
value = (
.notdef,
a,
b,
c,
d,
e,
f,
g,
h,
i,
j,
k,
l,
m,
n,
o,
p,
q,
r,
s,
t,
u,
v,
w,
x,
y,
z,
A,
B,
C,
D,
E,
F,
G,
H,
I,
J,
K,
L,
M,
N,
O,
P,
Q,
R,
S,
T,
U,
V,
W,
X,
Y,
Z,
germandbls,
Thorn,
uni0237,
Delta,
one,
two,
three,
four,
five,
six,
seven,
eight,
nine,
zero,
space,
CR,
NULL,
paragraph,
exclam,
quotedbl,
numbersign,
dollar,
percent,
ampersand,
quotesingle,
parenleft,
parenright,
asterisk,
plus,
comma,
hyphen,
period,
slash,
colon,
semicolon,
less,
equal,
greater,
question,
at,
bracketleft,
backslash,
asciicircum,
underscore,
grave,
bracketright,
braceleft,
bar,
asciitilde,
braceright,
exclamdown,
cent,
sterling,
yen,
brokenbar,
section,
copyright,
registered,
degree,
guilsinglleft,
guilsinglright,
fraction,
uni2215,
Euro,
minus,
summation,
perthousand,
ellipsis,
endash,
emdash,
periodcentered,
bullet,
approxequal,
uni2219,
infinity,
mu,
notequal,
trademark,
guillemotleft,
guillemotright,
logicalnot,
questiondown,
pi,
ordmasculine,
ordfeminine,
onesuperior,
twosuperior,
threesuperior,
multiply,
divide,
onequarter,
onehalf,
threequarters,
cedilla,
dieresis,
acute,
circumflex,
caron,
uni02C9,
breve,
dotaccent,
ring,
ogonek,
tilde,
uni0326,
uni00AF,
hungarumlaut,
product,
quotedblbase,
quotesinglbase,
quoteleft,
quoteright,
quotedblleft,
quotedblright,
dagger,
daggerdbl,
lozenge,
dotlessi,
thorn,
f_f,
fi,
f_f_i,
lira,
franc,
longs,
eth,
AE,
ae,
OE,
oe,
Agrave,
Aacute,
Acircumflex,
Atilde,
Adieresis,
Aring,
Ccedilla,
Egrave,
Eacute,
Ecircumflex,
Edieresis,
Igrave,
Iacute,
Icircumflex,
Idieresis,
Eth,
Ntilde,
Ograve,
Oacute,
Ocircumflex,
Otilde,
Odieresis,
Oslash,
Ugrave,
Uacute,
Ucircumflex,
Udieresis,
Yacute,
agrave,
aacute,
acircumflex,
atilde,
adieresis,
aring,
ccedilla,
egrave,
eacute,
ecircumflex,
edieresis,
igrave,
iacute,
icircumflex,
idieresis,
ntilde,
ograve,

glyphs = (
{
glyphname = a;
layers = (
{
anchors = (
{
name = top;
position = "{478, 501}";
},
{
name = bottom;
position = "{776, 74}";
}
);
layerId = "FC2E0489-11A5-440C-8B4C-71CFB6149F63";
name = "#instance";
shapes = (
{
closed = 1;
nodes = (
(650,470,o),
(688,506,o),
(782,500,cs),
(919,491,o),
(910,397,o),
(910,397,c),
(892,262,o),
(895,235,o),
(908,71,c),
(908,71,o),
(907,1,o),
(796,0,cs),
(707,-1,o),
(668,36,o),
(668,36,c),
(646,181,o),
(628,309,o),
(650,470,c)
);
},
{
closed = 1;
nodes = (
(698,501,o),
(823,421,o),
(823,250,cs),
(823,116,o),
(725,4,o),
(440,-1,cs),
(221,-4,o),
(44,108,o),
(46,242,cs),
(49,398,o),
(221,497,o),
(440,499,cs)
);
},
{
closed = 1;
nodes = (
(517,167,o),
(577,212,o),
(577,262,cs),
(577,325,o),
(529,354,o),
(464,354,cs),
(398,354,o),
(346,302,o),
(346,252,cs),
(346,203,o),
(386,167,o),
(451,167,cs)
);
}
);
width = 956;
},
{
anchors = (
{
name = top;
position = "{578, 501}";
},
{
name = bottom;
position = "{791, 74}";
}
);
layerId = "7E05DFED-BC11-4724-94EA-0D0C4C5F5B37";
shapes = (
{
closed = 1;
nodes = (
(743.906,470,o),
(789.099,506,o),
(881.9,500,cs),
(1017.102,491,o),
(989.321,397,o),
(989.321,397,c),
(944.348,262,o),
(941.953,235,o),
(922.186,71,c),
(922.186,71,o),
(907.2,1,o),
(796,0,cs),
(706.8,-1,o),
(675.193,36,o),
(675.193,36,c),
(682.164,181,o),
(689.738,309,o),
(743.906,470,c)
);
},
{
closed = 1;
nodes = (
(798.1,501,o),
(907.116,421,o),
(872.95,250,cs),
(846.177,116,o),
(725.799,4,o),
(439.8,-1,cs),
(220.201,-4,o),
(65.578,108,o),
(94.352,242,cs),
(128.52,398,o),
(320.301,497,o),
(539.7,499,cs)
);
},
{
closed = 1;
nodes = (
(550.367,167,o),
(619.358,212,o),
(629.348,262,cs),
(641.935,325,o),
(599.729,354,o),
(534.729,354,cs),
(468.729,354,o),
(406.34,302,o),
(396.35,252,cs),
(386.559,203,o),
(419.367,167,o),
(484.367,167,cs)
);
}
);
width = 956;
},
{
anchors = (
{
name = top;
position = "{532, 501}";
},
{
name = bottom;
position = "{765, 55}";
}
);
layerId = "99376340-70F9-4B1D-A253-B1BEDBF73140";
shapes = (
{
closed = 1;
nodes = (
(851.704,479,o),
(856.301,497,o),
(889.301,497,cs),
(922.301,497,o),
(917.505,473,o),
(917.505,473,c),
(872.532,338,o),
(844.563,183,o),
(825.996,20,c),
(825.996,20,o),
(820.2,1,o),
(792.2,1,cs),
(763.2,1,o),
(757.596,18,o),
(757.596,18,c),
(764.567,163,o),
(798.337,317,o),
(851.704,479,c)
);
},
{
closed = 1;
nodes = (
(726.9,500,o),
(853.316,422,o),
(818.95,250,cs),
(792.177,116,o),
(592.799,4,o),
(397.799,4,cs),
(202.799,4,o),
(97.778,109,o),
(124.551,243,cs),
(151.325,377,o),
(334.9,500,o),
(531.9,500,cs)
);
},
{
closed = 1;
nodes = (
(567.391,47,o),
(730.971,145,o),
(753.349,257,cs),
(781.72,399,o),
(680.707,464,o),
(522.707,464,cs),
(365.707,464,o),
(213.53,348,o),
(191.153,236,cs),
(168.975,125,o),
(252.391,47,o),
(409.391,47,cs)
);
}
);
width = 898;
},
{
anchors = (
{
name = top;
position = "{419, 501}";
},
{
name = bottom;
position = "{533, 74}";
}
);
layerId = "F94FFD99-753E-41E1-86D1-359C136D3DE6";
shapes = (
{
closed = 1;
nodes = (
(527.906,470,o),
(560.099,506,o),
(621.9,500,cs),
(711.102,491,o),
(686.321,397,o),
(686.321,397,c),
(647.348,262,o),
(643.953,235,o),
(620.186,71,c),
(620.186,71,o),
(605.2,1,o),
(531,0,cs),
(471.8,-1,o),
(453.193,36,o),
(453.193,36,c),
(467.164,181,o),
(480.738,309,o),
(527.906,470,c)
);
},
{
closed = 1;
nodes = (
(566.1,501,o),
(633.116,421,o),
(598.95,250,cs),
(572.177,116,o),
(484.799,4,o),
(293.8,-1,cs),
(147.201,-4,o),
(51.578,108,o),
(79.352,242,cs),
(112.52,398,o),
(247.301,497,o),
(393.7,499,cs)
);
},
{
closed = 1;
nodes = (
(378.367,167,o),
(427.358,212,o),
(437.348,262,cs),
(449.935,325,o),
(423.729,354,o),
(380.729,354,cs),
(336.729,354,o),
(291.34,302,o),
(281.35,252,cs),
(271.559,203,o),
(291.367,167,o),
(334.367,167,cs)
);
}
);
width = 638;
},
{
anchors = (
{
name = top;
position = "{388, 501}";
},
{
name = bottom;
position = "{514, 55}";
}
);
layerId = "E82ED6F4-5586-4A54-A016-86253174F252";
shapes = (
{
closed = 1;
nodes = (
(599.704,479,o),
(604.301,497,o),
(626.301,497,cs),
(648.301,497,o),
(643.505,473,o),
(643.505,473,c),
(604.532,338,o),
(575.563,183,o),
(551.996,20,c),
(551.996,20,o),
(547.2,1,o),
(528.2,1,cs),
(509.2,1,o),
(506.596,18,o),
(506.596,18,c),
(520.567,163,o),
(553.337,317,o),
(599.704,479,c)
);
},
{
closed = 1;
nodes = (
(517.9,500,o),
(597.316,422,o),
(562.95,250,cs),
(536.177,116,o),
(395.799,4,o),
(265.799,4,cs),
(135.799,4,o),
(72.778,109,o),
(99.551,243,cs),
(126.325,377,o),
(256.9,500,o),
(387.9,500,cs)
);
},
{
closed = 1;
nodes = (
(381.391,47,o),
(496.971,145,o),
(519.349,257,cs),
(547.72,399,o),
(484.707,464,o),
(379.707,464,cs),
(274.707,464,o),
(165.53,348,o),
(143.153,236,cs),
(120.975,125,o),
(171.391,47,o),
(276.391,47,cs)
);
}
);
width = 599;
},
{
anchors = (
{
name = top;
position = "{478, 501}";
},
{
name = bottom;
position = "{776, 74}";
}
);
layerId = "1EECF98D-35CB-4836-8875-A967ACEC66D2";
shapes = (
{
closed = 1;
nodes = (
(650,470,o),
(688,506,o),
(782,500,cs),
(919,491,o),
(910,397,o),
(910,397,c),
(892,262,o),
(895,235,o),
(908,71,c),
(908,71,o),
(907,1,o),
(796,0,cs),
(707,-1,o),
(668,36,o),
(668,36,c),
(646,181,o),
(628,309,o),
(650,470,c)
);
},
{
closed = 1;
nodes = (
(698,501,o),
(823,421,o),
(823,250,cs),
(823,116,o),
(725,4,o),
(440,-1,cs),
(221,-4,o),
(44,108,o),
(46,242,cs),
(49,398,o),
(221,497,o),
(440,499,cs)
);
},
{
closed = 1;
nodes = (
(517,167,o),
(577,212,o),
(577,262,cs),
(577,325,o),
(529,354,o),
(464,354,cs),
(398,354,o),
(346,302,o),
(346,252,cs),
(346,203,o),
(386,167,o),
(451,167,cs)
);
}
);
width = 956;
},
{
anchors = (
{
name = top;
position = "{431, 501}";
},
{
name = bottom;
position = "{753, 55}";
}
);
layerId = "1C3422F9-BFDE-4FE8-A46C-291A8D4071B9";
shapes = (
{
closed = 1;
nodes = (
(755,479,o),
(756,497,o),
(789,497,cs),
(822,497,o),
(822,473,o),
(822,473,c),
(804,338,o),
(807,183,o),
(821,20,c),
(821,20,o),
(819,1,o),
(791,1,cs),
(762,1,o),
(753,18,o),
(753,18,c),
(731,163,o),
(734,317,o),
(755,479,c)
);
},
{
closed = 1;
nodes = (
(626,500,o),
(768,422,o),
(768,250,cs),
(768,116,o),
(591,4,o),
(396,4,cs),
(201,4,o),
(75,109,o),
(75,243,cs),
(75,377,o),
(234,500,o),
(431,500,cs)
);
},
{
closed = 1;
nodes = (
(557,47,o),
(701,145,o),
(701,257,cs),
(701,399,o),
(587,464,o),
(429,464,cs),
(272,464,o),
(143,348,o),
(143,236,cs),
(143,125,o),
(242,47,o),
(399,47,cs)
);
}
);
width = 897;
},
{
anchors = (
{
name = top;
position = "{319, 501}";
},
{
name = bottom;
position = "{518, 74}";
}
);
layerId = "EE7B1B97-935D-491C-911D-EA8B82785AFC";
shapes = (
{
closed = 1;
nodes = (
(434,470,o),
(459,506,o),
(522,500,cs),
(613,491,o),
(607,397,o),
(607,397,c),
(595,262,o),
(597,235,o),
(606,71,c),
(606,71,o),
(605,1,o),
(531,0,cs),
(472,-1,o),
(446,36,o),
(446,36,c),
(431,181,o),
(419,309,o),
(434,470,c)
);
},
{
closed = 1;
nodes = (
(466,501,o),
(549,421,o),
(549,250,cs),
(549,116,o),
(484,4,o),
(294,-1,cs),
(148,-4,o),
(30,108,o),
(31,242,cs),
(33,398,o),
(148,497,o),
(294,499,cs)
);
},
{
closed = 1;
nodes = (
(345,167,o),
(385,212,o),
(385,262,cs),
(385,325,o),
(353,354,o),
(310,354,cs),
(266,354,o),
(231,302,o),
(231,252,cs),
(231,203,o),
(258,167,o),
(301,167,cs)
);
}
);
width = 638;
},
{
anchors = (
{
name = top;
position = "{287, 501}";
},
{
name = bottom;
position = "{502, 55}";
}
);
layerId = "6B947F8E-B64D-4F43-8779-746217178CEC";
shapes = (
{
closed = 1;
nodes = (
(503,479,o),
(504,497,o),
(526,497,cs),
(548,497,o),
(548,473,o),
(548,473,c),
(536,338,o),
(538,183,o),
(547,20,c),
(547,20,o),
(546,1,o),
(527,1,cs),
(508,1,o),
(502,18,o),
(502,18,c),
(487,163,o),
(489,317,o),
(503,479,c)
);
},
{
closed = 1;
nodes = (
(417,500,o),
(512,422,o),
(512,250,cs),
(512,116,o),
(394,4,o),
(264,4,cs),
(134,4,o),
(50,109,o),
(50,243,cs),
(50,377,o),
(156,500,o),
(287,500,cs)
);
},
{
closed = 1;
nodes = (
(371,47,o),
(467,145,o),
(467,257,cs),
(467,399,o),
(391,464,o),
(286,464,cs),
(181,464,o),
(95,348,o),
(95,236,cs),
(95,125,o),
(161,47,o),
(266,47,cs)
);
}
);
width = 598;
}
);
leftKerningGroup = a1;
rightKerningGroup = a;
unicode = 97;
},
{
glyphname = b;
layers = (
{
layerId = "FC2E0489-11A5-440C-8B4C-71CFB6149F63";
name = "#instance";
shapes = (
{
closed = 1;
nodes = (
(66,1,o),
(60,18,o),
(60,18,c),
(45,163,o),
(48,469,o),
(62,631,c),
(62,631,o),
(63,649,o),
(85,649,cs),
(107,649,o),
(107,625,o),
(107,625,c),
(95,490,o),
(96,183,o),
(105,20,c),
(105,20,o),
(104,1,o),
(85,1,cs)
);
},
{
closed = 1;
nodes = (
(548,116,o),
(431,4,o),
(301,4,cs),
(170,4,o),
(87,109,o),
(87,243,cs),
(87,377,o),
(193,500,o),
(324,500,cs),
(454,500,o),
(548,422,o),
(548,250,cs)
);
},
{
closed = 1;
nodes = (
(504,399,o),
(427,464,o),
(322,464,cs),
(217,464,o),
(132,348,o),
(132,236,cs),
(132,125,o),
(197,47,o),
(302,47,cs),
(408,47,o),
(504,145,o),
(504,257,cs)
);
}
);
width = 598;
},
{
layerId = "7E05DFED-BC11-4724-94EA-0D0C4C5F5B37";
shapes = (
{
closed = 1;
nodes = (
(71,1,o),
(77,87,o),
(77,87,c),
(84,232,o),
(128,429,o),
(181,591,c),
(181,591,o),
(212,658,o),
(330,650,cs),
(454,642,o),
(456,559,o),
(456,559,c),
(411,424,o),
(341,196,o),
(321,32,c),
(321,32,o),
(297,0,o),
(198,0,cs)
);
},
{
closed = 1;
nodes = (
(955,108,o),
(755,-1,o),
(536,-1,c),
(230,0,o),
(178,116,o),
(205,250,cs),
(239,421,o),
(378,501,o),
(636,499,cs),
(854,497,o),
(1009,398,o),
(978,242,cs)
);
},
{
closed = 1;
nodes = (
(695,249,o),
(710,312,o),
(664,338,cs),
(616,363,o),
(551,358,o),
(484,307,cs),
(431,266,o),
(430,207,o),
(477,181,cs),
(525,156,o),
(592,168,o),
(644,209,cs)
);
}
);
width = 975;
},
{
layerId = "99376340-70F9-4B1D-A253-B1BEDBF73140";
shapes = (
{
closed = 1;
nodes = (
(99,1,o),
(94,18,o),
(94,18,c),
(101,163,o),
(166,469,o),
(219,631,c),
(219,631,o),
(225,649,o),
(258,649,cs),
(291,649,o),
(286,625,o),
(286,625,c),
(241,490,o),
(181,183,o),
(162,20,c),
(162,20,o),
(156,1,o),
(128,1,cs)
);
},
{
closed = 1;
nodes = (
(845,116,o),
(648,4,o),
(453,4,cs),
(256,4,o),
(153,109,o),
(180,243,cs),
(206,377,o),
(390,500,o),
(586,500,cs),
(781,500,o),
(906,422,o),
(872,250,cs)
);
},
{
closed = 1;
nodes = (
(836,399,o),
(734,464,o),
(576,464,cs),
(419,464,o),
(268,348,o),
(245,236,cs),
(223,125,o),
(305,47,o),
(462,47,cs),
(621,47,o),
(785,145,o),
(807,257,cs)
);
}
);
width = 898;
},
{
layerId = "F94FFD99-753E-41E1-86D1-359C136D3DE6";
shapes = (
{
closed = 1;
nodes = (
(48,1,o),
(58,87,o),
(58,87,c),
(72,232,o),
(115,429,o),
(161,591,c),
(161,591,o),
(186,658,o),
(264,650,cs),
(346,642,o),
(342,559,o),
(342,559,c),
(303,424,o),
(241,196,o),
(217,32,c),
(217,32,o),
(199,0,o),
(133,0,cs)
);
},
{
closed = 1;
nodes = (
(645,108,o),
(504,-1,o),
(358,-1,c),
(154,0,o),
(127,116,o),
(154,250,cs),
(188,421,o),
(286,501,o),
(458,499,cs),
(603,497,o),
(700,398,o),
(669,242,cs)
);
},
{
closed = 1;
nodes = (
(481,249,o),
(495,312,o),
(466,338,cs),
(436,363,o),
(392,358,o),
(344,307,cs),
(306,266,o),
(301,207,o),
(331,181,cs),
(361,156,o),
(407,168,o),
(444,209,cs)
);
}
);
width = 651;
},
{
layerId = "E82ED6F4-5586-4A54-A016-86253174F252";
shapes = (
{
closed = 1;
nodes = (
(66,1,o),
(64,18,o),
(64,18,c),
(78,163,o),
(142,469,o),
(188,631,c),
(188,631,o),
(193,649,o),
(215,649,cs),
(237,649,o),
(232,625,o),
(232,625,c),
(193,490,o),
(133,183,o),
(109,20,c),
(109,20,o),
(104,1,o),
(85,1,cs)
);
},
{
closed = 1;
nodes = (
(571,116,o),
(432,4,o),
(302,4,cs),
(171,4,o),
(109,109,o),
(136,243,cs),
(162,377,o),
(293,500,o),
(424,500,cs),
(554,500,o),
(632,422,o),
(598,250,cs)
);
},
{
closed = 1;
nodes = (
(584,399,o),
(520,464,o),
(415,464,cs),
(310,464,o),
(202,348,o),
(179,236,cs),
(157,125,o),
(206,47,o),
(311,47,cs),
(417,47,o),
(533,145,o),
(555,257,cs)
);
}
);
width = 599;
},
{
layerId = "1EECF98D-35CB-4836-8875-A967ACEC66D2";
shapes = (
{
closed = 1;
nodes = (
(71,1,o),
(60,87,o),
(60,87,c),
(38,232,o),
(42,429,o),
(63,591,c),
(63,591,o),
(81,658,o),
(200,650,cs),
(326,642,o),
(344,559,o),
(344,559,c),
(326,424,o),
(302,196,o),
(315,32,c),
(315,32,o),
(297,0,o),
(198,0,cs)
);
},
{
closed = 1;
nodes = (
(933,108,o),
(755,-1,o),
(536,-1,c),
(230,0,o),
(155,116,o),
(155,250,cs),
(155,421,o),
(278,501,o),
(536,499,cs),
(755,497,o),
(929,398,o),
(930,242,cs)
);
},
{
closed = 1;
nodes = (
(645,249,o),
(648,312,o),
(596,338,cs),
(543,363,o),
(479,358,o),
(423,307,cs),
(378,266,o),
(389,207,o),
(441,181,cs),
(494,156,o),
(558,168,o),
(602,209,cs)
);
}
);
width = 976;
},
{
layerId = "1C3422F9-BFDE-4FE8-A46C-291A8D4071B9";
shapes = (
{
closed = 1;
nodes = (
(99,1,o),
(90,18,o),
(90,18,c),
(68,163,o),
(72,469,o),
(93,631,c),
(93,631,o),
(95,649,o),
(128,649,cs),
(161,649,o),
(161,625,o),
(161,625,c),
(143,490,o),
(144,183,o),
(158,20,c),
(158,20,o),
(156,1,o),
(128,1,cs)
);
},
{
closed = 1;
nodes = (
(822,116,o),
(647,4,o),
(452,4,cs),
(255,4,o),
(131,109,o),
(131,243,cs),
(131,377,o),
(290,500,o),
(486,500,cs),
(681,500,o),
(822,422,o),
(822,250,cs)
);
},
{
closed = 1;
nodes = (
(756,399,o),
(641,464,o),
(483,464,cs),
(326,464,o),
(198,348,o),
(198,236,cs),
(198,125,o),
(296,47,o),
(453,47,cs),
(612,47,o),
(756,145,o),
(756,257,cs)
);
}
);
width = 897;
},
{
layerId = "EE7B1B97-935D-491C-911D-EA8B82785AFC";
shapes = (
{
closed = 1;
nodes = (
(47,1,o),
(40,87,o),
(40,87,c),
(25,232,o),
(28,429,o),
(42,591,c),
(42,591,o),
(54,658,o),
(133,650,cs),
(217,642,o),
(229,559,o),
(229,559,c),
(217,424,o),
(201,196,o),
(210,32,c),
(210,32,o),
(198,0,o),
(132,0,cs)
);
},
{
closed = 1;
nodes = (
(622,108,o),
(503,-1,o),
(357,-1,c),
(153,0,o),
(103,116,o),
(103,250,cs),
(103,421,o),
(185,501,o),
(357,499,cs),
(503,497,o),
(619,398,o),
(620,242,cs)
);
},
{
closed = 1;
nodes = (
(430,249,o),
(432,312,o),
(397,338,cs),
(362,363,o),
(319,358,o),
(282,307,cs),
(252,266,o),
(259,207,o),
(294,181,cs),
(329,156,o),
(372,168,o),
(401,209,cs)
);
}
);
width = 651;
},
{
layerId = "6B947F8E-B64D-4F43-8779-746217178CEC";
shapes = (
{
closed = 1;
nodes = (
(66,1,o),
(60,18,o),
(60,18,c),
(45,163,o),
(48,469,o),
(62,631,c),
(62,631,o),
(63,649,o),
(85,649,cs),
(107,649,o),
(107,625,o),
(107,625,c),
(95,490,o),
(96,183,o),
(105,20,c),
(105,20,o),
(104,1,o),
(85,1,cs)
);
},
{
closed = 1;
nodes = (
(548,116,o),
(431,4,o),
(301,4,cs),
(170,4,o),
(87,109,o),
(87,243,cs),
(87,377,o),
(193,500,o),
(324,500,cs),
(454,500,o),
(548,422,o),
(548,250,cs)
);
},
{
closed = 1;
nodes = (
(504,399,o),
(427,464,o),
(322,464,cs),
(217,464,o),
(132,348,o),
(132,236,cs),
(132,125,o),
(197,47,o),
(302,47,cs),
(408,47,o),
(504,145,o),
(504,257,cs)
);
}
);
width = 598;
}
);
leftKerningGroup = H1;
rightKerningGroup = b;
unicode = 98;
},
{
glyphname = c;
layers = (
{
anchors = (
{
name = top;
position = "{416, 501}";
},
{
name = bottom;
position = "{428, 8}";
}
);
layerId = "FC2E0489-11A5-440C-8B4C-71CFB6149F63";
name = "#instance";
shapes = (
{
closed = 1;
nodes = (
(548,267,o),
(638,274,o),
(680,295,cs),
(735,323,o),
(732,363,o),
(732,363,c),
(732,363,o),
(686,493,o),
(416,495,cs),
(177,497,o),
(32,363,o),
(47,224,c),
(60,93,o),
(152,-1,o),
(399,-9,cs),
(647,-17,o),
(740,71,o),
(740,71,c),
(740,71,o),
(776,107,o),
(726,153,cs),
(698,180,o),
(635,214,o),
(534,193,c),
(513,190,o),
(458,170,o),
(414,171,c),
(378,173,o),
(336,200,o),
(342,243,cs),
(345,267,o),
(353,310,o),
(432,317,cs),
(480,321,o),
(506,294,o),
(515,293,c)
);
}
);
width = 798;
},
{
anchors = (
{
name = top;
position = "{516, 501}";
},
{
name = bottom;
position = "{430, 8}";
}
);
layerId = "7E05DFED-BC11-4724-94EA-0D0C4C5F5B37";
shapes = (
{
closed = 1;
nodes = (
(601.347,267,o),
(692.745,274,o),
(738.941,295,cs),
(799.535,323,o),
(804.527,363,o),
(804.527,363,c),
(804.527,363,o),
(784.501,493,o),
(514.901,495,cs),
(276.301,497,o),
(104.527,363,o),
(91.755,224,cs),
(78.581,93,o),
(151.8,-1,o),
(397.202,-9,cs),
(643.603,-17,o),
(754.186,71,o),
(754.186,71,c),
(754.186,71,o),
(797.379,107,o),
(756.569,153,cs),
(733.964,180,o),
(677.757,214,o),
(572.561,193,c),
(550.962,190,o),
(491.966,170,o),
(448.166,171,c),
(412.565,173,o),
(375.96,200,o),
(390.551,243,cs),
(398.347,267,o),
(414.938,310,o),
(495.337,317,cs),
(544.136,321,o),
(564.741,294,o),
(573.541,293,c)
);
}
);
width = 798;
},
{
anchors = (
{
name = bottom;
position = "{451, 8}";
},
{
name = top;
position = "{547, 501}";
}
);
layerId = "99376340-70F9-4B1D-A253-B1BEDBF73140";
shapes = (
{
closed = 1;
nodes = (
(741.927,365,o),
(765.13,351,o),
(794.928,360,cs),
(816.127,366,o),
(812.524,378,o),
(812.524,378,c),
(812.524,378,o),
(782.701,494,o),
(544.901,495,cs),
(306.301,497,o),
(134.727,364,o),
(121.955,225,cs),
(108.781,94,o),
(182,0,o),
(427.202,-9,cs),
(673.603,-17,o),
(779.185,76,o),
(779.185,76,c),
(779.185,76,o),
(787.782,89,o),
(777.381,97,cs),
(757.378,112,o),
(734.579,103,o),
(734.579,103,c),
(734.579,103,o),
(605.394,32,o),
(442.591,43,cs),
(279.789,54,o),
(186.382,92,o),
(202.154,231,cs),
(220.321,397,o),
(408.911,445,o),
(562.511,443,cs),
(715.112,441,o),
(741.927,365,o),
(741.927,365,c)
);
}
);
width = 841;
},
{
anchors = (
{
name = top;
position = "{377, 501}";
},
{
name = bottom;
position = "{287, 8}";
}
);
layerId = "F94FFD99-753E-41E1-86D1-359C136D3DE6";
shapes = (
{
closed = 1;
nodes = (
(418.347,267,o),
(479.745,274,o),
(511.941,295,cs),
(554.535,323,o),
(560.527,363,o),
(560.527,363,c),
(560.527,363,o),
(555.501,493,o),
(375.901,495,cs),
(217.301,497,o),
(93.527,363,o),
(75.755,224,cs),
(58.581,93,o),
(100.8,-1,o),
(264.202,-9,cs),
(427.603,-17,o),
(507.186,71,o),
(507.186,71,c),
(507.186,71,o),
(538.379,107,o),
(514.569,153,cs),
(500.964,180,o),
(465.757,214,o),
(394.561,193,c),
(379.962,190,o),
(338.966,170,o),
(310.166,171,c),
(286.565,173,o),
(263.96,200,o),
(276.551,243,cs),
(283.347,267,o),
(296.938,310,o),
(351.337,317,cs),
(384.136,321,o),
(395.741,294,o),
(401.541,293,c)
);
}
);
width = 532;
},
{
anchors = (
{
name = bottom;
position = "{301, 8}";
},
{
name = top;
position = "{398, 501}";
}
);
layerId = "E82ED6F4-5586-4A54-A016-86253174F252";
shapes = (
{
closed = 1;
nodes = (
(518.927,365,o),
(533.13,351,o),
(553.928,360,cs),
(568.127,366,o),
(566.524,378,o),
(566.524,378,c),
(566.524,378,o),
(554.701,494,o),
(395.901,495,cs),
(237.301,497,o),
(113.727,364,o),
(95.955,225,cs),
(78.781,94,o),
(121,0,o),
(284.202,-9,cs),
(447.603,-17,o),
(524.185,76,o),
(524.185,76,c),
(524.185,76,o),
(530.782,89,o),
(524.381,97,cs),
(512.378,112,o),
(496.579,103,o),
(496.579,103,c),
(496.579,103,o),
(405.394,32,o),
(297.591,43,cs),
(189.789,54,o),
(130.382,92,o),
(150.154,231,cs),
(173.321,397,o),
(301.911,445,o),
(404.511,443,cs),
(506.112,441,o),
(518.927,365,o),
(518.927,365,c)
);
}
);
width = 560;
},
{
anchors = (
{
name = top;
position = "{416, 501}";
},
{
name = bottom;
position = "{428, 8}";
}
);
layerId = "1EECF98D-35CB-4836-8875-A967ACEC66D2";
shapes = (
{
closed = 1;
nodes = (
(548,267,o),
(638,274,o),
(680,295,cs),
(735,323,o),
(732,363,o),
(732,363,c),
(732,363,o),
(686,493,o),
(416,495,cs),
(177,497,o),
(32,363,o),
(47,224,cs),
(60,93,o),
(152,-1,o),
(399,-9,cs),
(647,-17,o),
(740,71,o),
(740,71,c),
(740,71,o),
(776,107,o),
(726,153,cs),
(698,180,o),
(635,214,o),
(534,193,c),
(513,190,o),
(458,170,o),
(414,171,c),
(378,173,o),
(336,200,o),
(342,243,cs),
(345,267,o),
(353,310,o),
(432,317,cs),
(480,321,o),
(506,294,o),
(515,293,c)
);
}
);
width = 798;
},
{
anchors = (
{
name = bottom;
position = "{449, 8}";
},
{
name = top;
position = "{447, 501}";
}
);
layerId = "1C3422F9-BFDE-4FE8-A46C-291A8D4071B9";
shapes = (
{
closed = 1;
nodes = (
(669,365,o),
(695,351,o),
(723,360,cs),
(743,366,o),
(737,378,o),
(737,378,c),
(737,378,o),
(684,494,o),
(446,495,cs),
(207,497,o),
(62,364,o),
(77,225,cs),
(90,94,o),
(182,0,o),
(429,-9,cs),
(677,-17,o),
(764,76,o),
(764,76,c),
(764,76,o),
(770,89,o),
(758,97,cs),
(735,112,o),
(714,103,o),
(714,103,c),
(714,103,o),
(599,32,o),
(434,43,cs),
(269,54,o),
(168,92,o),
(156,231,cs),
(141,397,o),
(320,445,o),
(474,443,cs),
(627,441,o),
(669,365,o),
(669,365,c)
);
}
);
width = 841;
},
{
anchors = (
{
name = top;
position = "{277, 501}";
},
{
name = bottom;
position = "{285, 8}";
}
);
layerId = "EE7B1B97-935D-491C-911D-EA8B82785AFC";
shapes = (
{
closed = 1;
nodes = (
(365,267,o),
(425,274,o),
(453,295,cs),
(490,323,o),
(488,363,o),
(488,363,c),
(488,363,o),
(457,493,o),
(277,495,cs),
(118,497,o),
(21,363,o),
(31,224,cs),
(40,93,o),
(101,-1,o),
(266,-9,cs),
(431,-17,o),
(493,71,o),
(493,71,c),
(493,71,o),
(517,107,o),
(484,153,c),
(465,180,o),
(423,214,o),
(356,193,c),
(342,190,o),
(305,170,o),
(276,171,c),
(252,173,o),
(224,200,o),
(228,243,cs),
(230,267,o),
(235,310,o),
(288,317,cs),
(320,321,o),
(337,294,o),
(343,293,c)
);
}
);
width = 532;
},
{
anchors = (
{
name = bottom;
position = "{299, 8}";
},
{
name = top;
position = "{298, 501}";
}
);
layerId = "6B947F8E-B64D-4F43-8779-746217178CEC";
shapes = (
{
closed = 1;
nodes = (
(446,365,o),
(463,351,o),
(482,360,cs),
(495,366,o),
(491,378,o),
(491,378,c),
(491,378,o),
(456,494,o),
(297,495,cs),
(138,497,o),
(41,364,o),
(51,225,cs),
(60,94,o),
(121,0,o),
(286,-9,cs),
(451,-17,o),
(509,76,o),
(509,76,c),
(509,76,o),
(513,89,o),
(505,97,cs),
(490,112,o),
(476,103,o),
(476,103,c),
(476,103,o),
(399,32,o),
(289,43,cs),
(179,54,o),
(112,92,o),
(104,231,cs),
(94,397,o),
(213,445,o),
(316,443,cs),
(418,441,o),
(446,365,o),
(446,365,c)
);
}
);
width = 560;
}
);
leftKerningGroup = c1;
rightKerningGroup = c;
unicode = 99;
},
{
glyphname = d;
layers = (
{
anchors = (
{
name = top;
position = "{547, 600}";
},
{
name = left;
position = "{1110, 202}";
}
);
layerId = "7E05DFED-BC11-4724-94EA-0D0C4C5F5B37";
shapes = (
{
closed = 1;
nodes = (
(753.082,591,o),
(783.468,658,o),
(899.87,650,cs),
(1024.272,642,o),
(1022.687,564,o),
(1022.687,564,c),
(989.313,437,o),
(941.553,233,o),
(921.786,69,c),
(921.786,69,o),
(903.8,-1,o),
(789.8,-1,cs),
(661.8,-1,o),
(648.583,83,o),
(648.583,83,c),
(655.355,227,o),
(698.714,429,o),
(753.082,591,c)
);
},
{
closed = 1;
nodes = (
(798.1,501,o),
(907.116,421,o),
(872.95,250,cs),
(846.177,116,o),
(725.799,4,o),
(439.8,-1,cs),
(220.201,-4,o),
(65.578,108,o),
(94.352,242,cs),
(128.52,398,o),
(320.301,497,o),
(539.7,499,cs)
);
},
{
closed = 1;
nodes = (
(550.367,167,o),
(619.358,212,o),
(629.348,262,cs),
(641.935,325,o),
(599.729,354,o),
(534.729,354,cs),
(468.729,354,o),
(406.34,302,o),
(396.35,252,cs),
(386.559,203,o),
(419.367,167,o),
(484.367,167,cs)
);
}
);
width = 955;
},
{
anchors = (
{
name = left;
position = "{953, 202}";
},
{
name = top;
position = "{538, 600}";
}
);
layerId = "99376340-70F9-4B1D-A253-B1BEDBF73140";
shapes = (
{
closed = 1;
nodes = (
(882.074,631,o),
(886.67,649,o),
(919.67,649,cs),
(952.67,649,o),
(947.875,625,o),
(947.875,625,c),
(902.902,490,o),
(841.563,183,o),
(823.996,20,c),
(823.996,20,o),
(817.2,1,o),
(789.2,1,cs),
(760.2,1,o),
(756.596,18,o),
(756.596,18,c),
(761.567,163,o),
(826.706,469,o),
(882.074,631,c)
);
},
{
closed = 1;
nodes = (
(726.9,500,o),
(853.316,422,o),
(818.95,250,cs),
(792.177,116,o),
(592.799,4,o),
(397.799,4,cs),
(202.799,4,o),
(97.778,109,o),
(124.551,243,cs),
(151.325,377,o),
(334.9,500,o),
(531.9,500,cs)
);
},
{
closed = 1;
nodes = (
(567.391,47,o),
(730.971,145,o),
(753.349,257,cs),
(781.72,399,o),
(680.707,464,o),
(522.707,464,cs),
(365.707,464,o),
(213.53,348,o),
(191.153,236,cs),
(168.975,125,o),
(252.391,47,o),
(409.391,47,cs)
);
}
);
width = 898;
},
{
anchors = (
{
name = top;
position = "{405, 600}";
},
{
name = left;
position = "{754, 202}";
}
);
layerId = "F94FFD99-753E-41E1-86D1-359C136D3DE6";
shapes = (
{
closed = 1;
nodes = (
(542.082,591,o),
(566.468,658,o),
(643.87,650,cs),
(726.272,642,o),
(719.687,564,o),
(719.687,564,c),
(689.313,437,o),
(643.553,233,o),
(619.786,69,c),
(619.786,69,o),
(602.8,-1,o),
(526.8,-1,cs),
(441.8,-1,o),
(438.583,83,o),
(438.583,83,c),
(452.355,227,o),
(494.714,429,o),
(542.082,591,c)
);
},
{
closed = 1;
nodes = (
(566.1,501,o),
(633.116,421,o),
(598.95,250,cs),
(572.177,116,o),
(484.799,4,o),
(293.8,-1,cs),
(147.201,-4,o),
(51.578,108,o),
(79.352,242,cs),
(112.52,398,o),
(247.301,497,o),
(393.7,499,cs)
);
},
{
closed = 1;
nodes = (
(378.367,167,o),
(427.358,212,o),
(437.348,262,cs),
(449.935,325,o),
(423.729,354,o),
(380.729,354,cs),
(336.729,354,o),
(291.34,302,o),
(281.35,252,cs),
(271.559,203,o),
(291.367,167,o),
(334.367,167,cs)
);
}
);
width = 637;
},
{
anchors = (
{
name = left;
position = "{649, 202}";
},
{
name = top;
position = "{399, 600}";
}
);
layerId = "E82ED6F4-5586-4A54-A016-86253174F252";
shapes = (
{
closed = 1;
nodes = (
(630.074,631,o),
(634.67,649,o),
(656.67,649,cs),
(678.67,649,o),
(673.875,625,o),
(673.875,625,c),
(634.902,490,o),
(573.563,183,o),
(550.996,20,c),
(550.996,20,o),
(545.2,1,o),
(526.2,1,cs),
(507.2,1,o),
(505.596,18,o),
(505.596,18,c),
(518.567,163,o),
(582.706,469,o),
(630.074,631,c)
);
},
{
closed = 1;
nodes = (
(517.9,500,o),
(597.316,422,o),
(562.95,250,cs),
(536.177,116,o),
(395.799,4,o),
(265.799,4,cs),
(135.799,4,o),
(72.778,109,o),
(99.551,243,cs),
(126.325,377,o),
(256.9,500,o),
(387.9,500,cs)
);
},
{
closed = 1;
nodes = (
(381.391,47,o),
(496.971,145,o),
(519.349,257,cs),
(547.72,399,o),
(484.707,464,o),
(379.707,464,cs),
(274.707,464,o),
(165.53,348,o),
(143.153,236,cs),
(120.975,125,o),
(171.391,47,o),
(276.391,47,cs)
);
}
);
width = 599;
},
{
anchors = (
{
name = top;
position = "{427, 600}";
},
{
name = left;
position = "{1070, 202}";
}
);
layerId = "1EECF98D-35CB-4836-8875-A967ACEC66D2";
shapes = (
{
closed = 1;
nodes = (
(635,591,o),
(652,658,o),
(770,650,cs),
(896,642,o),
(910,564,o),
(910,564,c),
(902,437,o),
(895,233,o),
(908,69,c),
(908,69,o),
(904,-1,o),
(790,-1,cs),
(662,-1,o),
(632,83,o),
(632,83,c),
(610,227,o),
(613,429,o),
(635,591,c)
);
},
{
closed = 1;
nodes = (
(698,501,o),
(823,421,o),
(823,250,cs),
(823,116,o),
(725,4,o),
(440,-1,cs),
(221,-4,o),
(44,108,o),
(46,242,cs),
(49,398,o),
(221,497,o),
(440,499,cs)
);
},
{
closed = 1;
nodes = (
(517,167,o),
(577,212,o),
(577,262,cs),
(577,325,o),
(529,354,o),
(464,354,cs),
(398,354,o),
(346,302,o),
(346,252,cs),
(346,203,o),
(386,167,o),
(451,167,cs)
);
}
);
width = 955;
},
{
anchors = (
{
name = left;
position = "{912, 202}";
},
{
name = top;
position = "{417, 600}";
}
);
layerId = "1C3422F9-BFDE-4FE8-A46C-291A8D4071B9";
shapes = (
{
closed = 1;
nodes = (
(755,631,o),
(756,649,o),
(789,649,cs),
(822,649,o),
(822,625,o),
(822,625,c),
(804,490,o),
(804,183,o),
(819,20,c),
(819,20,o),
(816,1,o),
(788,1,cs),
(759,1,o),
(752,18,o),
(752,18,c),
(728,163,o),
(732,469,o),
(755,631,c)
);
},
{
closed = 1;
nodes = (
(626,500,o),
(768,422,o),
(768,250,cs),
(768,116,o),
(591,4,o),
(396,4,cs),
(201,4,o),
(75,109,o),
(75,243,cs),
(75,377,o),
(234,500,o),
(431,500,cs)
);
},
{
closed = 1;
nodes = (
(557,47,o),
(701,145,o),
(701,257,cs),
(701,399,o),
(587,464,o),
(429,464,cs),
(272,464,o),
(143,348,o),
(143,236,cs),
(143,125,o),
(242,47,o),
(399,47,cs)
);
}
);
width = 897;
},
{
anchors = (
{
name = top;
position = "{285, 600}";
},
{
name = left;
position = "{714, 202}";
}
);
layerId = "EE7B1B97-935D-491C-911D-EA8B82785AFC";
shapes = (
{
closed = 1;
nodes = (
(424,591,o),
(435,658,o),
(514,650,cs),
(598,642,o),
(607,564,o),
(607,564,c),
(602,437,o),
(597,233,o),
(606,69,c),
(606,69,o),
(603,-1,o),
(527,-1,cs),
(442,-1,o),
(422,83,o),
(422,83,c),
(407,227,o),
(409,429,o),
(424,591,c)
);
},
{
closed = 1;
nodes = (
(466,501,o),
(549,421,o),
(549,250,cs),
(549,116,o),
(484,4,o),
(294,-1,cs),
(148,-4,o),
(30,108,o),
(31,242,cs),
(33,398,o),
(148,497,o),
(294,499,cs)
);
},
{
closed = 1;
nodes = (
(345,167,o),
(385,212,o),
(385,262,cs),
(385,325,o),
(353,354,o),
(310,354,cs),
(266,354,o),
(231,302,o),
(231,252,cs),
(231,203,o),
(258,167,o),
(301,167,cs)
);
}
);
width = 637;
},
{
anchors = (
{
name = left;
position = "{608, 202}";
},
{
name = top;
position = "{278, 600}";
}
);
layerId = "6B947F8E-B64D-4F43-8779-746217178CEC";
shapes = (
{
closed = 1;
nodes = (
(503,631,o),
(504,649,o),
(526,649,cs),
(548,649,o),
(548,625,o),
(548,625,c),
(536,490,o),
(536,183,o),
(546,20,c),
(546,20,o),
(544,1,o),
(525,1,cs),
(506,1,o),
(501,18,o),
(501,18,c),
(485,163,o),
(488,469,o),
(503,631,c)
);
},
{
closed = 1;
nodes = (
(417,500,o),
(512,422,o),
(512,250,cs),
(512,116,o),
(394,4,o),
(264,4,cs),
(134,4,o),
(50,109,o),
(50,243,cs),
(50,377,o),
(156,500,o),
(287,500,cs)
);
},
{
closed = 1;
nodes = (
(371,47,o),
(467,145,o),
(467,257,cs),
(467,399,o),
(391,464,o),
(286,464,cs),
(181,464,o),
(95,348,o),
(95,236,cs),
(95,125,o),
(161,47,o),
(266,47,cs)
);
}
);
width = 598;
}
);
leftKerningGroup = a1;
rightKerningGroup = H;
unicode = 100;
},
{
glyphname = e;
layers = (
{
anchors = (
{
name = top;
position = "{416, 501}";
},
{
name = bottom;
position = "{416, 48}";
}
);
layerId = "FC2E0489-11A5-440C-8B4C-71CFB6149F63";
name = "#instance";
shapes = (
{
closed = 1;
nodes = (
(691,142,o),
(610,136,o),
(610,136,c),
(610,136,o),
(583,131,o),
(427,125,cs),
(337,122,o),
(311,156,o),
(301,166,c),
(301,166,o),
(487,149,o),
(583,164,cs),
(709,185,o),
(754,246,o),
(752,309,cs),
(749,389,o),
(673,490,o),
(437,501,cs),
(203,511,o),
(41,387,o),
(46,246,cs),
(49,139,o),
(98,24,o),
(364,-11,cs),
(529,-33,o),
(710,28,o),
(710,28,c),
(710,28,o),
(779,57,o),
(733,102,cs)
);
},
{
closed = 1;
nodes = (
(496,366,o),
(518,349,o),
(520,317,c),
(520,284,o),
(464,283,o),
(464,283,c),
(310,282,l),
(302,307,o),
(358,360,o),
(418,363,cs)
);
}
);
width = 798;
},
{
anchors = (
{
name = top;
position = "{516, 501}";
},
{
name = bottom;
position = "{455, 68}";
}
);
layerId = "7E05DFED-BC11-4724-94EA-0D0C4C5F5B37";
shapes = (
{
closed = 1;
nodes = (
(719.372,142,o),
(637.173,136,o),
(637.173,136,c),
(637.173,136,o),
(609.174,131,o),
(451.975,125,cs),
(361.376,122,o),
(342.169,156,o),
(334.167,166,c),
(334.167,166,o),
(516.77,149,o),
(615.767,164,cs),
(745.963,185,o),
(803.151,246,o),
(813.738,309,cs),
(826.722,389,o),
(770.902,490,o),
(537.1,501,cs),
(305.098,511,o),
(118.323,387,o),
(95.151,246,cs),
(76.772,139,o),
(102.795,24,o),
(361.802,-11,cs),
(522.407,-33,o),
(715.594,28,o),
(715.594,28,c),
(715.594,28,o),
(790.389,57,o),
(753.38,102,cs)
);
},
{
closed = 1;
nodes = (
(569.127,366,o),
(587.73,349,o),
(583.337,317,c),
(576.743,284,o),
(520.543,283,o),
(520.543,283,c),
(366.344,282,l),
(363.339,307,o),
(429.928,360,o),
(490.527,363,cs)
);
}
);
width = 798;
},
{
anchors = (
{
name = top;
position = "{545, 501}";
},
{
name = bottom;
position = "{439, 32}";
}
);
layerId = "99376340-70F9-4B1D-A253-B1BEDBF73140";
shapes = (
{
closed = 1;
nodes = (
(744.988,60,o),
(714.589,53,o),
(714.589,53,c),
(714.589,53,o),
(540.595,23,o),
(397.394,32,cs),
(244.192,41,o),
(176.378,112,o),
(187.361,197,c),
(187.361,197,o),
(506.363,187,o),
(604.76,199,cs),
(704.358,212,o),
(765.95,250,o),
(781.536,318,c),
(794.923,385,o),
(782.703,484,o),
(549.901,495,cs),
(317.899,505,o),
(144.929,355,o),
(125.55,248,cs),
(104.972,140,o),
(116.596,18,o),
(377.002,-10,cs),
(526.805,-26,o),
(730.796,19,o),
(730.796,19,c),
(730.796,19,o),
(752.995,25,o),
(749.992,40,cs)
);
},
{
closed = 1;
nodes = (
(687.507,463,o),
(736.317,417,o),
(719.935,325,cs),
(702.553,233,o),
(563.754,229,o),
(563.754,229,c),
(187.155,226,l),
(187.341,297,o),
(306.71,449,o),
(495.109,456,cs)
);
}
);
width = 819;
},
{
anchors = (
{
name = top;
position = "{378, 501}";
},
{
name = bottom;
position = "{288, 48}";
}
);
layerId = "F94FFD99-753E-41E1-86D1-359C136D3DE6";
shapes = (
{
closed = 1;
nodes = (
(489.372,142,o),
(434.173,136,o),
(434.173,136,c),
(434.173,136,o),
(415.174,131,o),
(309.975,125,cs),
(249.376,122,o),
(239.169,156,o),
(234.167,166,c),
(234.167,166,o),
(354.77,149,o),
(421.767,164,cs),
(509.963,185,o),
(552.151,246,o),
(563.738,309,cs),
(577.722,389,o),
(546.902,490,o),
(392.1,501,cs),
(238.098,511,o),
(105.323,387,o),
(80.151,246,cs),
(60.772,139,o),
(70.795,24,o),
(240.802,-11,cs),
(346.407,-33,o),
(479.594,28,o),
(479.594,28,c),
(479.594,28,o),
(531.389,57,o),
(509.38,102,cs)
);
},
{
closed = 1;
nodes = (
(404.127,366,o),
(415.73,349,o),
(410.337,317,c),
(403.743,284,o),
(366.543,283,o),
(366.543,283,c),
(263.344,282,l),
(263.339,307,o),
(310.928,360,o),
(351.527,363,cs)
);
}
);
width = 533;
},
{
anchors = (
{
name = top;
position = "{397, 501}";
},
{
name = bottom;
position = "{291, 32}";
}
);
layerId = "E82ED6F4-5586-4A54-A016-86253174F252";
shapes = (
{
closed = 1;
nodes = (
(500.988,60,o),
(480.589,53,o),
(480.589,53,c),
(480.589,53,o),
(362.595,23,o),
(267.394,32,cs),
(166.192,41,o),
(125.378,112,o),
(138.361,197,c),
(138.361,197,o),
(350.363,187,o),
(416.76,199,cs),
(484.358,212,o),
(527.95,250,o),
(542.536,318,cs),
(555.923,385,o),
(554.703,484,o),
(399.901,495,cs),
(245.899,505,o),
(120.929,355,o),
(100.55,248,cs),
(79.972,140,o),
(79.596,18,o),
(251.002,-10,cs),
(349.805,-26,o),
(488.796,19,o),
(488.796,19,c),
(488.796,19,o),
(503.995,25,o),
(502.992,40,cs)
);
},
{
closed = 1;
nodes = (
(489.507,463,o),
(519.317,417,o),
(501.935,325,cs),
(484.553,233,o),
(391.754,229,o),
(391.754,229,c),
(140.155,226,l),
(145.341,297,o),
(234.71,449,o),
(361.109,456,cs)
);
}
);
width = 546;
},
{
anchors = (
{
name = top;
position = "{416, 501}";
},
{
name = bottom;
position = "{416, 48}";
}
);
layerId = "1EECF98D-35CB-4836-8875-A967ACEC66D2";
shapes = (
{
closed = 1;
nodes = (
(691,142,o),
(610,136,o),
(610,136,c),
(610,136,o),
(583,131,o),
(427,125,cs),
(337,122,o),
(311,156,o),
(301,166,c),
(301,166,o),
(487,149,o),
(583,164,cs),
(709,185,o),
(754,246,o),
(752,309,cs),
(749,389,o),
(673,490,o),
(437,501,cs),
(203,511,o),
(41,387,o),
(46,246,cs),
(49,139,o),
(98,24,o),
(364,-11,cs),
(529,-33,o),
(710,28,o),
(710,28,c),
(710,28,o),
(779,57,o),
(733,102,cs)
);
},
{
closed = 1;
nodes = (
(496,366,o),
(518,349,o),
(520,317,c),
(520,284,o),
(464,283,o),
(464,283,c),
(310,282,l),
(302,307,o),
(358,360,o),
(418,363,cs)
);
}
);
width = 798;
},
{
anchors = (
{
name = top;
position = "{445, 501}";
},
{
name = bottom;
position = "{455, 7}";
}
);
layerId = "1C3422F9-BFDE-4FE8-A46C-291A8D4071B9";
shapes = (
{
closed = 1;
nodes = (
(733,60,o),
(704,53,o),
(704,53,c),
(704,53,o),
(536,23,o),
(391,32,cs),
(236,41,o),
(154,112,o),
(148,197,c),
(148,197,o),
(469,187,o),
(565,199,cs),
(662,212,o),
(716,250,o),
(718,318,cs),
(718,385,o),
(686,484,o),
(451,495,cs),
(217,505,o),
(74,355,o),
(76,248,cs),
(77,140,o),
(113,18,o),
(379,-10,cs),
(532,-26,o),
(727,19,o),
(727,19,c),
(727,19,o),
(748,25,o),
(742,40,cs)
);
},
{
closed = 1;
nodes = (
(595,463,o),
(653,417,o),
(655,325,cs),
(656,233,o),
(518,229,o),
(518,229,c),
(142,226,l),
(128,297,o),
(217,449,o),
(404,456,cs)
);
}
);
width = 819;
},
{
anchors = (
{
name = top;
position = "{278, 501}";
},
{
name = bottom;
position = "{278, 48}";
}
);
layerId = "EE7B1B97-935D-491C-911D-EA8B82785AFC";
shapes = (
{
closed = 1;
nodes = (
(461,142,o),
(407,136,o),
(407,136,c),
(407,136,o),
(389,131,o),
(285,125,cs),
(225,122,o),
(208,156,o),
(201,166,c),
(201,166,o),
(325,149,o),
(389,164,cs),
(473,185,o),
(503,246,o),
(502,309,cs),
(500,389,o),
(449,490,o),
(292,501,cs),
(136,511,o),
(28,387,o),
(31,246,cs),
(33,139,o),
(66,24,o),
(243,-11,cs),
(353,-33,o),
(474,28,o),
(474,28,c),
(474,28,o),
(520,57,o),
(489,102,cs)
);
},
{
closed = 1;
nodes = (
(331,366,o),
(346,349,o),
(347,317,c),
(347,284,o),
(310,283,o),
(310,283,c),
(207,282,l),
(202,307,o),
(239,360,o),
(279,363,cs)
);
}
);
width = 533;
},
{
anchors = (
{
name = top;
position = "{297, 501}";
},
{
name = bottom;
position = "{291, 32}";
}
);
layerId = "6B947F8E-B64D-4F43-8779-746217178CEC";
shapes = (
{
closed = 1;
nodes = (
(489,60,o),
(470,53,o),
(470,53,c),
(470,53,o),
(358,23,o),
(261,32,cs),
(158,41,o),
(103,112,o),
(99,197,c),
(99,197,o),
(313,187,o),
(377,199,cs),
(442,212,o),
(478,250,o),
(479,318,cs),
(479,385,o),
(458,484,o),
(301,495,cs),
(145,505,o),
(50,355,o),
(51,248,cs),
(52,140,o),
(76,18,o),
(253,-10,cs),
(355,-26,o),
(485,19,o),
(485,19,c),
(485,19,o),
(499,25,o),
(495,40,cs)
);
},
{
closed = 1;
nodes = (
(397,463,o),
(436,417,o),
(437,325,cs),
(438,233,o),
(346,229,o),
(346,229,c),
(95,226,l),
(86,297,o),
(145,449,o),
(270,456,cs)
);
}
);
width = 546;
}
);
leftKerningGroup = c1;
rightKerningGroup = c;
unicode = 101;
},
{
glyphname = f;
layers = (
{
layerId = "FC2E0489-11A5-440C-8B4C-71CFB6149F63";
name = "#instance";
shapes = (
{
closed = 1;
nodes = (
(126,86,o),
(134,0,o),
(290,-1,cs),
(402,-2,o),
(414,61,o),
(414,61,c),
(414,175,o),
(404,242,o),
(410,379,c),
(416,444,o),
(444,482,o),
(467,485,c),
(498,492,o),
(524,473,o),
(557,464,c),
(557,464,o),
(614,445,o),
(662,458,cs),
(764,486,o),
(722,545,o),
(722,545,c),
(680,594,o),
(573,645,o),
(438,647,c),
(305,641,o),
(152,606,o),
(125,453,c),
(113,321,o),
(116,245,o),
(126,86,c)
);
},
{
closed = 1;
nodes = (
(119,386,o),
(35,369,o),
(47,314,c),
(53,281,o),
(117,268,o),
(117,268,c),
(258,250,o),
(429,254,o),
(608,251,c),
(608,251,o),
(710,254,o),
(713,315,cs),
(716,382,o),
(587,403,o),
(587,403,c),
(392,407,o),
(296,400,o),
(119,386,c)
);
}
);
width = 776;
},
{
layerId = "7E05DFED-BC11-4724-94EA-0D0C4C5F5B37";
shapes = (
{
closed = 1;
nodes = (
(142,86,o),
(133,0,o),
(289,-1,cs),
(401,-2,o),
(425,61,o),
(425,61,c),
(448,175,o),
(451,242,o),
(485,379,c),
(504,444,o),
(539,482,o),
(563,485,c),
(595,492,o),
(618,473,o),
(649,464,c),
(649,464,o),
(702,445,o),
(753,458,cs),
(860,486,o),
(830,545,o),
(830,545,c),
(798,594,o),
(701,645,o),
(566,647,c),
(432,641,o),
(272,606,o),
(215,453,c),
(176,321,o),
(164,245,o),
(142,86,c)
);
},
{
closed = 1;
nodes = (
(195,386,o),
(108,369,o),
(109,314,c),
(108,281,o),
(170,268,o),
(170,268,c),
(307,250,o),
(479,254,o),
(657,251,c),
(657,251,o),
(760,254,o),
(775,315,cs),
(791,382,o),
(667,403,o),
(667,403,c),
(472,407,o),
(375,400,o),
(195,386,c)
);
}
);
width = 775;
},
{
layerId = "99376340-70F9-4B1D-A253-B1BEDBF73140";
shapes = (
{
closed = 1;
nodes = (
(226,17,o),
(228,-4,o),
(262,-4,cs),
(297,-4,o),
(298,15,o),
(298,15,c),
(314,163,o),
(340,296,o),
(391,463,cs),
(416,547,o),
(502,598,o),
(624,610,c),
(690,611,o),
(744,596,o),
(785,562,c),
(785,562,o),
(807,546,o),
(827,554,cs),
(846,562,o),
(843,574,o),
(843,574,c),
(800,619,o),
(733,647,o),
(633,649,c),
(460,643,o),
(357,577,o),
(310,463,c),
(272,331,o),
(247,177,o),
(226,17,c)
);
},
{
closed = 1;
nodes = (
(185,433,o),
(160,430,o),
(159,417,cs),
(159,402,o),
(199,402,o),
(199,402,c),
(384,409,o),
(566,411,o),
(744,408,c),
(744,408,o),
(768,408,o),
(773,424,c),
(778,443,o),
(744,446,o),
(744,446,c),
(551,451,o),
(363,447,o),
(185,433,c)
);
}
);
width = 805;
},
{
layerId = "F94FFD99-753E-41E1-86D1-359C136D3DE6";
shapes = (
{
closed = 1;
nodes = (
(101,86,o),
(89,0,o),
(193,-1,cs),
(268,-2,o),
(288,61,o),
(288,61,c),
(311,175,o),
(317,242,o),
(349,379,c),
(366,444,o),
(392,482,o),
(408,485,c),
(430,492,o),
(444,473,o),
(464,464,c),
(464,464,o),
(498,445,o),
(533,458,cs),
(606,486,o),
(590,545,o),
(590,545,c),
(572,594,o),
(511,645,o),
(421,647,c),
(331,641,o),
(222,606,o),
(174,453,c),
(139,321,o),
(126,245,o),
(101,86,c)
);
},
{
closed = 1;
nodes = (
(156,386,o),
(97,369,o),
(94,314,cs),
(91,281,o),
(132,268,o),
(132,268,c),
(222,250,o),
(337,254,o),
(455,251,c),
(455,251,o),
(524,254,o),
(538,315,cs),
(553,382,o),
(472,403,o),
(472,403,c),
(342,407,o),
(277,400,o),
(156,386,c)
);
}
);
width = 517;
},
{
layerId = "E82ED6F4-5586-4A54-A016-86253174F252";
shapes = (
{
closed = 1;
nodes = (
(152,17,o),
(152,-4,o),
(175,-4,cs),
(198,-4,o),
(200,15,o),
(200,15,c),
(221,163,o),
(247,296,o),
(292,463,cs),
(314,547,o),
(375,598,o),
(457,610,c),
(501,611,o),
(536,596,o),
(561,562,c),
(561,562,o),
(575,546,o),
(589,554,cs),
(602,562,o),
(601,574,o),
(601,574,c),
(575,619,o),
(532,647,o),
(466,649,c),
(350,643,o),
(277,577,o),
(238,463,c),
(204,331,o),
(177,177,o),
(152,17,c)
);
},
{
closed = 1;
nodes = (
(153,433,o),
(136,430,o),
(134,417,cs),
(133,402,o),
(160,402,o),
(160,402,c),
(284,409,o),
(405,411,o),
(524,408,c),
(524,408,o),
(540,408,o),
(544,424,cs),
(549,443,o),
(526,446,o),
(526,446,c),
(398,451,o),
(272,447,o),
(153,433,c)
);
}
);
width = 537;
},
{
layerId = "1EECF98D-35CB-4836-8875-A967ACEC66D2";
shapes = (
{
closed = 1;
nodes = (
(126,86,o),
(134,0,o),
(290,-1,cs),
(402,-2,o),
(414,61,o),
(414,61,c),
(414,175,o),
(404,242,o),
(410,379,c),
(416,444,o),
(444,482,o),
(467,485,c),
(498,492,o),
(524,473,o),
(557,464,c),
(557,464,o),
(614,445,o),
(662,458,cs),
(764,486,o),
(722,545,o),
(722,545,c),
(680,594,o),
(573,645,o),
(438,647,c),
(305,641,o),
(152,606,o),
(125,453,c),
(113,321,o),
(116,245,o),
(126,86,c)
);
},
{
closed = 1;
nodes = (
(119,386,o),
(35,369,o),
(47,314,cs),
(53,281,o),
(117,268,o),
(117,268,c),
(258,250,o),
(429,254,o),
(608,251,c),
(608,251,o),
(710,254,o),
(713,315,cs),
(716,382,o),
(587,403,o),
(587,403,c),
(392,407,o),
(296,400,o),
(119,386,c)
);
}
);
width = 776;
},
{
layerId = "1C3422F9-BFDE-4FE8-A46C-291A8D4071B9";
shapes = (
{
closed = 1;
nodes = (
(223,17,o),
(229,-4,o),
(263,-4,cs),
(298,-4,o),
(295,15,o),
(295,15,c),
(281,163,o),
(281,296,o),
(298,463,cs),
(307,547,o),
(383,598,o),
(502,610,c),
(568,611,o),
(625,596,o),
(673,562,c),
(673,562,o),
(698,546,o),
(716,554,cs),
(734,562,o),
(728,574,o),
(728,574,c),
(676,619,o),
(604,647,o),
(503,649,c),
(332,643,o),
(242,577,o),
(217,463,c),
(206,331,o),
(212,177,o),
(223,17,c)
);
},
{
closed = 1;
nodes = (
(98,433,o),
(74,430,o),
(76,417,cs),
(79,402,o),
(119,402,o),
(119,402,c),
(302,409,o),
(484,411,o),
(662,408,c),
(662,408,o),
(686,408,o),
(688,424,cs),
(689,443,o),
(655,446,o),
(655,446,c),
(461,451,o),
(274,447,o),
(98,433,c)
);
}
);
width = 804;
},
{
layerId = "EE7B1B97-935D-491C-911D-EA8B82785AFC";
shapes = (
{
closed = 1;
nodes = (
(84,86,o),
(89,0,o),
(193,-1,cs),
(268,-2,o),
(276,61,o),
(276,61,c),
(276,175,o),
(269,242,o),
(273,379,c),
(277,444,o),
(296,482,o),
(311,485,c),
(332,492,o),
(349,473,o),
(371,464,c),
(371,464,o),
(409,445,o),
(441,458,cs),
(509,486,o),
(481,545,o),
(481,545,c),
(453,594,o),
(382,645,o),
(292,647,c),
(203,641,o),
(101,606,o),
(83,453,c),
(75,321,o),
(77,245,o),
(84,86,c)
);
},
{
closed = 1;
nodes = (
(79,386,o),
(23,369,o),
(31,314,cs),
(35,281,o),
(78,268,o),
(78,268,c),
(172,250,o),
(286,254,o),
(405,251,c),
(405,251,o),
(473,254,o),
(475,315,cs),
(477,382,o),
(391,403,o),
(391,403,c),
(261,407,o),
(197,400,o),
(79,386,c)
);
}
);
width = 517;
},
{
layerId = "6B947F8E-B64D-4F43-8779-746217178CEC";
shapes = (
{
closed = 1;
nodes = (
(149,17,o),
(153,-4,o),
(176,-4,cs),
(199,-4,o),
(197,15,o),
(197,15,c),
(188,163,o),
(188,296,o),
(199,463,cs),
(205,547,o),
(256,598,o),
(335,610,c),
(379,611,o),
(417,596,o),
(449,562,c),
(449,562,o),
(466,546,o),
(478,554,cs),
(490,562,o),
(486,574,o),
(486,574,c),
(451,619,o),
(403,647,o),
(336,649,c),
(222,643,o),
(162,577,o),
(145,463,c),
(138,331,o),
(142,177,o),
(149,17,c)
);
},
{
closed = 1;
nodes = (
(66,433,o),
(50,430,o),
(51,417,cs),
(53,402,o),
(80,402,o),
(80,402,c),
(202,409,o),
(323,411,o),
(442,408,c),
(442,408,o),
(458,408,o),
(459,424,cs),
(460,443,o),
(437,446,o),
(437,446,c),
(308,451,o),
(183,447,o),
(66,433,c)
);
}
);
width = 537;
}
);
leftKerningGroup = f;
rightKerningGroup = f1;
unicode = 102;
},
{
glyphname = g;
layers = (
{
anchors = (
{
name = top;
position = "{578, 501}";
},
{
name = bottom;
position = "{636, 793}";
}
);
layerId = "7E05DFED-BC11-4724-94EA-0D0C4C5F5B37";
shapes = (
{
closed = 1;
nodes = (
(798.1,501,o),
(907.116,421,o),
(872.95,250,cs),
(846.177,116,o),
(725.799,4,o),
(439.8,-1,cs),
(220.201,-4,o),
(65.578,108,o),
(94.352,242,cs),
(128.52,398,o),
(320.301,497,o),
(539.7,499,cs)
);
},
{
closed = 1;
nodes = (
(550.367,167,o),
(619.358,212,o),
(629.348,262,cs),
(641.935,325,o),
(599.729,354,o),
(534.729,354,cs),
(468.729,354,o),
(406.34,302,o),
(396.35,252,cs),
(386.559,203,o),
(419.367,167,o),
(484.367,167,cs)
);
},
{
closed = 1;
nodes = (
(751.909,455,o),
(781.5,498,o),
(880.5,498,cs),
(979.7,499,o),
(1018.912,440,o),
(1018.912,440,c),
(1043.142,291,o),
(1024.964,180,o),
(977,0,c),
(931.027,-135,o),
(802.841,-206,o),
(561.243,-214,cs),
(420.044,-220,o),
(300.04,-200,o),
(199.033,-165,c),
(199.033,-165,o),
(92.626,-132,o),
(138.414,-68,cs),
(183.201,-4,o),
(287.405,-23,o),
(287.405,-23,c),
(386.608,-42,o),
(433.01,-50,o),
(503.411,-53,c),
(645.21,-49,o),
(688.403,-13,o),
(701.986,70,c),
(753.35,252,o),
(741.339,307,o),
(751.909,455,c)
);
}
);
width = 1028;
},
{
anchors = (
{
name = top;
position = "{587, 501}";
},
{
name = bottom;
position = "{647, 793}";
}
);
layerId = "99376340-70F9-4B1D-A253-B1BEDBF73140";
shapes = (
{
closed = 1;
nodes = (
(813.9,500,o),
(963.316,422,o),
(928.95,250,cs),
(902.177,116,o),
(675.799,4,o),
(448.799,4,cs),
(222.799,4,o),
(97.778,109,o),
(124.551,243,cs),
(151.325,377,o),
(360.9,500,o),
(586.9,500,cs)
);
},
{
closed = 1;
nodes = (
(642.391,47,o),
(829.971,145,o),
(852.349,257,cs),
(880.72,399,o),
(759.707,464,o),
(578.707,464,cs),
(395.707,464,o),
(223.53,348,o),
(201.153,236,cs),
(178.975,125,o),
(277.391,47,o),
(460.391,47,cs)
);
},
{
closed = 1;
nodes = (
(912.507,463,o),
(912.503,483,o),
(943.703,484,cs),
(976.103,486,o),
(982.906,470,o),
(982.906,470,c),
(1006.136,321,o),
(972.373,137,o),
(920.208,-39,c),
(871.03,-150,o),
(760.241,-204,o),
(595.242,-209,cs),
(453.043,-215,o),
(333.24,-199,o),
(231.233,-164,c),
(231.233,-164,o),
(206.031,-155,o),
(218.028,-140,cs),
(229.825,-126,o),
(258.826,-131,o),
(258.826,-131,c),
(354.832,-161,o),
(464.235,-174,o),
(588.633,-167,c),
(730.433,-163,o),
(817.623,-117,o),
(850.805,-26,c),
(902.169,156,o),
(930.734,329,o),
(912.507,463,c)
);
}
);
width = 1013;
},
{
anchors = (
{
name = top;
position = "{419, 501}";
},
{
name = bottom;
position = "{477, 793}";
}
);
layerId = "F94FFD99-753E-41E1-86D1-359C136D3DE6";
shapes = (
{
closed = 1;
nodes = (
(566.1,501,o),
(633.116,421,o),
(598.95,250,cs),
(572.177,116,o),
(484.799,4,o),
(293.8,-1,cs),
(147.201,-4,o),
(51.578,108,o),
(79.352,242,cs),
(112.52,398,o),
(247.301,497,o),
(393.7,499,cs)
);
},
{
closed = 1;
nodes = (
(378.367,167,o),
(427.358,212,o),
(437.348,262,cs),
(449.935,325,o),
(423.729,354,o),
(380.729,354,cs),
(336.729,354,o),
(291.34,302,o),
(281.35,252,cs),
(271.559,203,o),
(291.367,167,o),
(334.367,167,cs)
);
},
{
closed = 1;
nodes = (
(531.909,455,o),
(554.5,498,o),
(620.5,498,cs),
(686.7,499,o),
(708.912,440,o),
(708.912,440,c),
(715.142,291,o),
(695.964,180,o),
(652,0,c),
(612.027,-135,o),
(521.841,-206,o),
(360.243,-214,cs),
(266.044,-220,o),
(187.04,-200,o),
(122.033,-165,c),
(122.033,-165,o),
(53.626,-132,o),
(88.414,-68,cs),
(122.201,-4,o),
(190.405,-23,o),
(190.405,-23,c),
(255.608,-42,o),
(286.01,-50,o),
(332.411,-53,c),
(427.21,-49,o),
(458.403,-13,o),
(472.986,70,c),
(519.35,252,o),
(515.339,307,o),
(531.909,455,c)
);
}
);
width = 686;
},
{
anchors = (
{
name = top;
position = "{425, 501}";
},
{
name = bottom;
position = "{484, 793}";
}
);
layerId = "E82ED6F4-5586-4A54-A016-86253174F252";
shapes = (
{
closed = 1;
nodes = (
(575.9,500,o),
(670.316,422,o),
(635.95,250,cs),
(609.177,116,o),
(450.799,4,o),
(299.799,4,cs),
(148.799,4,o),
(72.778,109,o),
(99.551,243,cs),
(126.325,377,o),
(273.9,500,o),
(424.9,500,cs)
);
},
{
closed = 1;
nodes = (
(431.391,47,o),
(562.971,145,o),
(585.349,257,cs),
(613.72,399,o),
(537.707,464,o),
(416.707,464,cs),
(294.707,464,o),
(172.53,348,o),
(150.153,236,cs),
(127.975,125,o),
(188.391,47,o),
(310.391,47,cs)
);
},
{
closed = 1;
nodes = (
(639.507,463,o),
(640.503,483,o),
(661.703,484,cs),
(683.103,486,o),
(686.906,470,o),
(686.906,470,c),
(692.136,321,o),
(657.373,137,o),
(611.208,-39,c),
(571.03,-150,o),
(493.241,-204,o),
(383.242,-209,c),
(288.043,-215,o),
(209.24,-199,o),
(143.233,-164,c),
(143.233,-164,o),
(127.031,-155,o),
(136.028,-140,cs),
(144.825,-126,o),
(163.826,-131,o),
(163.826,-131,c),
(225.832,-161,o),
(298.235,-174,o),
(381.633,-167,c),
(476.433,-163,o),
(537.623,-117,o),
(565.805,-26,c),
(612.169,156,o),
(642.734,329,o),
(639.507,463,c)
);
}
);
width = 675;
},
{
anchors = (
{
name = top;
position = "{478, 501}";
},
{
name = bottom;
position = "{478, 793}";
}
);
layerId = "1EECF98D-35CB-4836-8875-A967ACEC66D2";
shapes = (
{
closed = 1;
nodes = (
(698,501,o),
(823,421,o),
(823,250,cs),
(823,116,o),
(725,4,o),
(440,-1,cs),
(221,-4,o),
(44,108,o),
(46,242,cs),
(49,398,o),
(221,497,o),
(440,499,cs)
);
},
{
closed = 1;
nodes = (
(517,167,o),
(577,212,o),
(577,262,cs),
(577,325,o),
(529,354,o),
(464,354,cs),
(398,354,o),
(346,302,o),
(346,252,cs),
(346,203,o),
(386,167,o),
(451,167,cs)
);
},
{
closed = 1;
nodes = (
(661,455,o),
(682,498,o),
(781,498,cs),
(880,499,o),
(931,440,o),
(931,440,c),
(985,291,o),
(989,180,o),
(977,0,c),
(958,-135,o),
(844,-206,o),
(604,-214,cs),
(464,-220,o),
(340,-200,o),
(232,-165,c),
(232,-165,o),
(119,-132,o),
(152,-68,cs),
(184,-4,o),
(292,-23,o),
(292,-23,c),
(395,-42,o),
(443,-50,o),
(514,-53,c),
(655,-49,o),
(691,-13,o),
(688,70,c),
(703,252,o),
(680,307,o),
(661,455,c)
);
}
);
width = 1028;
},
{
anchors = (
{
name = top;
position = "{486, 501}";
},
{
name = bottom;
position = "{488, 793}";
}
);
layerId = "1C3422F9-BFDE-4FE8-A46C-291A8D4071B9";
shapes = (
{
closed = 1;
nodes = (
(713,500,o),
(878,422,o),
(878,250,cs),
(878,116,o),
(674,4,o),
(447,4,cs),
(221,4,o),
(75,109,o),
(75,243,cs),
(75,377,o),
(260,500,o),
(486,500,cs)
);
},
{
closed = 1;
nodes = (
(632,47,o),
(800,145,o),
(800,257,cs),
(800,399,o),
(666,464,o),
(485,464,cs),
(302,464,o),
(153,348,o),
(153,236,cs),
(153,125,o),
(267,47,o),
(450,47,cs)
);
},
{
closed = 1;
nodes = (
(819,463,o),
(815,483,o),
(846,484,cs),
(878,486,o),
(888,470,o),
(888,470,c),
(941,321,o),
(944,137,o),
(927,-39,c),
(900,-150,o),
(800,-204,o),
(636,-209,c),
(495,-215,o),
(372,-199,o),
(263,-164,c),
(263,-164,o),
(236,-155,o),
(245,-140,cs),
(254,-126,o),
(284,-131,o),
(284,-131,c),
(386,-161,o),
(498,-174,o),
(621,-167,c),
(762,-163,o),
(840,-117,o),
(855,-26,c),
(870,156,o),
(864,329,o),
(819,463,c)
);
}
);
width = 1012;
},
{
anchors = (
{
name = top;
position = "{319, 501}";
},
{
name = bottom;
position = "{319, 793}";
}
);
layerId = "EE7B1B97-935D-491C-911D-EA8B82785AFC";
shapes = (
{
closed = 1;
nodes = (
(466,501,o),
(549,421,o),
(549,250,cs),
(549,116,o),
(484,4,o),
(294,-1,cs),
(148,-4,o),
(30,108,o),
(31,242,cs),
(33,398,o),
(148,497,o),
(294,499,cs)
);
},
{
closed = 1;
nodes = (
(345,167,o),
(385,212,o),
(385,262,cs),
(385,325,o),
(353,354,o),
(310,354,cs),
(266,354,o),
(231,302,o),
(231,252,cs),
(231,203,o),
(258,167,o),
(301,167,cs)
);
},
{
closed = 1;
nodes = (
(441,455,o),
(455,498,o),
(521,498,cs),
(587,499,o),
(621,440,o),
(621,440,c),
(657,291,o),
(660,180,o),
(652,0,c),
(639,-135,o),
(563,-206,o),
(403,-214,cs),
(310,-220,o),
(227,-200,o),
(155,-165,c),
(155,-165,o),
(80,-132,o),
(102,-68,cs),
(123,-4,o),
(195,-23,o),
(195,-23,c),
(264,-42,o),
(296,-50,o),
(343,-53,c),
(437,-49,o),
(461,-13,o),
(459,70,c),
(469,252,o),
(454,307,o),
(441,455,c)
);
}
);
width = 686;
},
{
anchors = (
{
name = top;
position = "{324, 501}";
},
{
name = bottom;
position = "{325, 793}";
}
);
layerId = "6B947F8E-B64D-4F43-8779-746217178CEC";
shapes = (
{
closed = 1;
nodes = (
(475,500,o),
(585,422,o),
(585,250,cs),
(585,116,o),
(449,4,o),
(298,4,cs),
(147,4,o),
(50,109,o),
(50,243,cs),
(50,377,o),
(173,500,o),
(324,500,cs)
);
},
{
closed = 1;
nodes = (
(421,47,o),
(533,145,o),
(533,257,cs),
(533,399,o),
(444,464,o),
(323,464,cs),
(201,464,o),
(102,348,o),
(102,236,cs),
(102,125,o),
(178,47,o),
(300,47,cs)
);
},
{
closed = 1;
nodes = (
(546,463,o),
(543,483,o),
(564,484,cs),
(585,486,o),
(592,470,o),
(592,470,c),
(627,321,o),
(629,137,o),
(618,-39,c),
(600,-150,o),
(533,-204,o),
(424,-209,c),
(330,-215,o),
(248,-199,o),
(175,-164,c),
(175,-164,o),
(157,-155,o),
(163,-140,cs),
(169,-126,o),
(189,-131,o),
(189,-131,c),
(257,-161,o),
(332,-174,o),
(414,-167,c),
(508,-163,o),
(560,-117,o),
(570,-26,c),
(580,156,o),
(576,329,o),
(546,463,c)
);
}
);
width = 674;
}
);
leftKerningGroup = a1;
rightKerningGroup = g;
unicode = 103;
},
{
glyphname = h;
layers = (
{
anchors = (
{
name = top;
position = "{509, 631}";
}
);
layerId = "FC2E0489-11A5-440C-8B4C-71CFB6149F63";
name = "#instance";
shapes = (
{
closed = 1;
nodes = (
(64,591,o),
(80,658,o),
(199,650,cs),
(325,642,o),
(338,564,o),
(338,564,c),
(331,437,o),
(323,233,o),
(337,69,c),
(337,69,o),
(332,-1,o),
(218,-1,cs),
(91,-1,o),
(61,83,o),
(61,83,c),
(38,227,o),
(41,429,o),
(64,591,c)
);
},
{
closed = 1;
nodes = (
(580,26,o),
(569,96,o),
(569,96,c),
(584,180,o),
(601,216,o),
(578,279,c),
(568,296,o),
(551,326,o),
(533,326,c),
(365,310,o),
(338,123,o),
(313,61,c),
(262,-13,o),
(208,236,o),
(223,269,c),
(146,295,l),
(212,363,l),
(301,485,o),
(424,489,o),
(523,491,c),
(670,485,o),
(821,399,o),
(863,292,c),
(890,212,o),
(878,139,o),
(853,49,c),
(853,49,o),
(811,-8,o),
(692,9,cs)
);
}
);
width = 924;
},
{
anchors = (
{
name = top;
position = "{635, 631}";
}
);
layerId = "7E05DFED-BC11-4724-94EA-0D0C4C5F5B37";
shapes = (
{
closed = 1;
nodes = (
(182.082,591,o),
(211.468,658,o),
(328.87,650,cs),
(453.272,642,o),
(450.687,564,o),
(450.687,564,c),
(418.313,437,o),
(369.553,233,o),
(350.786,69,c),
(350.786,69,o),
(331.8,-1,o),
(217.8,-1,cs),
(90.8,-1,o),
(77.583,83,o),
(77.583,83,c),
(83.355,227,o),
(126.714,429,o),
(182.082,591,c)
);
},
{
closed = 1;
nodes = (
(585.195,26,o),
(588.181,96,o),
(588.181,96,c),
(619.964,180,o),
(644.157,216,o),
(633.744,279,c),
(627.141,296,o),
(616.135,326,o),
(598.135,326,c),
(426.938,310,o),
(362.575,123,o),
(325.188,61,c),
(259.403,-13,o),
(255.153,236,o),
(276.746,269,c),
(204.941,295,l),
(284.527,363,l),
(397.903,485,o),
(521.702,489,o),
(621.102,491,c),
(766.903,485,o),
(900.72,399,o),
(921.342,292,c),
(932.358,212,o),
(905.772,139,o),
(862.79,49,c),
(862.79,49,o),
(809.402,-8,o),
(693.798,9,cs)
);
}
);
width = 924;
},
{
anchors = (
{
name = top;
position = "{612, 631}";
}
);
layerId = "99376340-70F9-4B1D-A253-B1BEDBF73140";
shapes = (
{
closed = 1;
nodes = (
(219.074,631,o),
(224.67,649,o),
(257.67,649,cs),
(290.67,649,o),
(285.875,625,o),
(285.875,625,c),
(240.902,490,o),
(180.563,183,o),
(161.996,20,c),
(161.996,20,o),
(156.2,1,o),
(128.2,1,cs),
(99.2,1,o),
(93.596,18,o),
(93.596,18,c),
(100.567,163,o),
(165.706,469,o),
(219.074,631,c)
);
},
{
closed = 1;
nodes = (
(674.796,19,o),
(688.392,42,o),
(688.392,42,c),
(729.772,139,o),
(756.155,226,o),
(747.942,290,c),
(723.92,400,o),
(659.912,440,o),
(574.511,443,c),
(389.317,417,o),
(250.547,263,o),
(187.561,193,cs),
(121.776,119,o),
(184.765,174,o),
(145.583,83,c),
(155.158,211,l),
(201.146,271,l),
(314.521,393,o),
(473.104,481,o),
(587.703,484,c),
(736.505,473,o),
(799.321,397,o),
(819.942,290,c),
(825.959,205,o),
(799.377,117,o),
(755.395,27,c),
(755.395,27,o),
(744.598,8,o),
(709.597,13,cs)
);
}
);
width = 851;
},
{
anchors = (
{
name = top;
position = "{466, 631}";
}
);
layerId = "F94FFD99-753E-41E1-86D1-359C136D3DE6";
shapes = (
{
closed = 1;
nodes = (
(161.082,591,o),
(185.468,658,o),
(262.87,650,cs),
(345.272,642,o),
(338.687,564,o),
(338.687,564,c),
(308.313,437,o),
(262.553,233,o),
(238.786,69,c),
(238.786,69,o),
(221.8,-1,o),
(145.8,-1,cs),
(60.8,-1,o),
(57.583,83,o),
(57.583,83,c),
(71.355,227,o),
(113.714,429,o),
(161.082,591,c)
);
},
{
closed = 1;
nodes = (
(392.195,26,o),
(399.181,96,o),
(399.181,96,c),
(425.964,180,o),
(444.157,216,o),
(441.744,279,c),
(438.141,296,o),
(433.135,326,o),
(421.135,326,c),
(305.938,310,o),
(250.575,123,o),
(221.188,61,c),
(172.403,-13,o),
(186.153,236,o),
(202.746,269,c),
(156.941,295,l),
(214.527,363,l),
(297.903,485,o),
(380.702,489,o),
(447.102,491,c),
(543.903,485,o),
(627.72,399,o),
(634.342,292,c),
(636.358,212,o),
(613.772,139,o),
(578.79,49,c),
(578.79,49,o),
(539.402,-8,o),
(463.798,9,cs)
);
}
);
width = 617;
},
{
anchors = (
{
name = top;
position = "{450, 631}";
}
);
layerId = "E82ED6F4-5586-4A54-A016-86253174F252";
shapes = (
{
closed = 1;
nodes = (
(188.074,631,o),
(192.67,649,o),
(214.67,649,cs),
(236.67,649,o),
(231.875,625,o),
(231.875,625,c),
(192.902,490,o),
(132.563,183,o),
(108.996,20,c),
(108.996,20,o),
(104.2,1,o),
(85.2,1,cs),
(66.2,1,o),
(63.596,18,o),
(63.596,18,c),
(77.567,163,o),
(141.706,469,o),
(188.074,631,c)
);
},
{
closed = 1;
nodes = (
(450.796,19,o),
(461.392,42,o),
(461.392,42,c),
(495.772,139,o),
(519.155,226,o),
(517.942,290,c),
(508.92,400,o),
(468.912,440,o),
(412.511,443,c),
(287.317,417,o),
(184.547,263,o),
(137.561,193,cs),
(88.776,119,o),
(134.765,174,o),
(102.583,83,c),
(117.158,211,l),
(152.146,271,l),
(235.521,393,o),
(347.104,481,o),
(423.703,484,c),
(522.505,473,o),
(559.321,397,o),
(565.942,290,c),
(563.959,205,o),
(540.377,117,o),
(505.395,27,c),
(505.395,27,o),
(496.598,8,o),
(473.597,13,cs)
);
}
);
width = 567;
},
{
anchors = (
{
name = top;
position = "{509, 631}";
}
);
layerId = "1EECF98D-35CB-4836-8875-A967ACEC66D2";
shapes = (
{
closed = 1;
nodes = (
(64,591,o),
(80,658,o),
(199,650,cs),
(325,642,o),
(338,564,o),
(338,564,c),
(331,437,o),
(323,233,o),
(337,69,c),
(337,69,o),
(332,-1,o),
(218,-1,cs),
(91,-1,o),
(61,83,o),
(61,83,c),
(38,227,o),
(41,429,o),
(64,591,c)
);
},
{
closed = 1;
nodes = (
(580,26,o),
(569,96,o),
(569,96,c),
(584,180,o),
(601,216,o),
(578,279,c),
(568,296,o),
(551,326,o),
(533,326,c),
(365,310,o),
(338,123,o),
(313,61,c),
(262,-13,o),
(208,236,o),
(223,269,c),
(146,295,l),
(212,363,l),
(301,485,o),
(424,489,o),
(523,491,c),
(670,485,o),
(821,399,o),
(863,292,c),
(890,212,o),
(878,139,o),
(853,49,c),
(853,49,o),
(811,-8,o),
(692,9,cs)
);
}
);
width = 924;
},
{
anchors = (
{
name = top;
position = "{486, 631}";
}
);
layerId = "1C3422F9-BFDE-4FE8-A46C-291A8D4071B9";
shapes = (
{
closed = 1;
nodes = (
(93,631,o),
(95,649,o),
(128,649,cs),
(161,649,o),
(161,625,o),
(161,625,c),
(143,490,o),
(144,183,o),
(158,20,c),
(158,20,o),
(156,1,o),
(128,1,cs),
(99,1,o),
(90,18,o),
(90,18,c),
(68,163,o),
(72,469,o),
(93,631,c)
);
},
{
closed = 1;
nodes = (
(671,19,o),
(680,42,o),
(680,42,c),
(702,139,o),
(711,226,o),
(690,290,c),
(644,400,o),
(572,440,o),
(486,443,c),
(306,417,o),
(198,263,o),
(149,193,cs),
(98,119,o),
(150,174,o),
(129,83,c),
(113,211,l),
(147,271,l),
(236,393,o),
(377,481,o),
(491,484,c),
(642,473,o),
(720,397,o),
(762,290,c),
(785,205,o),
(776,117,o),
(750,27,c),
(750,27,o),
(743,8,o),
(707,13,cs)
);
}
);
width = 851;
},
{
anchors = (
{
name = top;
position = "{340, 631}";
}
);
layerId = "EE7B1B97-935D-491C-911D-EA8B82785AFC";
shapes = (
{
closed = 1;
nodes = (
(43,591,o),
(54,658,o),
(133,650,cs),
(217,642,o),
(226,564,o),
(226,564,c),
(221,437,o),
(216,233,o),
(225,69,c),
(225,69,o),
(222,-1,o),
(146,-1,cs),
(61,-1,o),
(41,83,o),
(41,83,c),
(26,227,o),
(28,429,o),
(43,591,c)
);
},
{
closed = 1;
nodes = (
(387,26,o),
(380,96,o),
(380,96,c),
(390,180,o),
(401,216,o),
(386,279,c),
(379,296,o),
(368,326,o),
(356,326,c),
(244,310,o),
(226,123,o),
(209,61,c),
(175,-13,o),
(139,236,o),
(149,269,c),
(98,295,l),
(142,363,l),
(201,485,o),
(283,489,o),
(349,491,c),
(447,485,o),
(548,399,o),
(576,292,c),
(594,212,o),
(586,139,o),
(569,49,c),
(569,49,o),
(541,-8,o),
(462,9,cs)
);
}
);
width = 617;
},
{
anchors = (
{
name = top;
position = "{324, 631}";
}
);
layerId = "6B947F8E-B64D-4F43-8779-746217178CEC";
shapes = (
{
closed = 1;
nodes = (
(62,631,o),
(63,649,o),
(85,649,cs),
(107,649,o),
(107,625,o),
(107,625,c),
(95,490,o),
(96,183,o),
(105,20,c),
(105,20,o),
(104,1,o),
(85,1,cs),
(66,1,o),
(60,18,o),
(60,18,c),
(45,163,o),
(48,469,o),
(62,631,c)
);
},
{
closed = 1;
nodes = (
(447,19,o),
(453,42,o),
(453,42,c),
(468,139,o),
(474,226,o),
(460,290,c),
(429,400,o),
(381,440,o),
(324,443,c),
(204,417,o),
(132,263,o),
(99,193,c),
(65,119,o),
(100,174,o),
(86,83,c),
(75,211,l),
(98,271,l),
(157,393,o),
(251,481,o),
(327,484,c),
(428,473,o),
(480,397,o),
(508,290,c),
(523,205,o),
(517,117,o),
(500,27,c),
(500,27,o),
(495,8,o),
(471,13,cs)
);
}
);
width = 567;
}
);
leftKerningGroup = H1;
rightKerningGroup = h;
unicode = 104;
},
{
glyphname = i;
layers = (
{
anchors = (
{
name = top;
position = "{200, 501}";
},
{
name = bottom;
position = "{182, 70}";
}
);
layerId = "FC2E0489-11A5-440C-8B4C-71CFB6149F63";
name = "#instance";
shapes = (
{
closed = 1;
nodes = (
(61,437,o),
(70,502,o),
(191,500,cs),
(322,498,o),
(335,415,o),
(335,415,c),
(325,288,o),
(322,219,o),
(334,70,c),
(334,70,o),
(329,-4,o),
(203,1,cs),
(95,5,o),
(62,72,o),
(62,72,c),
(40,217,o),
(40,276,o),
(61,437,c)
);
},
{
closed = 1;
nodes = (
(346,551,o),
(316,512,o),
(202,511,cs),
(113,510,o),
(56,551,o),
(56,600,cs),
(56,671,o),
(112,692,o),
(200,692,cs),
(289,692,o),
(346,649,o),
(346,600,cs)
);
}
);
width = 391;
},
{
anchors = (
{
name = top;
position = "{300, 501}";
},
{
name = bottom;
position = "{196, 70}";
}
);
layerId = "7E05DFED-BC11-4724-94EA-0D0C4C5F5B37";
shapes = (
{
closed = 1;
nodes = (
(148.313,437,o),
(170.3,502,o),
(290.9,500,cs),
(421.5,498,o),
(417.917,415,o),
(417.917,415,c),
(382.542,288,o),
(365.756,219,o),
(347.986,70,c),
(347.986,70,o),
(328.201,-4,o),
(203.2,1,cs),
(95.999,5,o),
(76.386,72,o),
(76.386,72,c),
(83.357,217,o),
(95.145,276,o),
(148.313,437,c)
);
},
{
closed = 1;
nodes = (
(456.09,551,o),
(418.298,512,o),
(304.098,511,cs),
(214.898,510,o),
(166.09,551,o),
(175.88,600,cs),
(190.066,671,o),
(250.262,692,o),
(338.262,692,cs),
(427.262,692,o),
(475.67,649,o),
(465.88,600,cs)
);
}
);
width = 391;
},
{
anchors = (
{
name = bottom;
position = "{130, 70}";
},
{
name = top;
position = "{225, 501}";
}
);
layerId = "99376340-70F9-4B1D-A253-B1BEDBF73140";
shapes = (
{
closed = 1;
nodes = (
(187.704,479,o),
(192.301,497,o),
(225.301,497,cs),
(258.301,497,o),
(253.505,473,o),
(253.505,473,c),
(208.532,338,o),
(180.563,183,o),
(162.996,20,c),
(162.996,20,o),
(156.2,1,o),
(128.2,1,cs),
(99.2,1,o),
(95.596,18,o),
(95.596,18,c),
(101.567,163,o),
(134.337,317,o),
(187.704,479,c)
);
},
{
closed = 1;
nodes = (
(293.084,581,o),
(278.087,566,o),
(244.087,566,cs),
(209.087,566,o),
(200.084,581,o),
(203.88,600,cs),
(207.676,619,o),
(222.873,635,o),
(257.873,635,cs),
(291.873,635,o),
(300.676,619,o),
(296.88,600,cs)
);
}
);
width = 252;
},
{
anchors = (
{
name = top;
position = "{234, 501}";
},
{
name = bottom;
position = "{136, 70}";
}
);
layerId = "F94FFD99-753E-41E1-86D1-359C136D3DE6";
shapes = (
{
closed = 1;
nodes = (
(128.313,437,o),
(147.3,502,o),
(227.9,500,cs),
(314.5,498,o),
(306.917,415,o),
(306.917,415,c),
(274.542,288,o),
(258.756,219,o),
(236.986,70,c),
(236.986,70,o),
(219.201,-4,o),
(136.2,1,cs),
(64.999,5,o),
(56.386,72,o),
(56.386,72,c),
(70.357,217,o),
(82.145,276,o),
(128.313,437,c)
);
},
{
closed = 1;
nodes = (
(341.09,551,o),
(313.298,512,o),
(237.098,511,cs),
(177.898,510,o),
(148.09,551,o),
(157.88,600,cs),
(172.066,671,o),
(213.262,692,o),
(272.262,692,cs),
(331.262,692,o),
(360.67,649,o),
(350.88,600,cs)
);
}
);
width = 261;
},
{
anchors = (
{
name = bottom;
position = "{91, 70}";
},
{
name = top;
position = "{183, 501}";
}
);
layerId = "E82ED6F4-5586-4A54-A016-86253174F252";
shapes = (
{
closed = 1;
nodes = (
(156.704,479,o),
(161.301,497,o),
(183.301,497,cs),
(205.301,497,o),
(200.505,473,o),
(200.505,473,c),
(161.532,338,o),
(132.563,183,o),
(109.996,20,c),
(109.996,20,o),
(104.2,1,o),
(85.2,1,cs),
(66.2,1,o),
(64.596,18,o),
(64.596,18,c),
(78.567,163,o),
(110.337,317,o),
(156.704,479,c)
);
},
{
closed = 1;
nodes = (
(234.084,581,o),
(223.087,566,o),
(200.087,566,cs),
(177.087,566,o),
(172.084,581,o),
(175.88,600,cs),
(179.676,619,o),
(190.873,635,o),
(213.873,635,cs),
(236.873,635,o),
(241.676,619,o),
(237.88,600,cs)
);
}
);
width = 168;
},
{
anchors = (
{
name = top;
position = "{200, 501}";
},
{
name = bottom;
position = "{182, 70}";
}
);
layerId = "1EECF98D-35CB-4836-8875-A967ACEC66D2";
shapes = (
{
closed = 1;
nodes = (
(61,437,o),
(70,502,o),
(191,500,cs),
(322,498,o),
(335,415,o),
(335,415,c),
(325,288,o),
(322,219,o),
(334,70,c),
(334,70,o),
(329,-4,o),
(203,1,cs),
(95,5,o),
(62,72,o),
(62,72,c),
(40,217,o),
(40,276,o),
(61,437,c)
);
},
{
closed = 1;
nodes = (
(346,551,o),
(316,512,o),
(202,511,cs),
(113,510,o),
(56,551,o),
(56,600,cs),
(56,671,o),
(112,692,o),
(200,692,cs),
(289,692,o),
(346,649,o),
(346,600,cs)
);
}
);
width = 391;
},
{
anchors = (
{
name = bottom;
position = "{116, 70}";
},
{
name = top;
position = "{125, 501}";
}
);
layerId = "1C3422F9-BFDE-4FE8-A46C-291A8D4071B9";
shapes = (
{
closed = 1;
nodes = (
(92,479,o),
(93,497,o),
(126,497,cs),
(159,497,o),
(159,473,o),
(159,473,c),
(141,338,o),
(144,183,o),
(159,20,c),
(159,20,o),
(156,1,o),
(128,1,cs),
(99,1,o),
(92,18,o),
(92,18,c),
(69,163,o),
(71,317,o),
(92,479,c)
);
},
{
closed = 1;
nodes = (
(177,581,o),
(165,566,o),
(131,566,cs),
(96,566,o),
(84,581,o),
(84,600,cs),
(84,619,o),
(96,635,o),
(131,635,cs),
(165,635,o),
(177,619,o),
(177,600,cs)
);
}
);
width = 252;
},
{
anchors = (
{
name = top;
position = "{134, 501}";
},
{
name = bottom;
position = "{122, 70}";
}
);
layerId = "EE7B1B97-935D-491C-911D-EA8B82785AFC";
shapes = (
{
closed = 1;
nodes = (
(41,437,o),
(47,502,o),
(128,500,cs),
(215,498,o),
(224,415,o),
(224,415,c),
(217,288,o),
(215,219,o),
(223,70,c),
(223,70,o),
(220,-4,o),
(136,1,cs),
(64,5,o),
(42,72,o),
(42,72,c),
(27,217,o),
(27,276,o),
(41,437,c)
);
},
{
closed = 1;
nodes = (
(231,551,o),
(211,512,o),
(135,511,cs),
(76,510,o),
(38,551,o),
(38,600,cs),
(38,671,o),
(75,692,o),
(134,692,cs),
(193,692,o),
(231,649,o),
(231,600,cs)
);
}
);
width = 261;
},
{
anchors = (
{
name = bottom;
position = "{77, 70}";
},
{
name = top;
position = "{83, 501}";
}
);
layerId = "6B947F8E-B64D-4F43-8779-746217178CEC";
shapes = (
{
closed = 1;
nodes = (
(61,479,o),
(62,497,o),
(84,497,cs),
(106,497,o),
(106,473,o),
(106,473,c),
(94,338,o),
(96,183,o),
(106,20,c),
(106,20,o),
(104,1,o),
(85,1,cs),
(66,1,o),
(61,18,o),
(61,18,c),
(46,163,o),
(47,317,o),
(61,479,c)
);
},
{
closed = 1;
nodes = (
(118,581,o),
(110,566,o),
(87,566,cs),
(64,566,o),
(56,581,o),
(56,600,cs),
(56,619,o),
(64,635,o),
(87,635,cs),
(110,635,o),
(118,619,o),
(118,600,cs)
);
}
);
width = 168;
}
);
leftKerningGroup = H1;
rightKerningGroup = H;
unicode = 105;
},
{
glyphname = j;
layers = (
{
anchors = (
{
name = top;
position = "{199, 501}";
}
);
layerId = "FC2E0489-11A5-440C-8B4C-71CFB6149F63";
name = "#instance";
shapes = (
{
closed = 1;
nodes = (
(61,437,o),
(70,502,o),
(191,500,cs),
(322,498,o),
(335,415,o),
(335,415,c),
(325,288,o),
(322,42,o),
(334,-107,c),
(334,-107,o),
(329,-181,o),
(203,-176,cs),
(95,-172,o),
(62,-105,o),
(62,-105,c),
(40,40,o),
(40,276,o),
(61,437,c)
);
},
{
closed = 1;
nodes = (
(346,551,o),
(316,512,o),
(202,511,cs),
(113,510,o),
(56,551,o),
(56,600,cs),
(56,671,o),
(112,692,o),
(200,692,cs),
(289,692,o),
(346,649,o),
(346,600,cs)
);
}
);
width = 391;
},
{
anchors = (
{
name = top;
position = "{299, 501}";
}
);
layerId = "7E05DFED-BC11-4724-94EA-0D0C4C5F5B37";
shapes = (
{
closed = 1;
nodes = (
(148,437,o),
(170,502,o),
(291,500,cs),
(422,498,o),
(418,415,o),
(418,415,c),
(383,288,o),
(330,42,o),
(313,-107,c),
(313,-107,o),
(293,-181,o),
(168,-176,cs),
(61,-172,o),
(41,-105,o),
(41,-105,c),
(48,40,o),
(95,276,o),
(148,437,c)
);
},
{
closed = 1;
nodes = (
(456,551,o),
(418,512,o),
(304,511,cs),
(215,510,o),
(166,551,o),
(176,600,cs),
(190,671,o),
(250,692,o),
(338,692,cs),
(427,692,o),
(476,649,o),
(466,600,cs)
);
}
);
width = 392;
},
{
anchors = (
{
name = top;
position = "{226, 501}";
}
);
layerId = "99376340-70F9-4B1D-A253-B1BEDBF73140";
shapes = (
{
closed = 1;
nodes = (
(188,479,o),
(192,497,o),
(225,497,cs),
(258,497,o),
(254,473,o),
(254,473,c),
(209,338,o),
(148,12,o),
(129,-152,c),
(129,-152,o),
(122,-171,o),
(94,-171,cs),
(65,-171,o),
(61,-154,o),
(61,-154,c),
(67,-9,o),
(134,317,o),
(188,479,c)
);
},
{
closed = 1;
nodes = (
(293,581,o),
(278,566,o),
(244,566,cs),
(209,566,o),
(200,581,o),
(204,600,cs),
(208,619,o),
(223,635,o),
(258,635,cs),
(292,635,o),
(301,619,o),
(297,600,cs)
);
}
);
width = 253;
},
{
anchors = (
{
name = top;
position = "{233, 501}";
}
);
layerId = "F94FFD99-753E-41E1-86D1-359C136D3DE6";
shapes = (
{
closed = 1;
nodes = (
(128,437,o),
(147,502,o),
(228,500,cs),
(315,498,o),
(307,415,o),
(307,415,c),
(275,288,o),
(223,42,o),
(202,-107,c),
(202,-107,o),
(184,-181,o),
(101,-176,cs),
(30,-172,o),
(21,-105,o),
(21,-105,c),
(35,40,o),
(82,276,o),
(128,437,c)
);
},
{
closed = 1;
nodes = (
(341,551,o),
(313,512,o),
(237,511,cs),
(178,510,o),
(148,551,o),
(158,600,cs),
(172,671,o),
(213,692,o),
(272,692,cs),
(331,692,o),
(361,649,o),
(351,600,cs)
);
}
);
width = 262;
},
{
anchors = (
{
name = top;
position = "{185, 501}";
}
);
layerId = "E82ED6F4-5586-4A54-A016-86253174F252";
shapes = (
{
closed = 1;
nodes = (
(158,479,o),
(162,497,o),
(184,497,cs),
(206,497,o),
(202,473,o),
(202,473,c),
(163,338,o),
(100,12,o),
(77,-152,c),
(77,-152,o),
(71,-171,o),
(52,-171,cs),
(33,-171,o),
(31,-154,o),
(31,-154,c),
(45,-9,o),
(111,317,o),
(158,479,c)
);
},
{
closed = 1;
nodes = (
(235,581,o),
(224,566,o),
(201,566,cs),
(178,566,o),
(173,581,o),
(177,600,cs),
(181,619,o),
(192,635,o),
(215,635,cs),
(238,635,o),
(243,619,o),
(239,600,cs)
);
}
);
width = 170;
},
{
anchors = (
{
name = top;
position = "{199, 501}";
}
);
layerId = "1EECF98D-35CB-4836-8875-A967ACEC66D2";
shapes = (
{
closed = 1;
nodes = (
(61,437,o),
(70,502,o),
(191,500,cs),
(322,498,o),
(335,415,o),
(335,415,c),
(325,288,o),
(322,42,o),
(334,-107,c),
(334,-107,o),
(329,-181,o),
(203,-176,cs),
(95,-172,o),
(62,-105,o),
(62,-105,c),
(40,40,o),
(40,276,o),
(61,437,c)
);
},
{
closed = 1;
nodes = (
(346,551,o),
(316,512,o),
(202,511,cs),
(113,510,o),
(56,551,o),
(56,600,cs),
(56,671,o),
(112,692,o),
(200,692,cs),
(289,692,o),
(346,649,o),
(346,600,cs)
);
}
);
width = 391;
},
{
anchors = (
{
name = top;
position = "{126, 501}";
}
);
layerId = "1C3422F9-BFDE-4FE8-A46C-291A8D4071B9";
shapes = (
{
closed = 1;
nodes = (
(92,479,o),
(93,497,o),
(126,497,cs),
(159,497,o),
(159,473,o),
(159,473,c),
(141,338,o),
(146,12,o),
(159,-152,c),
(159,-152,o),
(156,-171,o),
(128,-171,cs),
(99,-171,o),
(92,-154,o),
(92,-154,c),
(69,-9,o),
(71,317,o),
(92,479,c)
);
},
{
closed = 1;
nodes = (
(177,581,o),
(165,566,o),
(131,566,cs),
(96,566,o),
(84,581,o),
(84,600,cs),
(84,619,o),
(96,635,o),
(131,635,cs),
(165,635,o),
(177,619,o),
(177,600,cs)
);
}
);
width = 252;
},
{
anchors = (
{
name = top;
position = "{133, 501}";
}
);
layerId = "EE7B1B97-935D-491C-911D-EA8B82785AFC";
shapes = (
{
closed = 1;
nodes = (
(41,437,o),
(47,502,o),
(128,500,cs),
(215,498,o),
(224,415,o),
(224,415,c),
(217,288,o),
(215,42,o),
(223,-107,c),
(223,-107,o),
(220,-181,o),
(136,-176,cs),
(64,-172,o),
(42,-105,o),
(42,-105,c),
(27,40,o),
(27,276,o),
(41,437,c)
);
},
{
closed = 1;
nodes = (
(231,551,o),
(211,512,o),
(135,511,cs),
(76,510,o),
(38,551,o),
(38,600,cs),
(38,671,o),
(75,692,o),
(134,692,cs),
(193,692,o),
(231,649,o),
(231,600,cs)
);
}
);
width = 261;
},
{
anchors = (
{
name = top;
position = "{84, 501}";
}
);
layerId = "6B947F8E-B64D-4F43-8779-746217178CEC";
shapes = (
{
closed = 1;
nodes = (
(61,479,o),
(62,497,o),
(84,497,cs),
(106,497,o),
(106,473,o),
(106,473,c),
(94,338,o),
(97,12,o),
(106,-152,c),
(106,-152,o),
(104,-171,o),
(85,-171,cs),
(66,-171,o),
(61,-154,o),
(61,-154,c),
(46,-9,o),
(47,317,o),
(61,479,c)
);
},
{
closed = 1;
nodes = (
(118,581,o),
(110,566,o),
(87,566,cs),
(64,566,o),
(56,581,o),
(56,600,cs),
(56,619,o),
(64,635,o),
(87,635,cs),
(110,635,o),
(118,619,o),
(118,600,cs)
);
}
);
width = 168;
}
);
leftKerningGroup = H1;
rightKerningGroup = H;
unicode = 106;
},
{
glyphname = k;
layers = (
{
anchors = (
{
name = top;
position = "{436, 637}";
},
{
name = bottom;
position = "{397, 0}";
}
);
layerId = "FC2E0489-11A5-440C-8B4C-71CFB6149F63";
name = "#instance";
shapes = (
{
closed = 1;
nodes = (
(64,591,o),
(80,658,o),
(199,650,cs),
(325,642,o),
(338,564,o),
(338,564,c),
(331,437,o),
(323,233,o),
(337,69,c),
(337,69,o),
(332,-1,o),
(218,-1,cs),
(91,-1,o),
(61,83,o),
(61,83,c),
(38,227,o),
(41,429,o),
(64,591,c)
);
},
{
closed = 1;
nodes = (
(227,372,l),
(398,379,o),
(473,442,o),
(512,468,c),
(512,468,o),
(583,515,o),
(682,477,cs),
(782,438,o),
(734,363,o),
(734,363,c),
(682,285,o),
(541,223,o),
(448,226,c),
(443,285,l),
(592,264,o),
(712,145,o),
(743,102,c),
(743,102,o),
(779,38,o),
(673,14,cs),
(563,-11,o),
(491,49,o),
(491,49,c),
(355,159,o),
(365,154,o),
(286,182,c)
);
}
);
width = 794;
},
{
anchors = (
{
name = top;
position = "{563, 637}";
},
{
name = bottom;
position = "{397, 0}";
}
);
layerId = "7E05DFED-BC11-4724-94EA-0D0C4C5F5B37";
shapes = (
{
closed = 1;
nodes = (
(182.082,591,o),
(211.468,658,o),
(328.87,650,cs),
(453.272,642,o),
(450.687,564,o),
(450.687,564,c),
(418.313,437,o),
(369.553,233,o),
(350.786,69,c),
(350.786,69,o),
(331.8,-1,o),
(217.8,-1,cs),
(90.8,-1,o),
(77.583,83,o),
(77.583,83,c),
(83.355,227,o),
(126.714,429,o),
(182.082,591,c)
);
},
{
closed = 1;
nodes = (
(301.326,372,l),
(473.724,379,o),
(561.312,442,o),
(605.506,468,c),
(605.506,468,o),
(685.897,515,o),
(777.305,477,cs),
(869.512,438,o),
(806.527,363,o),
(806.527,363,c),
(738.943,285,o),
(585.555,223,o),
(493.155,226,c),
(499.943,285,l),
(644.747,264,o),
(740.971,145,o),
(763.38,102,c),
(763.38,102,o),
(786.592,38,o),
(675.797,14,cs),
(560.802,-11,o),
(500.79,49,o),
(500.79,49,c),
(386.768,159,o),
(395.769,154,o),
(322.364,182,c)
);
}
);
width = 794;
},
{
anchors = (
{
name = top;
position = "{493, 637}";
},
{
name = bottom;
position = "{330, 0}";
}
);
layerId = "99376340-70F9-4B1D-A253-B1BEDBF73140";
shapes = (
{
closed = 1;
nodes = (
(219.074,631,o),
(224.67,649,o),
(257.67,649,cs),
(290.67,649,o),
(285.875,625,o),
(285.875,625,c),
(240.902,490,o),
(180.563,183,o),
(161.996,20,c),
(161.996,20,o),
(156.2,1,o),
(128.2,1,cs),
(99.2,1,o),
(93.596,18,o),
(93.596,18,c),
(100.567,163,o),
(165.706,469,o),
(219.074,631,c)
);
},
{
closed = 1;
nodes = (
(199.139,306,l),
(371.537,313,o),
(525.73,349,o),
(646.913,435,c),
(646.913,435,o),
(666.31,452,o),
(691.911,445,cs),
(716.512,438,o),
(696.517,413,o),
(696.517,413,c),
(604.534,328,o),
(436.144,281,o),
(240.548,258,c),
(237.345,277,l),
(412.552,238,o),
(535.369,157,o),
(630.589,53,c),
(630.589,53,o),
(638.793,34,o),
(611.395,27,c),
(584.796,19,o),
(562.592,38,o),
(562.592,38,c),
(448.57,148,o),
(320.957,215,o),
(184.949,255,c)
);
}
);
width = 698;
},
{
anchors = (
{
name = top;
position = "{418, 637}";
},
{
name = bottom;
position = "{265, 0}";
}
);
layerId = "F94FFD99-753E-41E1-86D1-359C136D3DE6";
shapes = (
{
closed = 1;
nodes = (
(161.082,591,o),
(185.468,658,o),
(262.87,650,cs),
(345.272,642,o),
(338.687,564,o),
(338.687,564,c),
(308.313,437,o),
(262.553,233,o),
(238.786,69,c),
(238.786,69,o),
(221.8,-1,o),
(145.8,-1,cs),
(60.8,-1,o),
(57.583,83,o),
(57.583,83,c),
(71.355,227,o),
(113.714,429,o),
(161.082,591,c)
);
},
{
closed = 1;
nodes = (
(226.326,372,l),
(341.724,379,o),
(404.312,442,o),
(435.506,468,c),
(435.506,468,o),
(491.897,515,o),
(550.305,477,cs),
(609.512,438,o),
(562.527,363,o),
(562.527,363,c),
(511.943,285,o),
(405.555,223,o),
(344.155,226,c),
(352.943,285,l),
(447.747,264,o),
(503.971,145,o),
(516.38,102,c),
(516.38,102,o),
(527.592,38,o),
(451.797,14,cs),
(373.802,-11,o),
(337.79,49,o),
(337.79,49,c),
(268.768,159,o),
(274.769,154,o),
(227.364,182,c)
);
}
);
width = 530;
},
{
anchors = (
{
name = top;
position = "{371, 637}";
},
{
name = bottom;
position = "{220, 0}";
}
);
layerId = "E82ED6F4-5586-4A54-A016-86253174F252";
shapes = (
{
closed = 1;
nodes = (
(188.074,631,o),
(192.67,649,o),
(214.67,649,cs),
(236.67,649,o),
(231.875,625,o),
(231.875,625,c),
(192.902,490,o),
(132.563,183,o),
(108.996,20,c),
(108.996,20,o),
(104.2,1,o),
(85.2,1,cs),
(66.2,1,o),
(63.596,18,o),
(63.596,18,c),
(77.567,163,o),
(141.706,469,o),
(188.074,631,c)
);
},
{
closed = 1;
nodes = (
(153.139,306,l),
(268.537,313,o),
(373.73,349,o),
(459.913,435,c),
(459.913,435,o),
(474.31,452,o),
(490.911,445,cs),
(506.512,438,o),
(491.517,413,o),
(491.517,413,c),
(424.534,328,o),
(309.144,281,o),
(177.548,258,c),
(176.345,277,l),
(290.552,238,o),
(367.369,157,o),
(423.589,53,c),
(423.589,53,o),
(427.793,34,o),
(409.395,27,cs),
(390.796,19,o),
(377.592,38,o),
(377.592,38,c),
(308.57,148,o),
(227.957,215,o),
(139.949,255,c)
);
}
);
width = 465;
},
{
anchors = (
{
name = top;
position = "{436, 637}";
},
{
name = bottom;
position = "{397, 0}";
}
);
layerId = "1EECF98D-35CB-4836-8875-A967ACEC66D2";
shapes = (
{
closed = 1;
nodes = (
(64,591,o),
(80,658,o),
(199,650,cs),
(325,642,o),
(338,564,o),
(338,564,c),
(331,437,o),
(323,233,o),
(337,69,c),
(337,69,o),
(332,-1,o),
(218,-1,cs),
(91,-1,o),
(61,83,o),
(61,83,c),
(38,227,o),
(41,429,o),
(64,591,c)
);
},
{
closed = 1;
nodes = (
(227,372,l),
(398,379,o),
(473,442,o),
(512,468,c),
(512,468,o),
(583,515,o),
(682,477,cs),
(782,438,o),
(734,363,o),
(734,363,c),
(682,285,o),
(541,223,o),
(448,226,c),
(443,285,l),
(592,264,o),
(712,145,o),
(743,102,c),
(743,102,o),
(779,38,o),
(673,14,cs),
(563,-11,o),
(491,49,o),
(491,49,c),
(355,159,o),
(365,154,o),
(286,182,c)
);
}
);
width = 794;
},
{
anchors = (
{
name = top;
position = "{366, 637}";
},
{
name = bottom;
position = "{330, 0}";
}
);
layerId = "1C3422F9-BFDE-4FE8-A46C-291A8D4071B9";
shapes = (
{
closed = 1;
nodes = (
(93,631,o),
(95,649,o),
(128,649,cs),
(161,649,o),
(161,625,o),
(161,625,c),
(143,490,o),
(144,183,o),
(158,20,c),
(158,20,o),
(156,1,o),
(128,1,cs),
(99,1,o),
(90,18,o),
(90,18,c),
(68,163,o),
(72,469,o),
(93,631,c)
);
},
{
closed = 1;
nodes = (
(138,306,l),
(309,313,o),
(456,349,o),
(560,435,c),
(560,435,o),
(576,452,o),
(603,445,cs),
(629,438,o),
(614,413,o),
(614,413,c),
(539,328,o),
(380,281,o),
(189,258,c),
(182,277,l),
(365,238,o),
(504,157,o),
(620,53,c),
(620,53,o),
(632,34,o),
(606,27,cs),
(581,19,o),
(555,38,o),
(555,38,c),
(419,148,o),
(278,215,o),
(134,255,c)
);
}
);
width = 698;
},
{
anchors = (
{
name = top;
position = "{291, 637}";
},
{
name = bottom;
position = "{265, 0}";
}
);
layerId = "EE7B1B97-935D-491C-911D-EA8B82785AFC";
shapes = (
{
closed = 1;
nodes = (
(43,591,o),
(54,658,o),
(133,650,cs),
(217,642,o),
(226,564,o),
(226,564,c),
(221,437,o),
(216,233,o),
(225,69,c),
(225,69,o),
(222,-1,o),
(146,-1,cs),
(61,-1,o),
(41,83,o),
(41,83,c),
(26,227,o),
(28,429,o),
(43,591,c)
);
},
{
closed = 1;
nodes = (
(152,372,l),
(266,379,o),
(316,442,o),
(342,468,c),
(342,468,o),
(389,515,o),
(455,477,cs),
(522,438,o),
(490,363,o),
(490,363,c),
(455,285,o),
(361,223,o),
(299,226,c),
(296,285,l),
(395,264,o),
(475,145,o),
(496,102,c),
(496,102,o),
(520,38,o),
(449,14,cs),
(376,-11,o),
(328,49,o),
(328,49,c),
(237,159,o),
(244,154,o),
(191,182,c)
);
}
);
width = 530;
},
{
anchors = (
{
name = top;
position = "{244, 637}";
},
{
name = bottom;
position = "{220, 0}";
}
);
layerId = "6B947F8E-B64D-4F43-8779-746217178CEC";
shapes = (
{
closed = 1;
nodes = (
(62,631,o),
(63,649,o),
(85,649,cs),
(107,649,o),
(107,625,o),
(107,625,c),
(95,490,o),
(96,183,o),
(105,20,c),
(105,20,o),
(104,1,o),
(85,1,cs),
(66,1,o),
(60,18,o),
(60,18,c),
(45,163,o),
(48,469,o),
(62,631,c)
);
},
{
closed = 1;
nodes = (
(92,306,l),
(206,313,o),
(304,349,o),
(373,435,c),
(373,435,o),
(384,452,o),
(402,445,cs),
(419,438,o),
(409,413,o),
(409,413,c),
(359,328,o),
(253,281,o),
(126,258,c),
(121,277,l),
(243,238,o),
(336,157,o),
(413,53,c),
(413,53,o),
(421,34,o),
(404,27,cs),
(387,19,o),
(370,38,o),
(370,38,c),
(279,148,o),
(185,215,o),
(89,255,c)
);
}
);
width = 465;
}
);
leftKerningGroup = H1;
rightKerningGroup = k;
unicode = 107;
},
{
glyphname = l;
layers = (
{
anchors = (
{
name = top;
position = "{199, 650}";
},
{
name = bottom;
position = "{218, -1}";
},
{
name = left;
position = "{520, 86}";
}
);
layerId = "FC2E0489-11A5-440C-8B4C-71CFB6149F63";
name = "#instance";
shapes = (
{
closed = 1;
nodes = (
(64,591,o),
(80,658,o),
(199,650,cs),
(325,642,o),
(338,564,o),
(338,564,c),
(331,437,o),
(323,233,o),
(337,69,c),
(337,69,o),
(332,-1,o),
(218,-1,cs),
(91,-1,o),
(61,83,o),
(61,83,c),
(38,227,o),
(41,429,o),
(64,591,c)
);
}
);
width = 383;
},
{
anchors = (
{
name = top;
position = "{329, 650}";
},
{
name = bottom;
position = "{218, -1}";
},
{
name = left;
position = "{537, 86}";
}
);
layerId = "7E05DFED-BC11-4724-94EA-0D0C4C5F5B37";
shapes = (
{
closed = 1;
nodes = (
(182.082,591,o),
(211.468,658,o),
(328.87,650,cs),
(453.272,642,o),
(450.687,564,o),
(450.687,564,c),
(418.313,437,o),
(369.553,233,o),
(350.786,69,c),
(350.786,69,o),
(331.8,-1,o),
(217.8,-1,cs),
(90.8,-1,o),
(77.583,83,o),
(77.583,83,c),
(83.355,227,o),
(126.714,429,o),
(182.082,591,c)
);
}
);
width = 383;
},
{
anchors = (
{
name = top;
position = "{258, 650}";
},
{
name = left;
position = "{250, 86}";
},
{
name = bottom;
position = "{126, -1}";
}
);
layerId = "99376340-70F9-4B1D-A253-B1BEDBF73140";
shapes = (
{
closed = 1;
nodes = (
(219.074,631,o),
(224.67,649,o),
(257.67,649,cs),
(290.67,649,o),
(285.875,625,o),
(285.875,625,c),
(240.902,490,o),
(180.563,183,o),
(161.996,20,c),
(161.996,20,o),
(156.2,1,o),
(128.2,1,cs),
(99.2,1,o),
(93.596,18,o),
(93.596,18,c),
(100.567,163,o),
(165.706,469,o),
(219.074,631,c)
);
}
);
width = 236;
},
{
anchors = (
{
name = top;
position = "{263, 650}";
},
{
name = bottom;
position = "{146, -1}";
},
{
name = left;
position = "{364, 86}";
}
);
layerId = "F94FFD99-753E-41E1-86D1-359C136D3DE6";
shapes = (
{
closed = 1;
nodes = (
(161.082,591,o),
(185.468,658,o),
(262.87,650,cs),
(345.272,642,o),
(338.687,564,o),
(338.687,564,c),
(308.313,437,o),
(262.553,233,o),
(238.786,69,c),
(238.786,69,o),
(221.8,-1,o),
(145.8,-1,cs),
(60.8,-1,o),
(57.583,83,o),
(57.583,83,c),
(71.355,227,o),
(113.714,429,o),
(161.082,591,c)
);
}
);
width = 256;
},
{
anchors = (
{
name = top;
position = "{215, 650}";
},
{
name = left;
position = "{172, 86}";
},
{
name = bottom;
position = "{84, -1}";
}
);
layerId = "E82ED6F4-5586-4A54-A016-86253174F252";
shapes = (
{
closed = 1;
nodes = (
(188.074,631,o),
(192.67,649,o),
(214.67,649,cs),
(236.67,649,o),
(231.875,625,o),
(231.875,625,c),
(192.902,490,o),
(132.563,183,o),
(108.996,20,c),
(108.996,20,o),
(104.2,1,o),
(85.2,1,cs),
(66.2,1,o),
(63.596,18,o),
(63.596,18,c),
(77.567,163,o),
(141.706,469,o),
(188.074,631,c)
);
}
);
width = 157;
},
{
anchors = (
{
name = top;
position = "{199, 650}";
},
{
name = bottom;
position = "{218, -1}";
},
{
name = left;
position = "{520, 86}";
}
);
layerId = "1EECF98D-35CB-4836-8875-A967ACEC66D2";
shapes = (
{
closed = 1;
nodes = (
(64,591,o),
(80,658,o),
(199,650,cs),
(325,642,o),
(338,564,o),
(338,564,c),
(331,437,o),
(323,233,o),
(337,69,c),
(337,69,o),
(332,-1,o),
(218,-1,cs),
(91,-1,o),
(61,83,o),
(61,83,c),
(38,227,o),
(41,429,o),
(64,591,c)
);
}
);
width = 383;
},
{
anchors = (
{
name = top;
position = "{128, 650}";
},
{
name = left;
position = "{233, 86}";
},
{
name = bottom;
position = "{126, -1}";
}
);
layerId = "1C3422F9-BFDE-4FE8-A46C-291A8D4071B9";
shapes = (
{
closed = 1;
nodes = (
(93,631,o),
(95,649,o),
(128,649,cs),
(161,649,o),
(161,625,o),
(161,625,c),
(143,490,o),
(144,183,o),
(158,20,c),
(158,20,o),
(156,1,o),
(128,1,cs),
(99,1,o),
(90,18,o),
(90,18,c),
(68,163,o),
(72,469,o),
(93,631,c)
);
}
);
width = 236;
},
{
anchors = (
{
name = top;
position = "{133, 650}";
},
{
name = bottom;
position = "{146, -1}";
},
{
name = left;
position = "{347, 86}";
}
);
layerId = "EE7B1B97-935D-491C-911D-EA8B82785AFC";
shapes = (
{
closed = 1;
nodes = (
(43,591,o),
(54,658,o),
(133,650,cs),
(217,642,o),
(226,564,o),
(226,564,c),
(221,437,o),
(216,233,o),
(225,69,c),
(225,69,o),
(222,-1,o),
(146,-1,cs),
(61,-1,o),
(41,83,o),
(41,83,c),
(26,227,o),
(28,429,o),
(43,591,c)
);
}
);
width = 256;
},
{
anchors = (
{
name = top;
position = "{85, 650}";
},
{
name = left;
position = "{155, 86}";
},
{
name = bottom;
position = "{84, -1}";
}
);
layerId = "6B947F8E-B64D-4F43-8779-746217178CEC";
shapes = (
{
closed = 1;
nodes = (
(62,631,o),
(63,649,o),
(85,649,cs),
(107,649,o),
(107,625,o),
(107,625,c),
(95,490,o),
(96,183,o),
(105,20,c),
(105,20,o),
(104,1,o),
(85,1,cs),
(66,1,o),
(60,18,o),
(60,18,c),
(45,163,o),
(48,469,o),
(62,631,c)
);
}
);
width = 157;
}
);
leftKerningGroup = H1;
rightKerningGroup = H;
unicode = 108;
},
{
glyphname = m;
layers = (
{
layerId = "FC2E0489-11A5-440C-8B4C-71CFB6149F63";
name = "#instance";
shapes = (
{
closed = 1;
nodes = (
(64,98,o),
(77,118,o),
(71,183,c),
(49,290,o),
(58,303,o),
(121,368,c),
(214,443,o),
(412,516,o),
(569,486,c),
(656,471,o),
(808,425,o),
(866,276,c),
(887,213,o),
(887,162,o),
(868,76,c),
(868,76,o),
(857,-20,o),
(695,7,cs),
(562,30,o),
(584,122,o),
(584,122,c),
(601,188,o),
(599,263,o),
(565,303,c),
(524,345,o),
(428,338,o),
(365,294,cs),
(304,252,o),
(319,182,o),
(313,150,c),
(308,107,o),
(313,108,o),
(308,86,c),
(308,86,o),
(319,30,o),
(208,26,cs),
(140,24,o),
(92,75,o),
(92,75,c)
);
},
{
closed = 1;
nodes = (
(61,437,o),
(70,502,o),
(191,500,cs),
(322,498,o),
(335,415,o),
(335,415,c),
(325,288,o),
(322,219,o),
(334,70,c),
(334,70,o),
(329,-4,o),
(203,1,cs),
(95,5,o),
(62,72,o),
(62,72,c),
(40,217,o),
(40,276,o),
(61,437,c)
);
},
{
closed = 1;
nodes = (
(619,98,o),
(632,118,o),
(626,183,c),
(604,290,o),
(613,303,o),
(676,368,c),
(769,443,o),
(967,516,o),
(1124,486,c),
(1211,471,o),
(1363,425,o),
(1421,276,c),
(1442,213,o),
(1442,162,o),
(1423,76,c),
(1423,76,o),
(1412,-20,o),
(1250,7,cs),
(1117,30,o),
(1139,122,o),
(1139,122,c),
(1156,188,o),
(1154,263,o),
(1120,303,c),
(1079,345,o),
(983,338,o),
(920,294,cs),
(859,252,o),
(874,182,o),
(868,150,c),
(863,107,o),
(868,108,o),
(863,86,c),
(863,86,o),
(874,30,o),
(763,26,cs),
(695,24,o),
(647,75,o),
(647,75,c)
);
}
);
width = 1483;
},
{
layerId = "7E05DFED-BC11-4724-94EA-0D0C4C5F5B37";
shapes = (
{
closed = 1;
nodes = (
(84,98,o),
(101,118,o),
(108,183,c),
(107,290,o),
(119,303,o),
(195,368,c),
(303,443,o),
(515,516,o),
(666,486,c),
(750,471,o),
(893,425,o),
(921,276,c),
(930,213,o),
(919,162,o),
(883,76,c),
(883,76,o),
(853,-20,o),
(696,7,cs),
(568,30,o),
(608,122,o),
(608,122,c),
(639,188,o),
(652,263,o),
(626,303,c),
(593,345,o),
(496,338,o),
(424,294,cs),
(354,252,o),
(355,182,o),
(343,150,c),
(329,107,o),
(335,108,o),
(325,86,c),
(325,86,o),
(325,30,o),
(213,26,cs),
(145,24,o),
(107,75,o),
(107,75,c)
);
},
{
closed = 1;
nodes = (
(148,437,o),
(170,502,o),
(291,500,cs),
(422,498,o),
(418,415,o),
(418,415,c),
(383,288,o),
(366,219,o),
(348,70,c),
(348,70,o),
(328,-4,o),
(203,1,cs),
(96,5,o),
(76,72,o),
(76,72,c),
(83,217,o),
(95,276,o),
(148,437,c)
);
},
{
closed = 1;
nodes = (
(639,98,o),
(656,118,o),
(663,183,c),
(662,290,o),
(674,303,o),
(750,368,c),
(858,443,o),
(1070,516,o),
(1221,486,c),
(1305,471,o),
(1448,425,o),
(1476,276,c),
(1485,213,o),
(1474,162,o),
(1438,76,c),
(1438,76,o),
(1408,-20,o),
(1251,7,cs),
(1123,30,o),
(1163,122,o),
(1163,122,c),
(1194,188,o),
(1207,263,o),
(1181,303,c),
(1148,345,o),
(1051,338,o),
(979,294,cs),
(909,252,o),
(910,182,o),
(898,150,c),
(884,107,o),
(890,108,o),
(880,86,c),
(880,86,o),
(880,30,o),
(768,26,cs),
(700,24,o),
(662,75,o),
(662,75,c)
);
}
);
width = 1482;
},
{
layerId = "99376340-70F9-4B1D-A253-B1BEDBF73140";
shapes = (
{
closed = 1;
nodes = (
(85,79,o),
(123,110,o),
(118,169,c),
(138,260,o),
(160,357,o),
(236,416,cs),
(323,481,o),
(465,517,o),
(599,482,c),
(698,444,o),
(741,376,o),
(746,286,cs),
(750,210,o),
(727,127,o),
(691,40,c),
(691,40,o),
(682,23,o),
(650,26,c),
(623,30,o),
(622,48,o),
(622,48,c),
(674,188,o),
(695,299,o),
(656,359,c),
(601,453,o),
(515,474,o),
(407,443,c),
(271,396,o),
(199,311,o),
(182,222,c),
(173,144,o),
(154,71,o),
(158,41,c),
(158,41,o),
(161,30,o),
(140,27,cs),
(121,24,o),
(112,35,o),
(112,35,c)
);
},
{
closed = 1;
nodes = (
(188,479,o),
(192,497,o),
(225,497,cs),
(258,497,o),
(254,473,o),
(254,473,c),
(209,338,o),
(181,183,o),
(163,20,c),
(163,20,o),
(156,1,o),
(128,1,cs),
(99,1,o),
(96,18,o),
(96,18,c),
(102,163,o),
(134,317,o),
(188,479,c)
);
},
{
closed = 1;
nodes = (
(650,75,o),
(658,125,o),
(670,170,c),
(690,261,o),
(698,357,o),
(776,416,cs),
(863,481,o),
(1005,517,o),
(1139,482,c),
(1238,444,o),
(1281,376,o),
(1286,286,cs),
(1290,210,o),
(1267,127,o),
(1231,40,c),
(1231,40,o),
(1222,23,o),
(1190,26,c),
(1163,30,o),
(1162,48,o),
(1162,48,c),
(1214,188,o),
(1235,299,o),
(1196,359,c),
(1141,453,o),
(1055,474,o),
(947,443,c),
(811,396,o),
(739,311,o),
(722,222,c),
(713,144,o),
(695,104,o),
(684,66,c),
(684,66,o),
(680,43,o),
(671,42,cs),
(647,39,o),
(650,47,o),
(650,47,c)
);
}
);
width = 1316;
},
{
layerId = "F94FFD99-753E-41E1-86D1-359C136D3DE6";
shapes = (
{
closed = 1;
nodes = (
(63,98,o),
(76,118,o),
(85,183,c),
(91,290,o),
(100,303,o),
(155,368,c),
(232,443,o),
(378,516,o),
(477,486,c),
(532,471,o),
(624,425,o),
(633,276,c),
(635,213,o),
(624,162,o),
(594,76,c),
(594,76,o),
(568,-20,o),
(465,7,cs),
(381,30,o),
(414,122,o),
(414,122,c),
(439,188,o),
(453,263,o),
(438,303,c),
(419,345,o),
(354,338,o),
(303,294,cs),
(253,252,o),
(249,182,o),
(239,150,c),
(227,107,o),
(231,108,o),
(223,86,c),
(223,86,o),
(219,30,o),
(144,26,cs),
(99,24,o),
(77,75,o),
(77,75,c)
);
},
{
closed = 1;
nodes = (
(128,437,o),
(147,502,o),
(228,500,cs),
(315,498,o),
(307,415,o),
(307,415,c),
(275,288,o),
(259,219,o),
(237,70,c),
(237,70,o),
(219,-4,o),
(136,1,cs),
(65,5,o),
(56,72,o),
(56,72,c),
(70,217,o),
(82,276,o),
(128,437,c)
);
},
{
closed = 1;
nodes = (
(433,98,o),
(446,118,o),
(455,183,c),
(461,290,o),
(470,303,o),
(525,368,c),
(602,443,o),
(748,516,o),
(847,486,c),
(902,471,o),
(994,425,o),
(1003,276,c),
(1005,213,o),
(994,162,o),
(964,76,c),
(964,76,o),
(938,-20,o),
(835,7,cs),
(751,30,o),
(784,122,o),
(784,122,c),
(809,188,o),
(823,263,o),
(808,303,c),
(789,345,o),
(724,338,o),
(673,294,cs),
(623,252,o),
(619,182,o),
(609,150,c),
(597,107,o),
(601,108,o),
(593,86,c),
(593,86,o),
(589,30,o),
(514,26,cs),
(469,24,o),
(447,75,o),
(447,75,c)
);
}
);
width = 989;
},
{
layerId = "E82ED6F4-5586-4A54-A016-86253174F252";
shapes = (
{
closed = 1;
nodes = (
(62,79,o),
(89,110,o),
(90,169,c),
(109,260,o),
(130,357,o),
(185,416,cs),
(247,481,o),
(344,517,o),
(431,482,c),
(495,444,o),
(519,376,o),
(516,286,cs),
(514,210,o),
(493,127,o),
(463,40,c),
(463,40,o),
(456,23,o),
(435,26,c),
(417,30,o),
(418,48,o),
(418,48,c),
(462,188,o),
(483,299,o),
(461,359,c),
(431,453,o),
(375,474,o),
(301,443,c),
(207,396,o),
(153,311,o),
(136,222,c),
(125,144,o),
(107,71,o),
(108,41,c),
(108,41,o),
(109,30,o),
(95,27,cs),
(82,24,o),
(77,35,o),
(77,35,c)
);
},
{
closed = 1;
nodes = (
(157,479,o),
(161,497,o),
(183,497,cs),
(205,497,o),
(201,473,o),
(201,473,c),
(162,338,o),
(133,183,o),
(110,20,c),
(110,20,o),
(104,1,o),
(85,1,cs),
(66,1,o),
(65,18,o),
(65,18,c),
(79,163,o),
(110,317,o),
(157,479,c)
);
},
{
closed = 1;
nodes = (
(438,75,o),
(447,125,o),
(458,170,c),
(477,261,o),
(489,357,o),
(545,416,cs),
(607,481,o),
(704,517,o),
(791,482,c),
(855,444,o),
(879,376,o),
(876,286,cs),
(874,210,o),
(853,127,o),
(823,40,c),
(823,40,o),
(816,23,o),
(795,26,c),
(777,30,o),
(778,48,o),
(778,48,c),
(822,188,o),
(843,299,o),
(821,359,c),
(791,453,o),
(735,474,o),
(661,443,c),
(567,396,o),
(513,311,o),
(496,222,c),
(485,144,o),
(470,104,o),
(460,66,c),
(460,66,o),
(456,43,o),
(450,42,cs),
(434,39,o),
(436,47,o),
(436,47,c)
);
}
);
width = 877;
},
{
layerId = "1EECF98D-35CB-4836-8875-A967ACEC66D2";
shapes = (
{
closed = 1;
nodes = (
(64,98,o),
(77,118,o),
(71,183,c),
(49,290,o),
(58,303,o),
(121,368,c),
(214,443,o),
(412,516,o),
(569,486,c),
(656,471,o),
(808,425,o),
(866,276,c),
(887,213,o),
(887,162,o),
(868,76,c),
(868,76,o),
(857,-20,o),
(695,7,cs),
(562,30,o),
(584,122,o),
(584,122,c),
(601,188,o),
(599,263,o),
(565,303,c),
(524,345,o),
(428,338,o),
(365,294,cs),
(304,252,o),
(319,182,o),
(313,150,c),
(308,107,o),
(313,108,o),
(308,86,c),
(308,86,o),
(319,30,o),
(208,26,cs),
(140,24,o),
(92,75,o),
(92,75,c)
);
},
{
closed = 1;
nodes = (
(61,437,o),
(70,502,o),
(191,500,cs),
(322,498,o),
(335,415,o),
(335,415,c),
(325,288,o),
(322,219,o),
(334,70,c),
(334,70,o),
(329,-4,o),
(203,1,cs),
(95,5,o),
(62,72,o),
(62,72,c),
(40,217,o),
(40,276,o),
(61,437,c)
);
},
{
closed = 1;
nodes = (
(619,98,o),
(632,118,o),
(626,183,c),
(604,290,o),
(613,303,o),
(676,368,c),
(769,443,o),
(967,516,o),
(1124,486,c),
(1211,471,o),
(1363,425,o),
(1421,276,c),
(1442,213,o),
(1442,162,o),
(1423,76,c),
(1423,76,o),
(1412,-20,o),
(1250,7,cs),
(1117,30,o),
(1139,122,o),
(1139,122,c),
(1156,188,o),
(1154,263,o),
(1120,303,c),
(1079,345,o),
(983,338,o),
(920,294,cs),
(859,252,o),
(874,182,o),
(868,150,c),
(863,107,o),
(868,108,o),
(863,86,c),
(863,86,o),
(874,30,o),
(763,26,cs),
(695,24,o),
(647,75,o),
(647,75,c)
);
}
);
width = 1483;
},
{
layerId = "1C3422F9-BFDE-4FE8-A46C-291A8D4071B9";
shapes = (
{
closed = 1;
nodes = (
(69,79,o),
(101,110,o),
(84,169,c),
(86,260,o),
(89,357,o),
(153,416,cs),
(227,481,o),
(362,517,o),
(503,482,c),
(609,444,o),
(666,376,o),
(689,286,cs),
(708,210,o),
(702,127,o),
(683,40,c),
(683,40,o),
(677,23,o),
(645,26,c),
(617,30,o),
(612,48,o),
(612,48,c),
(636,188,o),
(635,299,o),
(584,359,c),
(510,453,o),
(420,474,o),
(318,443,c),
(192,396,o),
(137,311,o),
(138,222,c),
(144,144,o),
(140,71,o),
(150,41,c),
(150,41,o),
(155,30,o),
(135,27,cs),
(116,24,o),
(105,35,o),
(105,35,c)
);
},
{
closed = 1;
nodes = (
(92,479,o),
(93,497,o),
(126,497,cs),
(159,497,o),
(159,473,o),
(159,473,c),
(141,338,o),
(144,183,o),
(159,20,c),
(159,20,o),
(156,1,o),
(128,1,cs),
(99,1,o),
(92,18,o),
(92,18,c),
(69,163,o),
(71,317,o),
(92,479,c)
);
},
{
closed = 1;
nodes = (
(635,75,o),
(633,125,o),
(636,170,c),
(638,261,o),
(627,357,o),
(693,416,cs),
(767,481,o),
(902,517,o),
(1043,482,c),
(1149,444,o),
(1206,376,o),
(1229,286,cs),
(1248,210,o),
(1242,127,o),
(1223,40,c),
(1223,40,o),
(1217,23,o),
(1185,26,c),
(1157,30,o),
(1152,48,o),
(1152,48,c),
(1176,188,o),
(1175,299,o),
(1124,359,c),
(1050,453,o),
(960,474,o),
(858,443,c),
(732,396,o),
(677,311,o),
(678,222,c),
(684,144,o),
(674,104,o),
(671,66,c),
(671,66,o),
(671,43,o),
(663,42,cs),
(639,39,o),
(641,47,o),
(641,47,c)
);
}
);
width = 1316;
},
{
layerId = "EE7B1B97-935D-491C-911D-EA8B82785AFC";
shapes = (
{
closed = 1;
nodes = (
(43,98,o),
(52,118,o),
(48,183,c),
(33,290,o),
(39,303,o),
(81,368,c),
(143,443,o),
(275,516,o),
(380,486,c),
(438,471,o),
(539,425,o),
(578,276,c),
(592,213,o),
(592,162,o),
(579,76,c),
(579,76,o),
(572,-20,o),
(464,7,cs),
(375,30,o),
(390,122,o),
(390,122,c),
(401,188,o),
(400,263,o),
(377,303,c),
(350,345,o),
(286,338,o),
(244,294,c),
(203,252,o),
(213,182,o),
(209,150,c),
(206,107,o),
(209,108,o),
(206,86,c),
(206,86,o),
(213,30,o),
(139,26,cs),
(94,24,o),
(62,75,o),
(62,75,c)
);
},
{
closed = 1;
nodes = (
(41,437,o),
(47,502,o),
(128,500,cs),
(215,498,o),
(224,415,o),
(224,415,c),
(217,288,o),
(215,219,o),
(223,70,c),
(223,70,o),
(220,-4,o),
(136,1,cs),
(64,5,o),
(42,72,o),
(42,72,c),
(27,217,o),
(27,276,o),
(41,437,c)
);
},
{
closed = 1;
nodes = (
(413,98,o),
(422,118,o),
(418,183,c),
(403,290,o),
(409,303,o),
(451,368,c),
(513,443,o),
(645,516,o),
(750,486,c),
(808,471,o),
(909,425,o),
(948,276,c),
(962,213,o),
(962,162,o),
(949,76,c),
(949,76,o),
(942,-20,o),
(834,7,cs),
(745,30,o),
(760,122,o),
(760,122,c),
(771,188,o),
(770,263,o),
(747,303,c),
(720,345,o),
(656,338,o),
(614,294,c),
(573,252,o),
(583,182,o),
(579,150,c),
(576,107,o),
(579,108,o),
(576,86,c),
(576,86,o),
(583,30,o),
(509,26,cs),
(464,24,o),
(432,75,o),
(432,75,c)
);
}
);
width = 989;
},
{
layerId = "6B947F8E-B64D-4F43-8779-746217178CEC";
shapes = (
{
closed = 1;
nodes = (
(46,79,o),
(67,110,o),
(56,169,c),
(57,260,o),
(59,357,o),
(102,416,cs),
(151,481,o),
(241,517,o),
(335,482,c),
(406,444,o),
(444,376,o),
(459,286,cs),
(472,210,o),
(468,127,o),
(455,40,c),
(455,40,o),
(451,23,o),
(430,26,c),
(411,30,o),
(408,48,o),
(408,48,c),
(424,188,o),
(423,299,o),
(389,359,c),
(340,453,o),
(280,474,o),
(212,443,c),
(128,396,o),
(91,311,o),
(92,222,c),
(96,144,o),
(93,71,o),
(100,41,c),
(100,41,o),
(103,30,o),
(90,27,cs),
(77,24,o),
(70,35,o),
(70,35,c)
);
},
{
closed = 1;
nodes = (
(61,479,o),
(62,497,o),
(84,497,cs),
(106,497,o),
(106,473,o),
(106,473,c),
(94,338,o),
(96,183,o),
(106,20,c),
(106,20,o),
(104,1,o),
(85,1,cs),
(66,1,o),
(61,18,o),
(61,18,c),
(46,163,o),
(47,317,o),
(61,479,c)
);
},
{
closed = 1;
nodes = (
(423,75,o),
(422,125,o),
(424,170,c),
(425,261,o),
(418,357,o),
(462,416,cs),
(511,481,o),
(601,517,o),
(695,482,c),
(766,444,o),
(804,376,o),
(819,286,cs),
(832,210,o),
(828,127,o),
(815,40,c),
(815,40,o),
(811,23,o),
(790,26,c),
(771,30,o),
(768,48,o),
(768,48,c),
(784,188,o),
(783,299,o),
(749,359,c),
(700,453,o),
(640,474,o),
(572,443,c),
(488,396,o),
(451,311,o),
(452,222,c),
(456,144,o),
(449,104,o),
(447,66,c),
(447,66,o),
(447,43,o),
(442,42,cs),
(426,39,o),
(427,47,o),
(427,47,c)
);
}
);
width = 877;
}
);
leftKerningGroup = m;
rightKerningGroup = h;
unicode = 109;
},
{
glyphname = n;
layers = (
{
anchors = (
{
name = top;
position = "{446, 501}";
},
{
name = bottom;
position = "{469, 0}";
},
{
name = left;
position = "{1019, 88}";
}
);
layerId = "FC2E0489-11A5-440C-8B4C-71CFB6149F63";
name = "#instance";
shapes = (
{
closed = 1;
nodes = (
(64,98,o),
(77,118,o),
(71,183,c),
(49,290,o),
(58,303,o),
(121,368,c),
(214,443,o),
(412,516,o),
(569,486,c),
(656,471,o),
(808,425,o),
(866,276,c),
(887,213,o),
(887,162,o),
(868,76,c),
(868,76,o),
(857,-20,o),
(695,7,cs),
(562,30,o),
(584,122,o),
(584,122,c),
(601,188,o),
(599,263,o),
(565,303,c),
(524,345,o),
(428,338,o),
(365,294,cs),
(304,252,o),
(319,182,o),
(313,150,c),
(308,107,o),
(313,108,o),
(308,86,c),
(308,86,o),
(319,30,o),
(208,26,cs),
(140,24,o),
(92,75,o),
(92,75,c)
);
},
{
closed = 1;
nodes = (
(61,437,o),
(70,502,o),
(191,500,cs),
(322,498,o),
(335,415,o),
(335,415,c),
(325,288,o),
(322,219,o),
(334,70,c),
(334,70,o),
(329,-4,o),
(203,1,cs),
(95,5,o),
(62,72,o),
(62,72,c),
(40,217,o),
(40,276,o),
(61,437,c)
);
}
);
width = 928;
},
{
anchors = (
{
name = top;
position = "{546, 501}";
},
{
name = bottom;
position = "{469, 0}";
},
{
name = left;
position = "{1037, 88}";
}
);
layerId = "7E05DFED-BC11-4724-94EA-0D0C4C5F5B37";
shapes = (
{
closed = 1;
nodes = (
(83.58,98,o),
(100.576,118,o),
(107.563,183,c),
(106.942,290,o),
(118.539,303,o),
(194.526,368,c),
(302.511,443,o),
(515.097,516,o),
(666.103,486,c),
(750.106,471,o),
(892.915,425,o),
(921.145,276,c),
(929.557,213,o),
(919.368,162,o),
(883.185,76,c),
(883.185,76,o),
(853.004,-20,o),
(696.399,7,cs),
(567.994,30,o),
(608.376,122,o),
(608.376,122,c),
(638.562,188,o),
(651.547,263,o),
(625.539,303,c),
(592.931,345,o),
(495.532,338,o),
(423.741,294,cs),
(354.35,252,o),
(355.364,182,o),
(342.97,150,c),
(329.379,107,o),
(334.578,108,o),
(325.183,86,c),
(325.183,86,o),
(324.994,30,o),
(213.195,26,cs),
(144.795,24,o),
(106.985,75,o),
(106.985,75,c)
);
},
{
closed = 1;
nodes = (
(148.313,437,o),
(170.3,502,o),
(290.9,500,cs),
(421.5,498,o),
(417.917,415,o),
(417.917,415,c),
(382.542,288,o),
(365.756,219,o),
(347.986,70,c),
(347.986,70,o),
(328.201,-4,o),
(203.2,1,cs),
(95.999,5,o),
(76.386,72,o),
(76.386,72,c),
(83.357,217,o),
(95.145,276,o),
(148.313,437,c)
);
}
);
width = 928;
},
{
anchors = (
{
name = left;
position = "{792, 88}";
},
{
name = bottom;
position = "{410, 0}";
},
{
name = top;
position = "{489, 501}";
}
);
layerId = "99376340-70F9-4B1D-A253-B1BEDBF73140";
shapes = (
{
closed = 1;
nodes = (
(84.784,79,o),
(122.978,110,o),
(117.766,169,c),
(137.948,260,o),
(160.329,357,o),
(236.117,416,cs),
(323.104,481,o),
(465.297,517,o),
(599.304,482,c),
(697.711,444,o),
(741.125,376,o),
(746.143,286,cs),
(749.958,210,o),
(727.375,127,o),
(690.992,40,c),
(690.992,40,o),
(681.595,23,o),
(650.195,26,c),
(622.994,30,o),
(621.59,48,o),
(621.59,48,c),
(673.562,188,o),
(694.74,299,o),
(655.728,359,c),
(600.509,453,o),
(514.705,474,o),
(406.511,443,c),
(271.121,396,o),
(199.138,311,o),
(182.356,222,c),
(172.771,144,o),
(154.186,71,o),
(158.192,41,c),
(158.192,41,o),
(160.994,30,o),
(140.395,27,cs),
(120.795,24,o),
(111.993,35,o),
(111.993,35,c)
);
},
{
closed = 1;
nodes = (
(187.704,479,o),
(192.301,497,o),
(225.301,497,cs),
(258.301,497,o),
(253.505,473,o),
(253.505,473,c),
(208.532,338,o),
(180.563,183,o),
(162.996,20,c),
(162.996,20,o),
(156.2,1,o),
(128.2,1,cs),
(99.2,1,o),
(95.596,18,o),
(95.596,18,c),
(101.567,163,o),
(134.337,317,o),
(187.704,479,c)
);
}
);
width = 776;
},
{
anchors = (
{
name = top;
position = "{398, 501}";
},
{
name = bottom;
position = "{313, 0}";
},
{
name = left;
position = "{698, 88}";
}
);
layerId = "F94FFD99-753E-41E1-86D1-359C136D3DE6";
shapes = (
{
closed = 1;
nodes = (
(62.58,98,o),
(75.576,118,o),
(84.563,183,c),
(90.942,290,o),
(99.539,303,o),
(154.526,368,c),
(231.511,443,o),
(378.097,516,o),
(477.103,486,c),
(532.106,471,o),
(623.915,425,o),
(633.145,276,c),
(634.557,213,o),
(624.368,162,o),
(594.185,76,c),
(594.185,76,o),
(568.004,-20,o),
(465.399,7,cs),
(380.994,30,o),
(414.376,122,o),
(414.376,122,c),
(438.562,188,o),
(452.547,263,o),
(437.539,303,c),
(418.931,345,o),
(353.532,338,o),
(302.741,294,cs),
(253.35,252,o),
(249.364,182,o),
(238.97,150,c),
(227.379,107,o),
(230.578,108,o),
(223.183,86,c),
(223.183,86,o),
(218.994,30,o),
(144.195,26,cs),
(98.795,24,o),
(76.985,75,o),
(76.985,75,c)
);
},
{
closed = 1;
nodes = (
(128.313,437,o),
(147.3,502,o),
(227.9,500,cs),
(314.5,498,o),
(306.917,415,o),
(306.917,415,c),
(274.542,288,o),
(258.756,219,o),
(236.986,70,c),
(236.986,70,o),
(219.201,-4,o),
(136.2,1,cs),
(64.999,5,o),
(56.386,72,o),
(56.386,72,c),
(70.357,217,o),
(82.145,276,o),
(128.313,437,c)
);
}
);
width = 619;
},
{
anchors = (
{
name = left;
position = "{534, 88}";
},
{
name = bottom;
position = "{273, 0}";
},
{
name = top;
position = "{359, 501}";
}
);
layerId = "E82ED6F4-5586-4A54-A016-86253174F252";
shapes = (
{
closed = 1;
nodes = (
(61.784,79,o),
(88.978,110,o),
(89.766,169,c),
(108.948,260,o),
(130.329,357,o),
(185.117,416,cs),
(247.104,481,o),
(344.297,517,o),
(431.304,482,c),
(494.711,444,o),
(519.125,376,o),
(516.143,286,cs),
(513.958,210,o),
(493.375,127,o),
(462.992,40,c),
(462.992,40,o),
(455.595,23,o),
(435.195,26,c),
(416.994,30,o),
(417.59,48,o),
(417.59,48,c),
(461.562,188,o),
(482.74,299,o),
(460.728,359,c),
(430.509,453,o),
(374.705,474,o),
(300.511,443,c),
(207.121,396,o),
(153.138,311,o),
(136.356,222,c),
(124.771,144,o),
(107.186,71,o),
(108.192,41,c),
(108.192,41,o),
(108.994,30,o),
(95.395,27,cs),
(81.795,24,o),
(76.993,35,o),
(76.993,35,c)
);
},
{
closed = 1;
nodes = (
(156.704,479,o),
(161.301,497,o),
(183.301,497,cs),
(205.301,497,o),
(200.505,473,o),
(200.505,473,c),
(161.532,338,o),
(132.563,183,o),
(109.996,20,c),
(109.996,20,o),
(104.2,1,o),
(85.2,1,cs),
(66.2,1,o),
(64.596,18,o),
(64.596,18,c),
(78.567,163,o),
(110.337,317,o),
(156.704,479,c)
);
}
);
width = 517;
},
{
anchors = (
{
name = top;
position = "{446, 501}";
},
{
name = bottom;
position = "{469, 0}";
},
{
name = left;
position = "{1019, 88}";
}
);
layerId = "1EECF98D-35CB-4836-8875-A967ACEC66D2";
shapes = (
{
closed = 1;
nodes = (
(64,98,o),
(77,118,o),
(71,183,c),
(49,290,o),
(58,303,o),
(121,368,c),
(214,443,o),
(412,516,o),
(569,486,c),
(656,471,o),
(808,425,o),
(866,276,c),
(887,213,o),
(887,162,o),
(868,76,c),
(868,76,o),
(857,-20,o),
(695,7,cs),
(562,30,o),
(584,122,o),
(584,122,c),
(601,188,o),
(599,263,o),
(565,303,c),
(524,345,o),
(428,338,o),
(365,294,cs),
(304,252,o),
(319,182,o),
(313,150,c),
(308,107,o),
(313,108,o),
(308,86,c),
(308,86,o),
(319,30,o),
(208,26,cs),
(140,24,o),
(92,75,o),
(92,75,c)
);
},
{
closed = 1;
nodes = (
(61,437,o),
(70,502,o),
(191,500,cs),
(322,498,o),
(335,415,o),
(335,415,c),
(325,288,o),
(322,219,o),
(334,70,c),
(334,70,o),
(329,-4,o),
(203,1,cs),
(95,5,o),
(62,72,o),
(62,72,c),
(40,217,o),
(40,276,o),
(61,437,c)
);
}
);
width = 928;
},
{
anchors = (
{
name = left;
position = "{774, 88}";
},
{
name = bottom;
position = "{410, 0}";
},
{
name = top;
position = "{389, 501}";
}
);
layerId = "1C3422F9-BFDE-4FE8-A46C-291A8D4071B9";
shapes = (
{
closed = 1;
nodes = (
(69,79,o),
(101,110,o),
(84,169,c),
(86,260,o),
(89,357,o),
(153,416,cs),
(227,481,o),
(362,517,o),
(503,482,c),
(609,444,o),
(666,376,o),
(689,286,cs),
(708,210,o),
(702,127,o),
(683,40,c),
(683,40,o),
(677,23,o),
(645,26,c),
(617,30,o),
(612,48,o),
(612,48,c),
(636,188,o),
(635,299,o),
(584,359,c),
(510,453,o),
(420,474,o),
(318,443,c),
(192,396,o),
(137,311,o),
(138,222,c),
(144,144,o),
(140,71,o),
(150,41,c),
(150,41,o),
(155,30,o),
(135,27,cs),
(116,24,o),
(105,35,o),
(105,35,c)
);
},
{
closed = 1;
nodes = (
(92,479,o),
(93,497,o),
(126,497,cs),
(159,497,o),
(159,473,o),
(159,473,c),
(141,338,o),
(144,183,o),
(159,20,c),
(159,20,o),
(156,1,o),
(128,1,cs),
(99,1,o),
(92,18,o),
(92,18,c),
(69,163,o),
(71,317,o),
(92,479,c)
);
}
);
width = 776;
},
{
anchors = (
{
name = top;
position = "{298, 501}";
},
{
name = bottom;
position = "{313, 0}";
},
{
name = left;
position = "{680, 88}";
}
);
layerId = "EE7B1B97-935D-491C-911D-EA8B82785AFC";
shapes = (
{
closed = 1;
nodes = (
(43,98,o),
(52,118,o),
(48,183,c),
(33,290,o),
(39,303,o),
(81,368,c),
(143,443,o),
(275,516,o),
(380,486,c),
(438,471,o),
(539,425,o),
(578,276,c),
(592,213,o),
(592,162,o),
(579,76,c),
(579,76,o),
(572,-20,o),
(464,7,cs),
(375,30,o),
(390,122,o),
(390,122,c),
(401,188,o),
(400,263,o),
(377,303,c),
(350,345,o),
(286,338,o),
(244,294,c),
(203,252,o),
(213,182,o),
(209,150,c),
(206,107,o),
(209,108,o),
(206,86,c),
(206,86,o),
(213,30,o),
(139,26,cs),
(94,24,o),
(62,75,o),
(62,75,c)
);
},
{
closed = 1;
nodes = (
(41,437,o),
(47,502,o),
(128,500,cs),
(215,498,o),
(224,415,o),
(224,415,c),
(217,288,o),
(215,219,o),
(223,70,c),
(223,70,o),
(220,-4,o),
(136,1,cs),
(64,5,o),
(42,72,o),
(42,72,c),
(27,217,o),
(27,276,o),
(41,437,c)
);
}
);
width = 619;
},
{
anchors = (
{
name = left;
position = "{516, 88}";
},
{
name = bottom;
position = "{273, 0}";
},
{
name = top;
position = "{259, 501}";
}
);
layerId = "6B947F8E-B64D-4F43-8779-746217178CEC";
shapes = (
{
closed = 1;
nodes = (
(46,79,o),
(67,110,o),
(56,169,c),
(57,260,o),
(59,357,o),
(102,416,cs),
(151,481,o),
(241,517,o),
(335,482,c),
(406,444,o),
(444,376,o),
(459,286,cs),
(472,210,o),
(468,127,o),
(455,40,c),
(455,40,o),
(451,23,o),
(430,26,c),
(411,30,o),
(408,48,o),
(408,48,c),
(424,188,o),
(423,299,o),
(389,359,c),
(340,453,o),
(280,474,o),
(212,443,c),
(128,396,o),
(91,311,o),
(92,222,c),
(96,144,o),
(93,71,o),
(100,41,c),
(100,41,o),
(103,30,o),
(90,27,cs),
(77,24,o),
(70,35,o),
(70,35,c)
);
},
{
closed = 1;
nodes = (
(61,479,o),
(62,497,o),
(84,497,cs),
(106,497,o),
(106,473,o),
(106,473,c),
(94,338,o),
(96,183,o),
(106,20,c),
(106,20,o),
(104,1,o),
(85,1,cs),
(66,1,o),
(61,18,o),
(61,18,c),
(46,163,o),
(47,317,o),
(61,479,c)
);
}
);
width = 517;
}
);
leftKerningGroup = m;
rightKerningGroup = h;
unicode = 110;
},
{
glyphname = o;
layers = (
{
anchors = (
{
name = top;
position = "{443, 501}";
}
);
layerId = "FC2E0489-11A5-440C-8B4C-71CFB6149F63";
name = "#instance";
shapes = (
{
closed = 1;
nodes = (
(212,500,o),
(45,376,o),
(45,242,cs),
(45,108,o),
(219,-1,o),
(452,-1,cs),
(683,-1,o),
(866,116,o),
(866,250,cs),
(866,421,o),
(675,500,o),
(443,500,cs)
);
},
{
closed = 1;
nodes = (
(378,165,o),
(336,199,o),
(336,247,cs),
(336,294,o),
(390,344,o),
(458,344,cs),
(525,344,o),
(575,316,o),
(575,255,cs),
(575,207,o),
(513,165,o),
(446,165,cs)
);
}
);
width = 911;
},
{
anchors = (
{
name = top;
position = "{544, 501}";
}
);
layerId = "7E05DFED-BC11-4724-94EA-0D0C4C5F5B37";
shapes = (
{
closed = 1;
nodes = (
(312.9,500,o),
(121.125,376,o),
(94.352,242,cs),
(67.578,108,o),
(219.8,-1,o),
(452.8,-1,cs),
(683.8,-1,o),
(890.177,116,o),
(916.95,250,cs),
(951.116,421,o),
(775.9,500,o),
(543.9,500,cs)
);
},
{
closed = 1;
nodes = (
(411.967,165,o),
(376.76,199,o),
(386.351,247,cs),
(395.741,294,o),
(459.731,344,o),
(527.731,344,cs),
(594.731,344,o),
(639.137,316,o),
(626.949,255,cs),
(617.359,207,o),
(546.967,165,o),
(479.967,165,cs)
);
}
);
width = 912;
},
{
anchors = (
{
name = top;
position = "{532, 501}";
}
);
layerId = "99376340-70F9-4B1D-A253-B1BEDBF73140";
shapes = (
{
closed = 1;
nodes = (
(334.9,500,o),
(151.325,377,o),
(124.551,243,cs),
(97.778,109,o),
(202.799,4,o),
(397.799,4,cs),
(592.799,4,o),
(792.177,116,o),
(818.95,250,cs),
(853.316,422,o),
(726.9,500,o),
(531.9,500,cs)
);
},
{
closed = 1;
nodes = (
(252.391,47,o),
(168.975,125,o),
(191.153,236,cs),
(213.53,348,o),
(365.707,464,o),
(522.707,464,cs),
(680.707,464,o),
(781.72,399,o),
(753.349,257,cs),
(730.971,145,o),
(567.391,47,o),
(409.391,47,cs)
);
}
);
width = 844;
},
{
anchors = (
{
name = top;
position = "{396, 501}";
}
);
layerId = "F94FFD99-753E-41E1-86D1-359C136D3DE6";
shapes = (
{
closed = 1;
nodes = (
(241.9,500,o),
(106.125,376,o),
(79.352,242,cs),
(52.578,108,o),
(146.8,-1,o),
(301.8,-1,cs),
(455.8,-1,o),
(601.177,116,o),
(627.95,250,cs),
(662.116,421,o),
(550.9,500,o),
(395.9,500,cs)
);
},
{
closed = 1;
nodes = (
(285.967,165,o),
(264.76,199,o),
(274.351,247,cs),
(283.741,294,o),
(329.731,344,o),
(374.731,344,cs),
(419.731,344,o),
(447.137,316,o),
(434.949,255,cs),
(425.359,207,o),
(375.967,165,o),
(330.967,165,cs)
);
}
);
width = 608;
},
{
anchors = (
{
name = top;
position = "{388, 501}";
}
);
layerId = "E82ED6F4-5586-4A54-A016-86253174F252";
shapes = (
{
closed = 1;
nodes = (
(256.9,500,o),
(126.325,377,o),
(99.551,243,cs),
(72.778,109,o),
(135.799,4,o),
(265.799,4,cs),
(395.799,4,o),
(536.177,116,o),
(562.95,250,cs),
(597.316,422,o),
(517.9,500,o),
(387.9,500,cs)
);
},
{
closed = 1;
nodes = (
(171.391,47,o),
(120.975,125,o),
(143.153,236,cs),
(165.53,348,o),
(274.707,464,o),
(379.707,464,cs),
(484.707,464,o),
(547.72,399,o),
(519.349,257,cs),
(496.971,145,o),
(381.391,47,o),
(276.391,47,cs)
);
}
);
width = 563;
},
{
anchors = (
{
name = top;
position = "{443, 501}";
}
);
layerId = "1EECF98D-35CB-4836-8875-A967ACEC66D2";
shapes = (
{
closed = 1;
nodes = (
(212,500,o),
(45,376,o),
(45,242,cs),
(45,108,o),
(219,-1,o),
(452,-1,cs),
(683,-1,o),
(866,116,o),
(866,250,cs),
(866,421,o),
(675,500,o),
(443,500,cs)
);
},
{
closed = 1;
nodes = (
(378,165,o),
(336,199,o),
(336,247,cs),
(336,294,o),
(390,344,o),
(458,344,cs),
(525,344,o),
(575,316,o),
(575,255,cs),
(575,207,o),
(513,165,o),
(446,165,cs)
);
}
);
width = 911;
},
{
anchors = (
{
name = top;
position = "{431, 501}";
}
);
layerId = "1C3422F9-BFDE-4FE8-A46C-291A8D4071B9";
shapes = (
{
closed = 1;
nodes = (
(234,500,o),
(75,377,o),
(75,243,cs),
(75,109,o),
(201,4,o),
(396,4,cs),
(591,4,o),
(768,116,o),
(768,250,cs),
(768,422,o),
(626,500,o),
(431,500,cs)
);
},
{
closed = 1;
nodes = (
(242,47,o),
(143,125,o),
(143,236,cs),
(143,348,o),
(272,464,o),
(429,464,cs),
(587,464,o),
(701,399,o),
(701,257,cs),
(701,145,o),
(557,47,o),
(399,47,cs)
);
}
);
width = 843;
},
{
anchors = (
{
name = top;
position = "{295, 501}";
}
);
layerId = "EE7B1B97-935D-491C-911D-EA8B82785AFC";
shapes = (
{
closed = 1;
nodes = (
(141,500,o),
(30,376,o),
(30,242,cs),
(30,108,o),
(146,-1,o),
(301,-1,cs),
(455,-1,o),
(577,116,o),
(577,250,cs),
(577,421,o),
(450,500,o),
(295,500,cs)
);
},
{
closed = 1;
nodes = (
(252,165,o),
(224,199,o),
(224,247,cs),
(224,294,o),
(260,344,o),
(305,344,cs),
(350,344,o),
(383,316,o),
(383,255,cs),
(383,207,o),
(342,165,o),
(297,165,cs)
);
}
);
width = 607;
},
{
anchors = (
{
name = top;
position = "{287, 501}";
}
);
layerId = "6B947F8E-B64D-4F43-8779-746217178CEC";
shapes = (
{
closed = 1;
nodes = (
(156,500,o),
(50,377,o),
(50,243,cs),
(50,109,o),
(134,4,o),
(264,4,cs),
(394,4,o),
(512,116,o),
(512,250,cs),
(512,422,o),
(417,500,o),
(287,500,cs)
);
},
{
closed = 1;
nodes = (
(161,47,o),
(95,125,o),
(95,236,cs),
(95,348,o),
(181,464,o),
(286,464,cs),
(391,464,o),
(467,399,o),
(467,257,cs),
(467,145,o),
(371,47,o),
(266,47,cs)
);
}
);
width = 562;
}
);
leftKerningGroup = c1;
rightKerningGroup = c;
unicode = 111;
},
{
glyphname = p;
layers = (
{
layerId = "FC2E0489-11A5-440C-8B4C-71CFB6149F63";
name = "#instance";
shapes = (
{
closed = 1;
nodes = (
(60,437,o),
(77,505,o),
(195,497,cs),
(321,488,o),
(335,411,o),
(335,411,c),
(327,284,o),
(326,19,o),
(341,-145,c),
(341,-145,o),
(336,-215,o),
(221,-215,cs),
(93,-215,o),
(65,-132,o),
(65,-132,c),
(42,13,o),
(38,276,o),
(60,437,c)
);
},
{
closed = 1;
nodes = (
(755,497,o),
(929,398,o),
(930,242,c),
(933,108,o),
(755,-1,o),
(536,-1,c),
(230,0,o),
(155,116,o),
(155,250,cs),
(155,421,o),
(278,501,o),
(536,499,cs)
);
},
{
closed = 1;
nodes = (
(378,266,o),
(389,207,o),
(441,181,cs),
(494,156,o),
(558,168,o),
(602,209,cs),
(645,249,o),
(648,312,o),
(596,338,cs),
(543,363,o),
(479,358,o),
(423,307,cs)
);
}
);
width = 976;
},
{
layerId = "7E05DFED-BC11-4724-94EA-0D0C4C5F5B37";
shapes = (
{
closed = 1;
nodes = (
(147,437,o),
(178,505,o),
(294,497,cs),
(419,488,o),
(417,411,o),
(417,411,c),
(384,284,o),
(330,19,o),
(312,-145,c),
(312,-145,o),
(293,-215,o),
(178,-215,cs),
(50,-215,o),
(39,-132,o),
(39,-132,c),
(45,13,o),
(93,276,o),
(147,437,c)
);
},
{
closed = 1;
nodes = (
(854,497,o),
(1009,398,o),
(978,242,cs),
(955,108,o),
(755,-1,o),
(536,-1,c),
(230,0,o),
(178,116,o),
(205,250,cs),
(239,421,o),
(378,501,o),
(636,499,cs)
);
},
{
closed = 1;
nodes = (
(431,266,o),
(430,207,o),
(477,181,cs),
(525,156,o),
(592,168,o),
(644,209,cs),
(695,249,o),
(710,312,o),
(664,338,cs),
(616,363,o),
(551,358,o),
(484,307,cs)
);
}
);
width = 975;
},
{
layerId = "99376340-70F9-4B1D-A253-B1BEDBF73140";
shapes = (
{
closed = 1;
nodes = (
(188,474,o),
(194,493,o),
(227,493,cs),
(260,493,o),
(255,469,o),
(255,469,c),
(210,333,o),
(138,-29,o),
(119,-193,c),
(119,-193,o),
(113,-212,o),
(84,-212,cs),
(56,-212,o),
(51,-194,o),
(51,-194,c),
(58,-49,o),
(135,313,o),
(188,474,c)
);
},
{
closed = 1;
nodes = (
(778,500,o),
(905,422,o),
(871,250,cs),
(844,116,o),
(645,4,o),
(450,4,cs),
(253,4,o),
(150,109,o),
(177,243,cs),
(203,377,o),
(387,500,o),
(583,500,cs)
);
},
{
closed = 1;
nodes = (
(220,125,o),
(303,47,o),
(461,47,cs),
(618,47,o),
(782,145,o),
(804,257,cs),
(833,399,o),
(732,464,o),
(575,464,cs),
(417,464,o),
(265,348,o),
(242,236,cs)
);
}
);
width = 897;
},
{
layerId = "F94FFD99-753E-41E1-86D1-359C136D3DE6";
shapes = (
{
closed = 1;
nodes = (
(127,437,o),
(152,505,o),
(229,497,cs),
(312,488,o),
(305,411,o),
(305,411,c),
(275,284,o),
(221,19,o),
(198,-145,c),
(198,-145,o),
(181,-215,o),
(104,-215,cs),
(19,-215,o),
(17,-132,o),
(17,-132,c),
(31,13,o),
(80,276,o),
(127,437,c)
);
},
{
closed = 1;
nodes = (
(602,497,o),
(699,398,o),
(668,242,cs),
(644,108,o),
(503,-1,o),
(357,-1,c),
(153,0,o),
(126,116,o),
(153,250,cs),
(187,421,o),
(285,501,o),
(457,499,cs)
);
},
{
closed = 1;
nodes = (
(305,266,o),
(300,207,o),
(330,181,cs),
(360,156,o),
(406,168,o),
(443,209,cs),
(480,249,o),
(494,312,o),
(465,338,cs),
(435,363,o),
(391,358,o),
(343,307,cs)
);
}
);
width = 650;
},
{
layerId = "E82ED6F4-5586-4A54-A016-86253174F252";
shapes = (
{
closed = 1;
nodes = (
(157,474,o),
(162,493,o),
(184,493,cs),
(206,493,o),
(201,469,o),
(201,469,c),
(162,333,o),
(90,-29,o),
(66,-193,c),
(66,-193,o),
(61,-212,o),
(42,-212,cs),
(23,-212,o),
(21,-194,o),
(21,-194,c),
(35,-49,o),
(111,313,o),
(157,474,c)
);
},
{
closed = 1;
nodes = (
(552,500,o),
(631,422,o),
(597,250,cs),
(570,116,o),
(430,4,o),
(300,4,cs),
(169,4,o),
(107,109,o),
(134,243,cs),
(160,377,o),
(291,500,o),
(422,500,cs)
);
},
{
closed = 1;
nodes = (
(155,125,o),
(205,47,o),
(310,47,cs),
(415,47,o),
(531,145,o),
(553,257,cs),
(582,399,o),
(519,464,o),
(414,464,cs),
(309,464,o),
(200,348,o),
(177,236,cs)
);
}
);
width = 598;
},
{
layerId = "1EECF98D-35CB-4836-8875-A967ACEC66D2";
shapes = (
{
closed = 1;
nodes = (
(60,437,o),
(77,505,o),
(195,497,cs),
(321,488,o),
(335,411,o),
(335,411,c),
(327,284,o),
(326,19,o),
(341,-145,c),
(341,-145,o),
(336,-215,o),
(221,-215,cs),
(93,-215,o),
(65,-132,o),
(65,-132,c),
(42,13,o),
(38,276,o),
(60,437,c)
);
},
{
closed = 1;
nodes = (
(755,497,o),
(929,398,o),
(930,242,cs),
(933,108,o),
(755,-1,o),
(536,-1,c),
(230,0,o),
(155,116,o),
(155,250,cs),
(155,421,o),
(278,501,o),
(536,499,cs)
);
},
{
closed = 1;
nodes = (
(378,266,o),
(389,207,o),
(441,181,cs),
(494,156,o),
(558,168,o),
(602,209,cs),
(645,249,o),
(648,312,o),
(596,338,cs),
(543,363,o),
(479,358,o),
(423,307,cs)
);
}
);
width = 976;
},
{
layerId = "1C3422F9-BFDE-4FE8-A46C-291A8D4071B9";
shapes = (
{
closed = 1;
nodes = (
(93,474,o),
(95,493,o),
(128,493,cs),
(161,493,o),
(161,469,o),
(161,469,c),
(143,333,o),
(144,-29,o),
(158,-193,c),
(158,-193,o),
(155,-212,o),
(126,-212,cs),
(98,-212,o),
(90,-194,o),
(90,-194,c),
(68,-49,o),
(72,313,o),
(93,474,c)
);
},
{
closed = 1;
nodes = (
(678,500,o),
(821,422,o),
(821,250,cs),
(821,116,o),
(644,4,o),
(449,4,cs),
(252,4,o),
(128,109,o),
(128,243,cs),
(128,377,o),
(287,500,o),
(483,500,cs)
);
},
{
closed = 1;
nodes = (
(195,125,o),
(294,47,o),
(452,47,cs),
(609,47,o),
(753,145,o),
(753,257,cs),
(753,399,o),
(639,464,o),
(482,464,cs),
(324,464,o),
(195,348,o),
(195,236,cs)
);
}
);
width = 896;
},
{
layerId = "EE7B1B97-935D-491C-911D-EA8B82785AFC";
shapes = (
{
closed = 1;
nodes = (
(40,437,o),
(51,505,o),
(130,497,cs),
(214,488,o),
(223,411,o),
(223,411,c),
(218,284,o),
(217,19,o),
(227,-145,c),
(227,-145,o),
(224,-215,o),
(147,-215,cs),
(62,-215,o),
(43,-132,o),
(43,-132,c),
(28,13,o),
(25,276,o),
(40,437,c)
);
},
{
closed = 1;
nodes = (
(503,497,o),
(619,398,o),
(620,242,cs),
(622,108,o),
(503,-1,o),
(357,-1,c),
(153,0,o),
(103,116,o),
(103,250,cs),
(103,421,o),
(185,501,o),
(357,499,cs)
);
},
{
closed = 1;
nodes = (
(252,266,o),
(259,207,o),
(294,181,cs),
(329,156,o),
(372,168,o),
(401,209,cs),
(430,249,o),
(432,312,o),
(397,338,cs),
(362,363,o),
(319,358,o),
(282,307,cs)
);
}
);
width = 651;
},
{
layerId = "6B947F8E-B64D-4F43-8779-746217178CEC";
shapes = (
{
closed = 1;
nodes = (
(62,474,o),
(63,493,o),
(85,493,cs),
(107,493,o),
(107,469,o),
(107,469,c),
(95,333,o),
(96,-29,o),
(105,-193,c),
(105,-193,o),
(103,-212,o),
(84,-212,cs),
(65,-212,o),
(60,-194,o),
(60,-194,c),
(45,-49,o),
(48,313,o),
(62,474,c)
);
},
{
closed = 1;
nodes = (
(452,500,o),
(547,422,o),
(547,250,cs),
(547,116,o),
(429,4,o),
(299,4,cs),
(168,4,o),
(85,109,o),
(85,243,cs),
(85,377,o),
(191,500,o),
(322,500,cs)
);
},
{
closed = 1;
nodes = (
(130,125,o),
(196,47,o),
(301,47,cs),
(406,47,o),
(502,145,o),
(502,257,cs),
(502,399,o),
(426,464,o),
(321,464,cs),
(216,464,o),
(130,348,o),
(130,236,cs)
);
}
);
width = 597;
}
);
rightKerningGroup = b;
unicode = 112;
},
{
glyphname = q;
layers = (
{
layerId = "FC2E0489-11A5-440C-8B4C-71CFB6149F63";
name = "#instance";
shapes = (
{
closed = 1;
nodes = (
(634,437,o),
(650,504,o),
(769,496,cs),
(895,488,o),
(908,411,o),
(908,411,c),
(901,283,o),
(893,18,o),
(907,-146,c),
(907,-146,o),
(902,-215,o),
(788,-216,cs),
(656,-218,o),
(632,-133,o),
(632,-133,c),
(610,12,o),
(611,275,o),
(634,437,c)
);
},
{
closed = 1;
nodes = (
(698,501,o),
(823,421,o),
(823,250,cs),
(823,116,o),
(725,4,o),
(440,-1,cs),
(221,-4,o),
(44,108,o),
(46,242,cs),
(49,398,o),
(221,497,o),
(440,499,cs)
);
},
{
closed = 1;
nodes = (
(517,167,o),
(577,212,o),
(577,262,cs),
(577,325,o),
(529,354,o),
(464,354,cs),
(398,354,o),
(346,302,o),
(346,252,cs),
(346,203,o),
(386,167,o),
(451,167,cs)
);
}
);
width = 953;
},
{
layerId = "7E05DFED-BC11-4724-94EA-0D0C4C5F5B37";
shapes = (
{
closed = 1;
nodes = (
(721,437,o),
(751,504,o),
(868,496,cs),
(993,488,o),
(990,411,o),
(990,411,c),
(958,283,o),
(897,18,o),
(878,-146,c),
(878,-146,o),
(859,-215,o),
(745,-216,cs),
(612,-218,o),
(605,-133,o),
(605,-133,c),
(612,12,o),
(666,275,o),
(721,437,c)
);
},
{
closed = 1;
nodes = (
(798,501,o),
(907,421,o),
(873,250,cs),
(846,116,o),
(726,4,o),
(440,-1,cs),
(220,-4,o),
(66,108,o),
(94,242,cs),
(129,398,o),
(320,497,o),
(540,499,cs)
);
},
{
closed = 1;
nodes = (
(550,167,o),
(619,212,o),
(629,262,cs),
(642,325,o),
(600,354,o),
(535,354,cs),
(469,354,o),
(406,302,o),
(396,252,cs),
(387,203,o),
(419,167,o),
(484,167,cs)
);
}
);
width = 953;
},
{
layerId = "99376340-70F9-4B1D-A253-B1BEDBF73140";
shapes = (
{
closed = 1;
nodes = (
(853,474,o),
(857,493,o),
(891,493,cs),
(924,493,o),
(919,469,o),
(919,469,c),
(873,333,o),
(801,-29,o),
(782,-193,c),
(782,-193,o),
(777,-212,o),
(749,-212,cs),
(720,-212,o),
(714,-194,o),
(714,-194,c),
(721,-49,o),
(798,313,o),
(853,474,c)
);
},
{
closed = 1;
nodes = (
(726,500,o),
(852,422,o),
(818,250,cs),
(791,116,o),
(592,4,o),
(397,4,cs),
(202,4,o),
(97,109,o),
(124,243,cs),
(150,377,o),
(334,500,o),
(531,500,cs)
);
},
{
closed = 1;
nodes = (
(566,47,o),
(730,145,o),
(752,257,cs),
(781,399,o),
(680,464,o),
(522,464,cs),
(365,464,o),
(213,348,o),
(190,236,cs),
(168,125,o),
(251,47,o),
(408,47,cs)
);
}
);
width = 901;
},
{
layerId = "F94FFD99-753E-41E1-86D1-359C136D3DE6";
shapes = (
{
closed = 1;
nodes = (
(510,437,o),
(535,504,o),
(612,496,cs),
(695,488,o),
(688,411,o),
(688,411,c),
(658,283,o),
(600,18,o),
(576,-146,c),
(576,-146,o),
(559,-215,o),
(483,-216,cs),
(394,-218,o),
(395,-133,o),
(395,-133,c),
(409,12,o),
(463,275,o),
(510,437,c)
);
},
{
closed = 1;
nodes = (
(566,501,o),
(633,421,o),
(599,250,cs),
(572,116,o),
(485,4,o),
(294,-1,cs),
(147,-4,o),
(52,108,o),
(79,242,cs),
(113,398,o),
(247,497,o),
(394,499,cs)
);
},
{
closed = 1;
nodes = (
(378,167,o),
(427,212,o),
(437,262,cs),
(450,325,o),
(424,354,o),
(381,354,cs),
(337,354,o),
(291,302,o),
(281,252,cs),
(272,203,o),
(291,167,o),
(334,167,cs)
);
}
);
width = 636;
},
{
layerId = "E82ED6F4-5586-4A54-A016-86253174F252";
shapes = (
{
closed = 1;
nodes = (
(600,474,o),
(604,493,o),
(627,493,cs),
(649,493,o),
(644,469,o),
(644,469,c),
(604,333,o),
(532,-29,o),
(508,-193,c),
(508,-193,o),
(504,-212,o),
(485,-212,cs),
(466,-212,o),
(463,-194,o),
(463,-194,c),
(477,-49,o),
(553,313,o),
(600,474,c)
);
},
{
closed = 1;
nodes = (
(517,500,o),
(596,422,o),
(562,250,cs),
(535,116,o),
(395,4,o),
(265,4,cs),
(135,4,o),
(72,109,o),
(99,243,cs),
(125,377,o),
(256,500,o),
(387,500,cs)
);
},
{
closed = 1;
nodes = (
(380,47,o),
(496,145,o),
(518,257,cs),
(547,399,o),
(484,464,o),
(379,464,cs),
(274,464,o),
(165,348,o),
(142,236,cs),
(120,125,o),
(170,47,o),
(275,47,cs)
);
}
);
width = 601;
},
{
layerId = "1EECF98D-35CB-4836-8875-A967ACEC66D2";
shapes = (
{
closed = 1;
nodes = (
(634,437,o),
(650,504,o),
(769,496,cs),
(895,488,o),
(908,411,o),
(908,411,c),
(901,283,o),
(893,18,o),
(907,-146,c),
(907,-146,o),
(902,-215,o),
(788,-216,cs),
(656,-218,o),
(632,-133,o),
(632,-133,c),
(610,12,o),
(611,275,o),
(634,437,c)
);
},
{
closed = 1;
nodes = (
(698,501,o),
(823,421,o),
(823,250,cs),
(823,116,o),
(725,4,o),
(440,-1,cs),
(221,-4,o),
(44,108,o),
(46,242,cs),
(49,398,o),
(221,497,o),
(440,499,cs)
);
},
{
closed = 1;
nodes = (
(517,167,o),
(577,212,o),
(577,262,cs),
(577,325,o),
(529,354,o),
(464,354,cs),
(398,354,o),
(346,302,o),
(346,252,cs),
(346,203,o),
(386,167,o),
(451,167,cs)
);
}
);
width = 953;
},
{
layerId = "1C3422F9-BFDE-4FE8-A46C-291A8D4071B9";
shapes = (
{
closed = 1;
nodes = (
(758,474,o),
(758,493,o),
(792,493,cs),
(825,493,o),
(825,469,o),
(825,469,c),
(806,333,o),
(807,-29,o),
(821,-193,c),
(821,-193,o),
(819,-212,o),
(791,-212,cs),
(762,-212,o),
(753,-194,o),
(753,-194,c),
(731,-49,o),
(735,313,o),
(758,474,c)
);
},
{
closed = 1;
nodes = (
(626,500,o),
(768,422,o),
(768,250,cs),
(768,116,o),
(591,4,o),
(396,4,cs),
(201,4,o),
(75,109,o),
(75,243,cs),
(75,377,o),
(234,500,o),
(431,500,cs)
);
},
{
closed = 1;
nodes = (
(557,47,o),
(701,145,o),
(701,257,cs),
(701,399,o),
(587,464,o),
(429,464,cs),
(272,464,o),
(143,348,o),
(143,236,cs),
(143,125,o),
(242,47,o),
(399,47,cs)
);
}
);
width = 900;
},
{
layerId = "EE7B1B97-935D-491C-911D-EA8B82785AFC";
shapes = (
{
closed = 1;
nodes = (
(423,437,o),
(434,504,o),
(513,496,cs),
(597,488,o),
(606,411,o),
(606,411,c),
(601,283,o),
(596,18,o),
(605,-146,c),
(605,-146,o),
(602,-215,o),
(526,-216,cs),
(438,-218,o),
(422,-133,o),
(422,-133,c),
(407,12,o),
(408,275,o),
(423,437,c)
);
},
{
closed = 1;
nodes = (
(466,501,o),
(549,421,o),
(549,250,cs),
(549,116,o),
(484,4,o),
(294,-1,cs),
(148,-4,o),
(30,108,o),
(31,242,cs),
(33,398,o),
(148,497,o),
(294,499,cs)
);
},
{
closed = 1;
nodes = (
(345,167,o),
(385,212,o),
(385,262,cs),
(385,325,o),
(353,354,o),
(310,354,cs),
(266,354,o),
(231,302,o),
(231,252,cs),
(231,203,o),
(258,167,o),
(301,167,cs)
);
}
);
width = 636;
},
{
layerId = "6B947F8E-B64D-4F43-8779-746217178CEC";
shapes = (
{
closed = 1;
nodes = (
(505,474,o),
(505,493,o),
(528,493,cs),
(550,493,o),
(550,469,o),
(550,469,c),
(537,333,o),
(538,-29,o),
(547,-193,c),
(547,-193,o),
(546,-212,o),
(527,-212,cs),
(508,-212,o),
(502,-194,o),
(502,-194,c),
(487,-49,o),
(490,313,o),
(505,474,c)
);
},
{
closed = 1;
nodes = (
(417,500,o),
(512,422,o),
(512,250,cs),
(512,116,o),
(394,4,o),
(264,4,cs),
(134,4,o),
(50,109,o),
(50,243,cs),
(50,377,o),
(156,500,o),
(287,500,cs)
);
},
{
closed = 1;
nodes = (
(371,47,o),
(467,145,o),
(467,257,cs),
(467,399,o),
(391,464,o),
(286,464,cs),
(181,464,o),
(95,348,o),
(95,236,cs),
(95,125,o),
(161,47,o),
(266,47,cs)
);
}
);
width = 600;
}
);
leftKerningGroup = a1;
rightKerningGroup = a;
unicode = 113;
},
{
glyphname = r;
layers = (
{
anchors = (
{
name = top;
position = "{422, 501}";
},
{
name = bottom;
position = "{424, 0}";
}
);
layerId = "FC2E0489-11A5-440C-8B4C-71CFB6149F63";
name = "#instance";
shapes = (
{
closed = 1;
nodes = (
(55,239,o),
(74,241,o),
(74,266,c),
(85,384,o),
(205,467,o),
(344,489,c),
(532,513,o),
(658,475,o),
(718,435,c),
(718,435,o),
(818,375,o),
(724,320,cs),
(658,281,o),
(529,330,o),
(529,330,c),
(505,338,o),
(451,334,o),
(401,316,c),
(367,299,o),
(332,279,o),
(326,252,c),
(319,195,o),
(310,157,o),
(316,93,c),
(316,93,o),
(292,47,o),
(184,40,cs),
(83,34,o),
(86,151,o),
(86,151,c)
);
},
{
closed = 1;
nodes = (
(61,437,o),
(70,502,o),
(191,500,cs),
(322,498,o),
(335,415,o),
(335,415,c),
(325,288,o),
(322,219,o),
(334,70,c),
(334,70,o),
(329,-4,o),
(203,1,cs),
(95,5,o),
(62,72,o),
(62,72,c),
(40,217,o),
(40,276,o),
(61,437,c)
);
}
);
width = 810;
},
{
anchors = (
{
name = top;
position = "{522, 501}";
},
{
name = bottom;
position = "{424, 0}";
}
);
layerId = "7E05DFED-BC11-4724-94EA-0D0C4C5F5B37";
shapes = (
{
closed = 1;
nodes = (
(102.752,239,o),
(122.152,241,o),
(127.147,266,c),
(161.723,384,o),
(298.307,467,o),
(441.702,489,c),
(634.497,513,o),
(752.905,475,o),
(804.913,435,c),
(804.913,435,o),
(892.925,375,o),
(787.936,320,cs),
(714.144,281,o),
(594.934,330,o),
(594.934,330,c),
(572.532,338,o),
(517.733,334,o),
(464.137,316,c),
(426.74,299,o),
(387.744,279,o),
(376.35,252,c),
(357.961,195,o),
(341.369,157,o),
(334.581,93,c),
(334.581,93,o),
(301.391,47,o),
(191.992,40,cs),
(89.793,34,o),
(116.17,151,o),
(116.17,151,c)
);
},
{
closed = 1;
nodes = (
(148.313,437,o),
(170.3,502,o),
(290.9,500,cs),
(421.5,498,o),
(417.917,415,o),
(417.917,415,c),
(382.542,288,o),
(365.756,219,o),
(347.986,70,c),
(347.986,70,o),
(328.201,-4,o),
(203.2,1,cs),
(95.999,5,o),
(76.386,72,o),
(76.386,72,c),
(83.357,217,o),
(95.145,276,o),
(148.313,437,c)
);
}
);
width = 810;
},
{
anchors = (
{
name = top;
position = "{463, 501}";
},
{
name = bottom;
position = "{365, 0}";
}
);
layerId = "99376340-70F9-4B1D-A253-B1BEDBF73140";
shapes = (
{
closed = 1;
nodes = (
(129.562,188,o),
(124.564,178,o),
(144.547,263,c),
(177.924,380,o),
(260.709,454,o),
(412.103,486,c),
(505.3,502,o),
(586.102,491,o),
(653.31,452,c),
(653.31,452,o),
(688.914,430,o),
(658.117,416,cs),
(628.32,402,o),
(595.514,428,o),
(595.514,428,c),
(543.309,457,o),
(480.508,458,o),
(411.912,440,cs),
(298.318,412,o),
(237.13,351,o),
(203.946,270,c),
(178.761,194,o),
(184.357,217,o),
(179.365,177,c),
(179.365,177,o),
(182.368,162,o),
(160.768,159,cs),
(139.169,156,o),
(131.566,168,o),
(131.566,168,c)
);
},
{
closed = 1;
nodes = (
(187.704,479,o),
(192.301,497,o),
(225.301,497,cs),
(258.301,497,o),
(253.505,473,o),
(253.505,473,c),
(208.532,338,o),
(180.563,183,o),
(162.996,20,c),
(162.996,20,o),
(156.2,1,o),
(128.2,1,cs),
(99.2,1,o),
(95.596,18,o),
(95.596,18,c),
(101.567,163,o),
(134.337,317,o),
(187.704,479,c)
);
}
);
width = 660;
},
{
anchors = (
{
name = top;
position = "{382, 501}";
},
{
name = bottom;
position = "{283, 0}";
}
);
layerId = "F94FFD99-753E-41E1-86D1-359C136D3DE6";
shapes = (
{
closed = 1;
nodes = (
(84.752,239,o),
(98.152,241,o),
(103.147,266,c),
(133.723,384,o),
(230.307,467,o),
(327.702,489,c),
(457.497,513,o),
(533.905,475,o),
(565.913,435,c),
(565.913,435,o),
(620.925,375,o),
(546.936,320,cs),
(495.144,281,o),
(418.934,330,o),
(418.934,330,c),
(404.532,338,o),
(367.733,334,o),
(331.137,316,c),
(304.74,299,o),
(277.744,279,o),
(268.35,252,c),
(251.961,195,o),
(238.369,157,o),
(229.581,93,c),
(229.581,93,o),
(204.391,47,o),
(130.992,40,cs),
(62.793,34,o),
(88.17,151,o),
(88.17,151,c)
);
},
{
closed = 1;
nodes = (
(128.313,437,o),
(147.3,502,o),
(227.9,500,cs),
(314.5,498,o),
(306.917,415,o),
(306.917,415,c),
(274.542,288,o),
(258.756,219,o),
(236.986,70,c),
(236.986,70,o),
(219.201,-4,o),
(136.2,1,cs),
(64.999,5,o),
(56.386,72,o),
(56.386,72,c),
(70.357,217,o),
(82.145,276,o),
(128.313,437,c)
);
}
);
width = 540;
},
{
anchors = (
{
name = top;
position = "{342, 501}";
},
{
name = bottom;
position = "{243, 0}";
}
);
layerId = "E82ED6F4-5586-4A54-A016-86253174F252";
shapes = (
{
closed = 1;
nodes = (
(98.562,188,o),
(94.564,178,o),
(113.547,263,c),
(143.924,380,o),
(203.709,454,o),
(307.103,486,c),
(370.3,502,o),
(423.102,491,o),
(465.31,452,c),
(465.31,452,o),
(487.914,430,o),
(466.117,416,cs),
(445.32,402,o),
(425.514,428,o),
(425.514,428,c),
(392.309,457,o),
(350.508,458,o),
(303.912,440,c),
(226.318,412,o),
(181.13,351,o),
(153.946,270,c),
(131.761,194,o),
(137.357,217,o),
(131.365,177,c),
(131.365,177,o),
(132.368,162,o),
(117.768,159,cs),
(103.169,156,o),
(98.566,168,o),
(98.566,168,c)
);
},
{
closed = 1;
nodes = (
(156.704,479,o),
(161.301,497,o),
(183.301,497,cs),
(205.301,497,o),
(200.505,473,o),
(200.505,473,c),
(161.532,338,o),
(132.563,183,o),
(109.996,20,c),
(109.996,20,o),
(104.2,1,o),
(85.2,1,cs),
(66.2,1,o),
(64.596,18,o),
(64.596,18,c),
(78.567,163,o),
(110.337,317,o),
(156.704,479,c)
);
}
);
width = 440;
},
{
anchors = (
{
name = top;
position = "{422, 501}";
},
{
name = bottom;
position = "{424, 0}";
}
);
layerId = "1EECF98D-35CB-4836-8875-A967ACEC66D2";
shapes = (
{
closed = 1;
nodes = (
(55,239,o),
(74,241,o),
(74,266,c),
(85,384,o),
(205,467,o),
(344,489,c),
(532,513,o),
(658,475,o),
(718,435,c),
(718,435,o),
(818,375,o),
(724,320,cs),
(658,281,o),
(529,330,o),
(529,330,c),
(505,338,o),
(451,334,o),
(401,316,c),
(367,299,o),
(332,279,o),
(326,252,c),
(319,195,o),
(310,157,o),
(316,93,c),
(316,93,o),
(292,47,o),
(184,40,cs),
(83,34,o),
(86,151,o),
(86,151,c)
);
},
{
closed = 1;
nodes = (
(61,437,o),
(70,502,o),
(191,500,cs),
(322,498,o),
(335,415,o),
(335,415,c),
(325,288,o),
(322,219,o),
(334,70,c),
(334,70,o),
(329,-4,o),
(203,1,cs),
(95,5,o),
(62,72,o),
(62,72,c),
(40,217,o),
(40,276,o),
(61,437,c)
);
}
);
width = 810;
},
{
anchors = (
{
name = top;
position = "{363, 501}";
},
{
name = bottom;
position = "{365, 0}";
}
);
layerId = "1C3422F9-BFDE-4FE8-A46C-291A8D4071B9";
shapes = (
{
closed = 1;
nodes = (
(92,188,o),
(89,178,o),
(92,263,c),
(102,380,o),
(170,454,o),
(315,486,c),
(405,502,o),
(488,491,o),
(563,452,c),
(563,452,o),
(603,430,o),
(575,416,cs),
(548,402,o),
(510,428,o),
(510,428,c),
(452,457,o),
(389,458,o),
(324,440,c),
(216,412,o),
(167,351,o),
(150,270,c),
(140,194,o),
(141,217,o),
(144,177,c),
(144,177,o),
(150,162,o),
(129,159,cs),
(108,156,o),
(98,168,o),
(98,168,c)
);
},
{
closed = 1;
nodes = (
(92,479,o),
(93,497,o),
(126,497,cs),
(159,497,o),
(159,473,o),
(159,473,c),
(141,338,o),
(144,183,o),
(159,20,c),
(159,20,o),
(156,1,o),
(128,1,cs),
(99,1,o),
(92,18,o),
(92,18,c),
(69,163,o),
(71,317,o),
(92,479,c)
);
}
);
width = 660;
},
{
anchors = (
{
name = top;
position = "{282, 501}";
},
{
name = bottom;
position = "{283, 0}";
}
);
layerId = "EE7B1B97-935D-491C-911D-EA8B82785AFC";
shapes = (
{
closed = 1;
nodes = (
(37,239,o),
(50,241,o),
(50,266,c),
(57,384,o),
(137,467,o),
(230,489,c),
(355,513,o),
(439,475,o),
(479,435,c),
(479,435,o),
(546,375,o),
(483,320,cs),
(439,281,o),
(353,330,o),
(353,330,c),
(337,338,o),
(301,334,o),
(268,316,c),
(245,299,o),
(222,279,o),
(218,252,c),
(213,195,o),
(207,157,o),
(211,93,c),
(211,93,o),
(195,47,o),
(123,40,cs),
(56,34,o),
(58,151,o),
(58,151,c)
);
},
{
closed = 1;
nodes = (
(41,437,o),
(47,502,o),
(128,500,cs),
(215,498,o),
(224,415,o),
(224,415,c),
(217,288,o),
(215,219,o),
(223,70,c),
(223,70,o),
(220,-4,o),
(136,1,cs),
(64,5,o),
(42,72,o),
(42,72,c),
(27,217,o),
(27,276,o),
(41,437,c)
);
}
);
width = 540;
},
{
anchors = (
{
name = top;
position = "{242, 501}";
},
{
name = bottom;
position = "{243, 0}";
}
);
layerId = "6B947F8E-B64D-4F43-8779-746217178CEC";
shapes = (
{
closed = 1;
nodes = (
(61,188,o),
(59,178,o),
(61,263,c),
(68,380,o),
(113,454,o),
(210,486,c),
(270,502,o),
(325,491,o),
(375,452,c),
(375,452,o),
(402,430,o),
(383,416,cs),
(365,402,o),
(340,428,o),
(340,428,c),
(301,457,o),
(259,458,o),
(216,440,c),
(144,412,o),
(111,351,o),
(100,270,c),
(93,194,o),
(94,217,o),
(96,177,c),
(96,177,o),
(100,162,o),
(86,159,cs),
(72,156,o),
(65,168,o),
(65,168,c)
);
},
{
closed = 1;
nodes = (
(61,479,o),
(62,497,o),
(84,497,cs),
(106,497,o),
(106,473,o),
(106,473,c),
(94,338,o),
(96,183,o),
(106,20,c),
(106,20,o),
(104,1,o),
(85,1,cs),
(66,1,o),
(61,18,o),
(61,18,c),
(46,163,o),
(47,317,o),
(61,479,c)
);
}
);
width = 440;
}
);
leftKerningGroup = m;
rightKerningGroup = r;
unicode = 114;
},
{
glyphname = s;
layers = (
{
anchors = (
{
name = top;
position = "{403, 501}";
},
{
name = bottom;
position = "{389, -5}";
}
);
layerId = "FC2E0489-11A5-440C-8B4C-71CFB6149F63";
name = "#instance";
shapes = (
{
closed = 1;
nodes = (
(644,461,o),
(709,436,o),
(697,388,c),
(686,350,o),
(614,348,o),
(614,348,c),
(614,348,o),
(542,346,o),
(442,343,cs),
(367,341,o),
(337,335,o),
(476,279,cs),
(625,218,o),
(689,136,o),
(646,66,cs),
(586,-29,o),
(239,-32,o),
(77,77,c),
(77,77,o),
(16,118,o),
(64,153,cs),
(107,186,o),
(193,159,o),
(193,159,c),
(193,159,o),
(247,140,o),
(311,134,cs),
(395,126,o),
(392,139,o),
(322,165,cs),
(239,195,o),
(131,234,o),
(104,336,cs),
(71,460,o),
(320,557,o),
(644,461,c)
);
}
);
width = 744;
},
{
anchors = (
{
name = top;
position = "{503, 501}";
},
{
name = bottom;
position = "{388, -5}";
}
);
layerId = "7E05DFED-BC11-4724-94EA-0D0C4C5F5B37";
shapes = (
{
closed = 1;
nodes = (
(736.108,461,o),
(796.113,436,o),
(774.522,388,c),
(755.93,350,o),
(683.53,348,o),
(683.53,348,c),
(683.53,348,o),
(611.131,346,o),
(510.531,343,cs),
(435.132,341,o),
(403.933,335,o),
(531.744,279,cs),
(668.556,218,o),
(716.173,136,o),
(659.187,66,cs),
(580.206,-29,o),
(232.606,-32,o),
(92.385,77,c),
(92.385,77,o),
(39.576,118,o),
(94.569,153,cs),
(144.163,186,o),
(224.768,159,o),
(224.768,159,c),
(224.768,159,o),
(274.972,140,o),
(337.773,134,cs),
(420.175,126,o),
(419.772,139,o),
(354.967,165,cs),
(277.961,195,o),
(177.753,234,o),
(171.133,336,cs),
(162.908,460,o),
(431.289,557,o),
(736.108,461,c)
);
}
);
width = 744;
},
{
anchors = (
{
name = top;
position = "{514, 501}";
},
{
name = bottom;
position = "{390, 1}";
}
);
layerId = "99376340-70F9-4B1D-A253-B1BEDBF73140";
shapes = (
{
closed = 1;
nodes = (
(769.505,473,o),
(786.307,467,o),
(781.109,456,cs),
(775.711,444,o),
(756.911,445,o),
(756.911,445,c),
(756.911,445,o),
(452.105,476,o),
(376.115,426,cs),
(299.125,376,o),
(323.138,311,o),
(451.749,254,cs),
(589.761,194,o),
(672.775,124,o),
(613.989,55,cs),
(554.203,-14,o),
(234.805,-26,o),
(94.583,83,c),
(94.583,83,o),
(88.782,89,o),
(99.181,96,cs),
(110.779,104,o),
(126.78,99,o),
(126.78,99,c),
(126.78,99,o),
(250.395,27,o),
(393.993,35,cs),
(538.591,43,o),
(587.386,72,o),
(556.375,127,cs),
(525.563,183,o),
(267.149,256,o),
(263.528,358,cs),
(261.708,459,o),
(412.094,531,o),
(769.505,473,c)
);
}
);
width = 766;
},
{
anchors = (
{
name = top;
position = "{369, 501}";
},
{
name = bottom;
position = "{259, -5}";
}
);
layerId = "F94FFD99-753E-41E1-86D1-359C136D3DE6";
shapes = (
{
closed = 1;
nodes = (
(522.108,461,o),
(560.113,436,o),
(542.522,388,cs),
(527.93,350,o),
(479.53,348,o),
(479.53,348,c),
(479.53,348,o),
(431.131,346,o),
(363.531,343,cs),
(313.132,341,o),
(291.933,335,o),
(373.744,279,cs),
(460.556,218,o),
(487.173,136,o),
(444.187,66,cs),
(385.206,-29,o),
(153.606,-32,o),
(67.385,77,c),
(67.385,77,o),
(34.576,118,o),
(73.569,153,cs),
(109.163,186,o),
(160.768,159,o),
(160.768,159,c),
(160.768,159,o),
(192.972,140,o),
(234.773,134,cs),
(289.175,126,o),
(289.772,139,o),
(247.967,165,cs),
(198.961,195,o),
(134.753,234,o),
(137.133,336,cs),
(139.908,460,o),
(325.289,557,o),
(522.108,461,c)
);
}
);
width = 496;
},
{
anchors = (
{
name = top;
position = "{376, 501}";
},
{
name = bottom;
position = "{260, 1}";
}
);
layerId = "E82ED6F4-5586-4A54-A016-86253174F252";
shapes = (
{
closed = 1;
nodes = (
(544.505,473,o),
(555.307,467,o),
(551.109,456,cs),
(546.711,444,o),
(533.911,445,o),
(533.911,445,c),
(533.911,445,o),
(333.105,476,o),
(279.115,426,cs),
(224.125,376,o),
(236.138,311,o),
(317.749,254,cs),
(405.761,194,o),
(456.775,124,o),
(412.989,55,cs),
(368.203,-14,o),
(154.805,-26,o),
(68.583,83,c),
(68.583,83,o),
(64.782,89,o),
(72.181,96,cs),
(80.779,104,o),
(90.78,99,o),
(90.78,99,c),
(90.78,99,o),
(168.395,27,o),
(264.993,35,cs),
(361.591,43,o),
(396.386,72,o),
(379.375,127,cs),
(362.563,183,o),
(195.149,256,o),
(199.528,358,cs),
(204.708,459,o),
(310.094,531,o),
(544.505,473,c)
);
}
);
width = 511;
},
{
anchors = (
{
name = top;
position = "{403, 501}";
},
{
name = bottom;
position = "{389, -5}";
}
);
layerId = "1EECF98D-35CB-4836-8875-A967ACEC66D2";
shapes = (
{
closed = 1;
nodes = (
(644,461,o),
(709,436,o),
(697,388,cs),
(686,350,o),
(614,348,o),
(614,348,c),
(614,348,o),
(542,346,o),
(442,343,cs),
(367,341,o),
(337,335,o),
(476,279,cs),
(625,218,o),
(689,136,o),
(646,66,cs),
(586,-29,o),
(239,-32,o),
(77,77,c),
(77,77,o),
(16,118,o),
(64,153,cs),
(107,186,o),
(193,159,o),
(193,159,c),
(193,159,o),
(247,140,o),
(311,134,cs),
(395,126,o),
(392,139,o),
(322,165,cs),
(239,195,o),
(131,234,o),
(104,336,cs),
(71,460,o),
(320,557,o),
(644,461,c)
);
}
);
width = 744;
},
{
anchors = (
{
name = top;
position = "{414, 501}";
},
{
name = bottom;
position = "{390, 1}";
}
);
layerId = "1C3422F9-BFDE-4FE8-A46C-291A8D4071B9";
shapes = (
{
closed = 1;
nodes = (
(675,473,o),
(693,467,o),
(690,456,cs),
(687,444,o),
(668,445,o),
(668,445,c),
(668,445,o),
(357,476,o),
(291,426,cs),
(224,376,o),
(261,311,o),
(401,254,cs),
(551,194,o),
(648,124,o),
(603,55,cs),
(557,-14,o),
(240,-26,o),
(78,83,c),
(78,83,o),
(71,89,o),
(80,96,cs),
(90,104,o),
(107,99,o),
(107,99,c),
(107,99,o),
(245,27,o),
(387,35,cs),
(530,43,o),
(573,72,o),
(531,127,cs),
(489,183,o),
(216,256,o),
(192,358,cs),
(170,459,o),
(306,531,o),
(675,473,c)
);
}
);
width = 766;
},
{
anchors = (
{
name = top;
position = "{269, 501}";
},
{
name = bottom;
position = "{260, -5}";
}
);
layerId = "EE7B1B97-935D-491C-911D-EA8B82785AFC";
shapes = (
{
closed = 1;
nodes = (
(430,461,o),
(473,436,o),
(465,388,cs),
(458,350,o),
(410,348,o),
(410,348,c),
(410,348,o),
(362,346,o),
(295,343,cs),
(245,341,o),
(225,335,o),
(318,279,cs),
(417,218,o),
(460,136,o),
(431,66,cs),
(391,-29,o),
(160,-32,o),
(52,77,c),
(52,77,o),
(11,118,o),
(43,153,cs),
(72,186,o),
(129,159,o),
(129,159,c),
(129,159,o),
(165,140,o),
(208,134,cs),
(264,126,o),
(262,139,o),
(215,165,cs),
(160,195,o),
(88,234,o),
(70,336,cs),
(48,460,o),
(214,557,o),
(430,461,c)
);
}
);
width = 496;
},
{
anchors = (
{
name = top;
position = "{276, 501}";
},
{
name = bottom;
position = "{260, 1}";
}
);
layerId = "6B947F8E-B64D-4F43-8779-746217178CEC";
shapes = (
{
closed = 1;
nodes = (
(450,473,o),
(462,467,o),
(460,456,cs),
(458,444,o),
(445,445,o),
(445,445,c),
(445,445,o),
(238,476,o),
(194,426,cs),
(149,376,o),
(174,311,o),
(267,254,cs),
(367,194,o),
(432,124,o),
(402,55,cs),
(371,-14,o),
(160,-26,o),
(52,83,c),
(52,83,o),
(47,89,o),
(53,96,cs),
(60,104,o),
(71,99,o),
(71,99,c),
(71,99,o),
(163,27,o),
(258,35,cs),
(353,43,o),
(382,72,o),
(354,127,cs),
(326,183,o),
(144,256,o),
(128,358,cs),
(113,459,o),
(204,531,o),
(450,473,c)
);
}
);
width = 511;
}
);
leftKerningGroup = s;
rightKerningGroup = s;
unicode = 115;
},
{
glyphname = t;
layers = (
{
anchors = (
{
name = top;
position = "{370, 650}";
},
{
name = bottom;
position = "{389, -1}";
}
);
layerId = "FC2E0489-11A5-440C-8B4C-71CFB6149F63";
name = "#instance";
shapes = (
{
closed = 1;
nodes = (
(235,591,o),
(251,658,o),
(370,650,cs),
(496,642,o),
(509,564,o),
(509,564,c),
(502,437,o),
(494,233,o),
(508,69,c),
(508,69,o),
(503,-1,o),
(389,-1,cs),
(262,-1,o),
(233,83,o),
(233,83,c),
(211,227,o),
(214,429,o),
(235,591,c)
);
},
{
closed = 1;
nodes = (
(179,490,o),
(416,493,o),
(575,493,c),
(575,493,o),
(737,491,o),
(733,407,c),
(727,326,o),
(604,333,o),
(604,333,c),
(445,334,o),
(302,338,o),
(193,340,c),
(193,340,o),
(58,345,o),
(46,414,c),
(34,474,o),
(140,486,o),
(140,486,c)
);
}
);
width = 779;
},
{
anchors = (
{
name = top;
position = "{500, 650}";
},
{
name = bottom;
position = "{389, -1}";
}
);
layerId = "7E05DFED-BC11-4724-94EA-0D0C4C5F5B37";
shapes = (
{
closed = 1;
nodes = (
(353.082,591,o),
(382.468,658,o),
(499.87,650,cs),
(624.272,642,o),
(621.687,564,o),
(621.687,564,c),
(589.313,437,o),
(540.553,233,o),
(521.786,69,c),
(521.786,69,o),
(502.8,-1,o),
(388.8,-1,cs),
(261.8,-1,o),
(249.583,83,o),
(249.583,83,c),
(256.355,227,o),
(299.714,429,o),
(353.082,591,c)
);
},
{
closed = 1;
nodes = (
(276.902,490,o),
(514.501,493,o),
(673.501,493,c),
(673.501,493,o),
(835.102,491,o),
(814.319,407,c),
(792.135,326,o),
(670.533,333,o),
(670.533,333,c),
(511.733,334,o),
(369.532,338,o),
(260.932,340,c),
(260.932,340,o),
(126.931,345,o),
(128.717,414,cs),
(128.705,474,o),
(237.103,486,o),
(237.103,486,c)
);
}
);
width = 779;
},
{
anchors = (
{
name = top;
position = "{460, 650}";
},
{
name = bottom;
position = "{328, -1}";
}
);
layerId = "99376340-70F9-4B1D-A253-B1BEDBF73140";
shapes = (
{
closed = 1;
nodes = (
(421.074,631,o),
(426.67,649,o),
(459.67,649,cs),
(492.67,649,o),
(487.875,625,o),
(487.875,625,c),
(442.902,490,o),
(381.563,183,o),
(363.996,20,c),
(363.996,20,o),
(357.2,1,o),
(328.2,1,cs),
(300.2,1,o),
(295.596,18,o),
(295.596,18,c),
(302.567,163,o),
(366.706,469,o),
(421.074,631,c)
);
},
{
closed = 1;
nodes = (
(228.704,479,o),
(461.704,479,o),
(620.704,479,c),
(620.704,479,o),
(650.505,473,o),
(647.309,457,cs),
(643.912,440,o),
(615.712,439,o),
(615.712,439,c),
(456.712,439,o),
(310.912,440,o),
(200.312,442,c),
(200.312,442,o),
(164.711,444,o),
(167.908,460,cs),
(170.505,473,o),
(187.705,474,o),
(187.705,474,c)
);
}
);
width = 631;
},
{
anchors = (
{
name = top;
position = "{377, 650}";
},
{
name = bottom;
position = "{260, -1}";
}
);
layerId = "F94FFD99-753E-41E1-86D1-359C136D3DE6";
shapes = (
{
closed = 1;
nodes = (
(275.082,591,o),
(299.468,658,o),
(376.87,650,cs),
(459.272,642,o),
(452.687,564,o),
(452.687,564,c),
(422.313,437,o),
(376.553,233,o),
(352.786,69,c),
(352.786,69,o),
(335.8,-1,o),
(259.8,-1,cs),
(174.8,-1,o),
(172.583,83,o),
(172.583,83,c),
(186.355,227,o),
(228.714,429,o),
(275.082,591,c)
);
},
{
closed = 1;
nodes = (
(217.902,490,o),
(376.501,493,o),
(482.501,493,c),
(482.501,493,o),
(590.102,491,o),
(570.319,407,cs),
(550.135,326,o),
(469.533,333,o),
(469.533,333,c),
(363.733,334,o),
(269.532,338,o),
(196.932,340,c),
(196.932,340,o),
(107.931,345,o),
(113.717,414,cs),
(117.705,474,o),
(191.103,486,o),
(191.103,486,c)
);
}
);
width = 520;
},
{
anchors = (
{
name = top;
position = "{350, 650}";
},
{
name = bottom;
position = "{219, -1}";
}
);
layerId = "E82ED6F4-5586-4A54-A016-86253174F252";
shapes = (
{
closed = 1;
nodes = (
(323.074,631,o),
(327.67,649,o),
(349.67,649,cs),
(371.67,649,o),
(366.875,625,o),
(366.875,625,c),
(327.902,490,o),
(266.563,183,o),
(243.996,20,c),
(243.996,20,o),
(238.2,1,o),
(219.2,1,cs),
(200.2,1,o),
(198.596,18,o),
(198.596,18,c),
(212.567,163,o),
(275.706,469,o),
(323.074,631,c)
);
},
{
closed = 1;
nodes = (
(184.704,479,o),
(339.704,479,o),
(445.704,479,c),
(445.704,479,o),
(465.505,473,o),
(462.309,457,cs),
(458.912,440,o),
(439.712,439,o),
(439.712,439,c),
(333.712,439,o),
(236.912,440,o),
(163.312,442,c),
(163.312,442,o),
(139.711,444,o),
(142.908,460,cs),
(145.505,473,o),
(156.705,474,o),
(156.705,474,c)
);
}
);
width = 421;
},
{
anchors = (
{
name = top;
position = "{370, 650}";
},
{
name = bottom;
position = "{389, -1}";
}
);
layerId = "1EECF98D-35CB-4836-8875-A967ACEC66D2";
shapes = (
{
closed = 1;
nodes = (
(235,591,o),
(251,658,o),
(370,650,cs),
(496,642,o),
(509,564,o),
(509,564,c),
(502,437,o),
(494,233,o),
(508,69,c),
(508,69,o),
(503,-1,o),
(389,-1,cs),
(262,-1,o),
(233,83,o),
(233,83,c),
(211,227,o),
(214,429,o),
(235,591,c)
);
},
{
closed = 1;
nodes = (
(179,490,o),
(416,493,o),
(575,493,c),
(575,493,o),
(737,491,o),
(733,407,cs),
(727,326,o),
(604,333,o),
(604,333,c),
(445,334,o),
(302,338,o),
(193,340,c),
(193,340,o),
(58,345,o),
(46,414,cs),
(34,474,o),
(140,486,o),
(140,486,c)
);
}
);
width = 779;
},
{
anchors = (
{
name = top;
position = "{329, 650}";
},
{
name = bottom;
position = "{327, -1}";
}
);
layerId = "1C3422F9-BFDE-4FE8-A46C-291A8D4071B9";
shapes = (
{
closed = 1;
nodes = (
(294,631,o),
(296,649,o),
(329,649,cs),
(362,649,o),
(362,625,o),
(362,625,c),
(344,490,o),
(344,183,o),
(359,20,c),
(359,20,o),
(356,1,o),
(327,1,cs),
(299,1,o),
(291,18,o),
(291,18,c),
(269,163,o),
(272,469,o),
(294,631,c)
);
},
{
closed = 1;
nodes = (
(132,479,o),
(365,479,o),
(524,479,c),
(524,479,o),
(555,473,o),
(555,457,cs),
(555,440,o),
(527,439,o),
(527,439,c),
(368,439,o),
(222,440,o),
(111,442,c),
(111,442,o),
(75,444,o),
(75,460,cs),
(75,473,o),
(92,474,o),
(92,474,c)
);
}
);
width = 630;
},
{
anchors = (
{
name = top;
position = "{247, 650}";
},
{
name = bottom;
position = "{260, -1}";
}
);
layerId = "EE7B1B97-935D-491C-911D-EA8B82785AFC";
shapes = (
{
closed = 1;
nodes = (
(157,591,o),
(168,658,o),
(247,650,cs),
(331,642,o),
(340,564,o),
(340,564,c),
(335,437,o),
(330,233,o),
(339,69,c),
(339,69,o),
(336,-1,o),
(260,-1,cs),
(175,-1,o),
(156,83,o),
(156,83,c),
(141,227,o),
(143,429,o),
(157,591,c)
);
},
{
closed = 1;
nodes = (
(120,490,o),
(278,493,o),
(384,493,c),
(384,493,o),
(492,491,o),
(489,407,cs),
(485,326,o),
(403,333,o),
(403,333,c),
(297,334,o),
(202,338,o),
(129,340,c),
(129,340,o),
(39,345,o),
(31,414,cs),
(23,474,o),
(94,486,o),
(94,486,c)
);
}
);
width = 520;
},
{
anchors = (
{
name = top;
position = "{219, 650}";
},
{
name = bottom;
position = "{218, -1}";
}
);
layerId = "6B947F8E-B64D-4F43-8779-746217178CEC";
shapes = (
{
closed = 1;
nodes = (
(196,631,o),
(197,649,o),
(219,649,cs),
(241,649,o),
(241,625,o),
(241,625,c),
(229,490,o),
(229,183,o),
(239,20,c),
(239,20,o),
(237,1,o),
(218,1,cs),
(199,1,o),
(194,18,o),
(194,18,c),
(179,163,o),
(181,469,o),
(196,631,c)
);
},
{
closed = 1;
nodes = (
(88,479,o),
(243,479,o),
(349,479,c),
(349,479,o),
(370,473,o),
(370,457,cs),
(370,440,o),
(351,439,o),
(351,439,c),
(245,439,o),
(148,440,o),
(74,442,c),
(74,442,o),
(50,444,o),
(50,460,cs),
(50,473,o),
(61,474,o),
(61,474,c)
);
}
);
width = 420;
}
);
leftKerningGroup = t;
rightKerningGroup = t;
unicode = 116;
},
{
glyphname = u;
layers = (
{
anchors = (
{
name = top;
position = "{423, 501}";
},
{
name = bottom;
position = "{482, 0}";
}
);
layerId = "FC2E0489-11A5-440C-8B4C-71CFB6149F63";
name = "#instance";
shapes = (
{
closed = 1;
nodes = (
(786,447,o),
(717,502,o),
(629,497,cs),
(503,491,o),
(507,426,o),
(507,426,c),
(509,399,o),
(515,379,o),
(534,336,c),
(554,296,o),
(552,204,o),
(536,186,c),
(503,162,o),
(402,150,o),
(363,191,c),
(329,233,o),
(326,309,o),
(344,376,c),
(344,376,o),
(366,468,o),
(231,492,cs),
(71,520,o),
(60,422,o),
(60,422,c),
(41,335,o),
(41,283,o),
(62,219,c),
(120,68,o),
(272,21,o),
(359,7,c),
(515,-24,o),
(713,10,o),
(806,85,c),
(870,151,o),
(896,202,o),
(873,311,c),
(857,371,o),
(815,423,o),
(786,447,c)
);
}
);
width = 927;
},
{
anchors = (
{
name = top;
position = "{523, 501}";
},
{
name = bottom;
position = "{482, 0}";
}
);
layerId = "7E05DFED-BC11-4724-94EA-0D0C4C5F5B37";
shapes = (
{
closed = 1;
nodes = (
(875.311,447,o),
(817.3,502,o),
(728.301,497,cs),
(601.102,491,o),
(592.115,426,o),
(592.115,426,c),
(588.72,399,o),
(590.724,379,o),
(601.133,336,c),
(613.141,296,o),
(592.759,204,o),
(573.163,186,c),
(535.368,162,o),
(431.97,150,o),
(401.162,191,c),
(375.553,233,o),
(387.738,309,o),
(419.125,376,c),
(419.125,376,o),
(459.506,468,o),
(329.302,492,cs),
(174.896,520,o),
(144.316,422,o),
(144.316,422,c),
(107.933,335,o),
(97.543,283,o),
(105.756,219,c),
(133.586,68,o),
(276.196,21,o),
(360.399,7,c),
(510.205,-24,o),
(714.998,10,o),
(822.983,85,c),
(900.17,151,o),
(936.36,202,o),
(935.138,311,c),
(931.126,371,o),
(899.515,423,o),
(875.311,447,c)
);
}
);
width = 927;
},
{
anchors = (
{
name = top;
position = "{480, 501}";
},
{
name = bottom;
position = "{395, 38}";
}
);
layerId = "99376340-70F9-4B1D-A253-B1BEDBF73140";
shapes = (
{
closed = 1;
nodes = (
(713.304,482,o),
(706.501,493,o),
(684.902,490,cs),
(664.303,487,o),
(667.105,476,o),
(667.105,476,c),
(671.111,446,o),
(691.732,339,o),
(682.148,261,c),
(666.366,172,o),
(604.58,98,o),
(468.19,51,c),
(359.996,20,o),
(274.392,42,o),
(218.973,135,cs),
(181.961,195,o),
(201.139,306,o),
(253.111,446,c),
(253.111,446,o),
(251.707,464,o),
(224.506,468,c),
(193.106,471,o),
(183.709,454,o),
(183.709,454,c),
(147.526,368,o),
(124.743,284,o),
(128.558,208,cs),
(133.576,118,o),
(176.99,50,o),
(277.398,12,c),
(409.405,-23,o),
(551.597,13,o),
(639.584,78,c),
(714.373,137,o),
(757.357,217,o),
(756.935,325,c),
(751.723,384,o),
(740.512,438,o),
(713.304,482,c)
);
}
);
width = 775;
},
{
anchors = (
{
name = top;
position = "{382, 501}";
},
{
name = bottom;
position = "{321, 0}";
}
);
layerId = "F94FFD99-753E-41E1-86D1-359C136D3DE6";
shapes = (
{
closed = 1;
nodes = (
(613.311,447,o),
(578.3,502,o),
(518.301,497,cs),
(433.102,491,o),
(423.115,426,o),
(423.115,426,c),
(418.72,399,o),
(418.724,379,o),
(423.133,336,cs),
(428.141,296,o),
(408.759,204,o),
(394.163,186,c),
(367.368,162,o),
(297.97,150,o),
(280.162,191,c),
(265.553,233,o),
(278.738,309,o),
(304.125,376,c),
(304.125,376,o),
(337.506,468,o),
(252.302,492,cs),
(150.896,520,o),
(124.316,422,o),
(124.316,422,c),
(93.933,335,o),
(83.543,283,o),
(84.756,219,c),
(93.586,68,o),
(185.196,21,o),
(240.399,7,c),
(338.205,-24,o),
(476.998,10,o),
(553.983,85,c),
(610.17,151,o),
(637.36,202,o),
(644.138,311,c),
(645.126,371,o),
(627.515,423,o),
(613.311,447,c)
);
}
);
width = 618;
},
{
anchors = (
{
name = top;
position = "{353, 501}";
},
{
name = bottom;
position = "{266, 38}";
}
);
layerId = "E82ED6F4-5586-4A54-A016-86253174F252";
shapes = (
{
closed = 1;
nodes = (
(507.304,482,o),
(503.501,493,o),
(488.902,490,cs),
(475.303,487,o),
(476.105,476,o),
(476.105,476,c),
(477.111,446,o),
(483.732,339,o),
(472.148,261,c),
(455.366,172,o),
(409.58,98,o),
(315.19,51,c),
(240.996,20,o),
(185.392,42,o),
(154.973,135,c),
(133.961,195,o),
(154.139,306,o),
(198.111,446,c),
(198.111,446,o),
(198.707,464,o),
(180.506,468,c),
(160.106,471,o),
(152.709,454,o),
(152.709,454,c),
(122.526,368,o),
(101.743,284,o),
(99.558,208,cs),
(96.576,118,o),
(120.99,50,o),
(185.398,12,c),
(271.405,-23,o),
(368.597,13,o),
(431.584,78,c),
(485.373,137,o),
(519.357,217,o),
(525.935,325,c),
(526.723,384,o),
(522.512,438,o),
(507.304,482,c)
);
}
);
width = 517;
},
{
anchors = (
{
name = top;
position = "{423, 501}";
},
{
name = bottom;
position = "{482, 0}";
}
);
layerId = "1EECF98D-35CB-4836-8875-A967ACEC66D2";
shapes = (
{
closed = 1;
nodes = (
(786,447,o),
(717,502,o),
(629,497,cs),
(503,491,o),
(507,426,o),
(507,426,c),
(509,399,o),
(515,379,o),
(534,336,cs),
(554,296,o),
(552,204,o),
(536,186,c),
(503,162,o),
(402,150,o),
(363,191,c),
(329,233,o),
(326,309,o),
(344,376,c),
(344,376,o),
(366,468,o),
(231,492,cs),
(71,520,o),
(60,422,o),
(60,422,c),
(41,335,o),
(41,283,o),
(62,219,c),
(120,68,o),
(272,21,o),
(359,7,c),
(515,-24,o),
(713,10,o),
(806,85,c),
(870,151,o),
(896,202,o),
(873,311,c),
(857,371,o),
(815,423,o),
(786,447,c)
);
}
);
width = 927;
},
{
anchors = (
{
name = top;
position = "{380, 501}";
},
{
name = bottom;
position = "{387, 38}";
}
);
layerId = "1C3422F9-BFDE-4FE8-A46C-291A8D4071B9";
shapes = (
{
closed = 1;
nodes = (
(617,482,o),
(608,493,o),
(587,490,cs),
(567,487,o),
(572,476,o),
(572,476,c),
(582,446,o),
(624,339,o),
(630,261,c),
(632,172,o),
(585,98,o),
(458,51,c),
(356,20,o),
(266,42,o),
(192,135,c),
(143,195,o),
(140,306,o),
(164,446,c),
(164,446,o),
(159,464,o),
(131,468,c),
(99,471,o),
(93,454,o),
(93,454,c),
(74,368,o),
(68,284,o),
(87,208,cs),
(110,118,o),
(167,50,o),
(275,12,c),
(414,-23,o),
(549,13,o),
(624,78,c),
(687,137,o),
(714,217,o),
(692,325,c),
(675,384,o),
(653,438,o),
(617,482,c)
);
}
);
width = 775;
},
{
anchors = (
{
name = top;
position = "{282, 501}";
},
{
name = bottom;
position = "{321, 0}";
}
);
layerId = "EE7B1B97-935D-491C-911D-EA8B82785AFC";
shapes = (
{
closed = 1;
nodes = (
(524,447,o),
(478,502,o),
(419,497,cs),
(335,491,o),
(338,426,o),
(338,426,c),
(339,399,o),
(343,379,o),
(356,336,cs),
(369,296,o),
(368,204,o),
(357,186,c),
(335,162,o),
(268,150,o),
(242,191,c),
(219,233,o),
(217,309,o),
(229,376,c),
(229,376,o),
(244,468,o),
(154,492,cs),
(47,520,o),
(40,422,o),
(40,422,c),
(27,335,o),
(27,283,o),
(41,219,c),
(80,68,o),
(181,21,o),
(239,7,c),
(343,-24,o),
(475,10,o),
(537,85,c),
(580,151,o),
(597,202,o),
(582,311,c),
(571,371,o),
(543,423,o),
(524,447,c)
);
}
);
width = 618;
},
{
anchors = (
{
name = top;
position = "{253, 501}";
},
{
name = bottom;
position = "{258, 38}";
}
);
layerId = "6B947F8E-B64D-4F43-8779-746217178CEC";
shapes = (
{
closed = 1;
nodes = (
(411,482,o),
(405,493,o),
(391,490,cs),
(378,487,o),
(381,476,o),
(381,476,c),
(388,446,o),
(416,339,o),
(420,261,c),
(421,172,o),
(390,98,o),
(305,51,c),
(237,20,o),
(177,42,o),
(128,135,c),
(95,195,o),
(93,306,o),
(109,446,c),
(109,446,o),
(106,464,o),
(87,468,c),
(66,471,o),
(62,454,o),
(62,454,c),
(49,368,o),
(45,284,o),
(58,208,cs),
(73,118,o),
(111,50,o),
(183,12,c),
(276,-23,o),
(366,13,o),
(416,78,c),
(458,137,o),
(476,217,o),
(461,325,c),
(450,384,o),
(435,438,o),
(411,482,c)
);
}
);
width = 517;
}
);
leftKerningGroup = u;
rightKerningGroup = u1;
unicode = 117;
},
{
glyphname = v;
layers = (
{
layerId = "FC2E0489-11A5-440C-8B4C-71CFB6149F63";
name = "#instance";
shapes = (
{
closed = 1;
nodes = (
(47,386,l),
(47,386,o),
(23,471,o),
(145,482,cs),
(263,493,o),
(319,426,o),
(319,426,c),
(358,350,l),
(398,279,o),
(413,230,o),
(424,217,cs),
(425,215,o),
(449,249,o),
(472,280,c),
(503,338,o),
(515,361,o),
(527,413,c),
(527,413,o),
(538,491,o),
(679,481,cs),
(827,471,o),
(811,384,o),
(811,384,c),
(805,301,o),
(746,202,o),
(724,180,c),
(638,38,o),
(517,-6,o),
(415,-2,cs),
(358,0,o),
(239,20,o),
(182,116,c)
);
}
);
width = 857;
},
{
layerId = "7E05DFED-BC11-4724-94EA-0D0C4C5F5B37";
shapes = (
{
closed = 1;
nodes = (
(125,386,l),
(125,386,o),
(118,471,o),
(242,482,cs),
(363,493,o),
(405,426,o),
(405,426,c),
(429,350,l),
(455,279,o),
(460,230,o),
(468,217,cs),
(469,215,o),
(500,249,o),
(529,280,c),
(572,338,o),
(588,361,o),
(611,413,c),
(611,413,o),
(637,491,o),
(776,481,cs),
(922,471,o),
(889,384,o),
(889,384,c),
(866,301,o),
(787,202,o),
(761,180,c),
(647,38,o),
(517,-6,o),
(416,-2,cs),
(359,0,o),
(244,20,o),
(206,116,c)
);
}
);
width = 858;
},
{
layerId = "99376340-70F9-4B1D-A253-B1BEDBF73140";
shapes = (
{
closed = 1;
nodes = (
(168,456,l),
(168,456,o),
(163,472,o),
(194,476,cs),
(225,481,o),
(236,459,o),
(236,459,c),
(285,187,l),
(292,112,o),
(308,59,o),
(333,44,c),
(368,46,o),
(426,93,o),
(510,201,c),
(584,302,o),
(631,397,o),
(655,462,c),
(655,462,o),
(660,484,o),
(693,482,c),
(726,479,o),
(721,455,o),
(721,455,c),
(697,372,o),
(651,286,o),
(587,196,c),
(482,58,o),
(398,-5,o),
(333,2,c),
(277,5,o),
(242,32,o),
(227,86,c)
);
}
);
width = 706;
},
{
layerId = "F94FFD99-753E-41E1-86D1-359C136D3DE6";
shapes = (
{
closed = 1;
nodes = (
(109,386,l),
(109,386,o),
(110,471,o),
(193,482,cs),
(275,493,o),
(298,426,o),
(298,426,c),
(309,350,l),
(322,279,o),
(322,230,o),
(326,217,cs),
(327,215,o),
(350,249,o),
(371,280,c),
(404,338,o),
(416,361,o),
(435,413,c),
(435,413,o),
(457,491,o),
(549,481,cs),
(646,471,o),
(618,384,o),
(618,384,c),
(597,301,o),
(538,202,o),
(519,180,c),
(434,38,o),
(344,-6,o),
(277,-2,cs),
(239,0,o),
(164,20,o),
(145,116,c)
);
}
);
width = 572;
},
{
layerId = "E82ED6F4-5586-4A54-A016-86253174F252";
shapes = (
{
closed = 1;
nodes = (
(142,456,l),
(142,456,o),
(140,472,o),
(161,476,cs),
(182,481,o),
(188,459,o),
(188,459,c),
(202,187,l),
(202,112,o),
(209,59,o),
(225,44,c),
(248,46,o),
(290,93,o),
(353,201,c),
(409,302,o),
(447,397,o),
(467,462,c),
(467,462,o),
(472,484,o),
(494,482,c),
(516,479,o),
(511,455,o),
(511,455,c),
(489,372,o),
(453,286,o),
(404,196,c),
(325,58,o),
(265,-5,o),
(222,2,c),
(185,5,o),
(163,32,o),
(157,86,c)
);
}
);
width = 471;
},
{
layerId = "1EECF98D-35CB-4836-8875-A967ACEC66D2";
shapes = (
{
closed = 1;
nodes = (
(47,386,l),
(47,386,o),
(23,471,o),
(145,482,cs),
(263,493,o),
(319,426,o),
(319,426,c),
(358,350,l),
(398,279,o),
(413,230,o),
(424,217,cs),
(425,215,o),
(449,249,o),
(472,280,c),
(503,338,o),
(515,361,o),
(527,413,c),
(527,413,o),
(538,491,o),
(679,481,cs),
(827,471,o),
(811,384,o),
(811,384,c),
(805,301,o),
(746,202,o),
(724,180,c),
(638,38,o),
(517,-6,o),
(415,-2,cs),
(358,0,o),
(239,20,o),
(182,116,c)
);
}
);
width = 857;
},
{
layerId = "1C3422F9-BFDE-4FE8-A46C-291A8D4071B9";
shapes = (
{
closed = 1;
nodes = (
(76,456,l),
(76,456,o),
(68,472,o),
(98,476,cs),
(128,481,o),
(143,459,o),
(143,459,c),
(247,187,l),
(269,112,o),
(295,59,o),
(323,44,c),
(358,46,o),
(406,93,o),
(469,201,c),
(523,302,o),
(551,397,o),
(562,462,c),
(562,462,o),
(562,484,o),
(596,482,c),
(629,479,o),
(629,455,o),
(629,455,c),
(622,372,o),
(593,286,o),
(547,196,c),
(469,58,o),
(398,-5,o),
(332,2,c),
(275,5,o),
(235,32,o),
(209,86,c)
);
}
);
width = 704;
},
{
layerId = "EE7B1B97-935D-491C-911D-EA8B82785AFC";
shapes = (
{
closed = 1;
nodes = (
(32,386,l),
(32,386,o),
(16,471,o),
(97,482,cs),
(176,493,o),
(213,426,o),
(213,426,c),
(239,350,l),
(266,279,o),
(276,230,o),
(283,217,cs),
(284,215,o),
(300,249,o),
(315,280,c),
(336,338,o),
(344,361,o),
(352,413,c),
(352,413,o),
(359,491,o),
(453,481,cs),
(552,471,o),
(541,384,o),
(541,384,c),
(537,301,o),
(498,202,o),
(483,180,c),
(426,38,o),
(345,-6,o),
(277,-2,cs),
(239,0,o),
(160,20,o),
(122,116,c)
);
}
);
width = 572;
},
{
layerId = "6B947F8E-B64D-4F43-8779-746217178CEC";
shapes = (
{
closed = 1;
nodes = (
(51,456,l),
(51,456,o),
(46,472,o),
(66,476,cs),
(86,481,o),
(96,459,o),
(96,459,c),
(165,187,l),
(180,112,o),
(197,59,o),
(216,44,c),
(239,46,o),
(271,93,o),
(313,201,c),
(349,302,o),
(368,397,o),
(375,462,c),
(375,462,o),
(375,484,o),
(398,482,c),
(420,479,o),
(420,455,o),
(420,455,c),
(415,372,o),
(396,286,o),
(365,196,c),
(313,58,o),
(266,-5,o),
(222,2,c),
(184,5,o),
(157,32,o),
(140,86,c)
);
}
);
width = 470;
}
);
leftKerningGroup = v;
rightKerningGroup = v;
unicode = 118;
},
{
glyphname = w;
layers = (
{
anchors = (
{
name = top;
position = "{665, 501}";
}
);
layerId = "FC2E0489-11A5-440C-8B4C-71CFB6149F63";
name = "#instance";
shapes = (
{
closed = 1;
nodes = (
(539,386,l),
(539,386,o),
(514,471,o),
(637,482,cs),
(755,493,o),
(811,426,o),
(811,426,c),
(850,350,l),
(890,279,o),
(905,230,o),
(916,217,cs),
(917,215,o),
(941,249,o),
(964,280,c),
(995,338,o),
(1007,361,o),
(1019,413,c),
(1019,413,o),
(1030,491,o),
(1171,481,cs),
(1319,471,o),
(1303,384,o),
(1303,384,c),
(1295,301,o),
(1238,202,o),
(1216,180,c),
(1130,38,o),
(1009,-6,o),
(907,-2,cs),
(850,0,o),
(730,20,o),
(674,116,c)
);
},
{
closed = 1;
nodes = (
(47,386,l),
(47,386,o),
(23,471,o),
(145,482,cs),
(263,493,o),
(319,426,o),
(319,426,c),
(358,350,l),
(398,279,o),
(413,230,o),
(424,217,cs),
(425,215,o),
(449,249,o),
(472,280,c),
(503,338,o),
(515,361,o),
(527,413,c),
(527,413,o),
(538,491,o),
(679,481,cs),
(827,471,o),
(811,384,o),
(811,384,c),
(805,301,o),
(746,202,o),
(724,180,c),
(638,38,o),
(517,-6,o),
(415,-2,cs),
(358,0,o),
(239,20,o),
(182,116,c)
);
}
);
width = 1349;
},
{
anchors = (
{
name = top;
position = "{765, 501}";
}
);
layerId = "7E05DFED-BC11-4724-94EA-0D0C4C5F5B37";
shapes = (
{
closed = 1;
nodes = (
(616.123,386,l),
(616.123,386,o),
(608.106,471,o),
(733.304,482,cs),
(853.501,493,o),
(896.115,426,o),
(896.115,426,c),
(919.93,350,l),
(945.744,279,o),
(950.954,230,o),
(959.357,217,cs),
(959.957,215,o),
(990.75,249,o),
(1019.944,280,c),
(1062.532,338,o),
(1079.128,361,o),
(1101.517,413,c),
(1101.517,413,o),
(1128.102,491,o),
(1267.104,481,cs),
(1413.106,471,o),
(1379.723,384,o),
(1379.723,384,c),
(1355.14,301,o),
(1278.36,202,o),
(1251.964,180,c),
(1137.592,38,o),
(1007.801,-6,o),
(906.6,-2,cs),
(850,0,o),
(733.996,20,o),
(697.177,116,c)
);
},
{
closed = 1;
nodes = (
(124.123,386,l),
(124.123,386,o),
(117.106,471,o),
(241.304,482,cs),
(361.501,493,o),
(404.115,426,o),
(404.115,426,c),
(427.93,350,l),
(453.744,279,o),
(458.954,230,o),
(467.357,217,cs),
(467.957,215,o),
(498.75,249,o),
(527.944,280,c),
(570.532,338,o),
(587.128,361,o),
(609.517,413,c),
(609.517,413,o),
(636.102,491,o),
(775.104,481,cs),
(921.106,471,o),
(887.723,384,o),
(887.723,384,c),
(865.14,301,o),
(786.36,202,o),
(759.964,180,c),
(645.592,38,o),
(515.801,-6,o),
(414.6,-2,cs),
(358,0,o),
(242.996,20,o),
(205.177,116,c)
);
}
);
width = 1349;
},
{
anchors = (
{
name = top;
position = "{692, 501}";
}
);
layerId = "99376340-70F9-4B1D-A253-B1BEDBF73140";
shapes = (
{
closed = 1;
nodes = (
(660.109,456,l),
(660.109,456,o),
(660.505,473,o),
(678.105,476,c),
(709.503,483,o),
(720.908,460,o),
(720.908,460,c),
(767.363,187,l),
(776.378,112,o),
(790.788,59,o),
(816.791,44,c),
(851.191,46,o),
(907.581,93,o),
(993.16,201,c),
(1067.34,302,o),
(1115.321,397,o),
(1138.308,462,c),
(1138.308,462,o),
(1142.703,484,o),
(1175.304,482,cs),
(1209.704,479,o),
(1204.909,455,o),
(1204.909,455,c),
(1180.326,372,o),
(1135.143,286,o),
(1070.161,196,c),
(964.588,58,o),
(882.001,-5,o),
(817.4,2,c),
(760.999,5,o),
(724.394,32,o),
(711.183,86,c)
);
},
{
closed = 1;
nodes = (
(167.109,456,l),
(167.109,456,o),
(162.306,472,o),
(193.105,476,cs),
(224.104,481,o),
(234.708,459,o),
(234.708,459,c),
(284.363,187,l),
(291.378,112,o),
(306.788,59,o),
(331.791,44,c),
(367.191,46,o),
(424.581,93,o),
(509.16,201,c),
(583.34,302,o),
(630.321,397,o),
(654.308,462,c),
(654.308,462,o),
(658.703,484,o),
(692.304,482,c),
(724.704,479,o),
(719.909,455,o),
(719.909,455,c),
(696.326,372,o),
(650.143,286,o),
(586.161,196,c),
(480.588,58,o),
(397.001,-5,o),
(332.4,2,c),
(275.999,5,o),
(241.394,32,o),
(226.183,86,c)
);
}
);
width = 1189;
},
{
anchors = (
{
name = top;
position = "{544, 501}";
}
);
layerId = "F94FFD99-753E-41E1-86D1-359C136D3DE6";
shapes = (
{
closed = 1;
nodes = (
(437.123,386,l),
(437.123,386,o),
(437.106,471,o),
(521.304,482,cs),
(602.501,493,o),
(626.115,426,o),
(626.115,426,c),
(636.93,350,l),
(649.744,279,o),
(649.954,230,o),
(654.357,217,cs),
(654.957,215,o),
(677.75,249,o),
(698.944,280,c),
(731.532,338,o),
(744.128,361,o),
(762.517,413,c),
(762.517,413,o),
(785.102,491,o),
(877.104,481,cs),
(974.106,471,o),
(945.723,384,o),
(945.723,384,c),
(924.14,301,o),
(866.36,202,o),
(846.964,180,c),
(761.592,38,o),
(671.801,-6,o),
(604.6,-2,cs),
(567,0,o),
(490.996,20,o),
(473.177,116,c)
);
},
{
closed = 1;
nodes = (
(109.123,386,l),
(109.123,386,o),
(110.106,471,o),
(193.304,482,cs),
(274.501,493,o),
(298.115,426,o),
(298.115,426,c),
(308.93,350,l),
(321.744,279,o),
(321.954,230,o),
(326.357,217,cs),
(326.957,215,o),
(349.75,249,o),
(370.944,280,c),
(403.532,338,o),
(416.128,361,o),
(434.517,413,c),
(434.517,413,o),
(457.102,491,o),
(549.104,481,cs),
(646.106,471,o),
(617.723,384,o),
(617.723,384,c),
(597.14,301,o),
(538.36,202,o),
(518.964,180,c),
(433.592,38,o),
(343.801,-6,o),
(276.6,-2,cs),
(239,0,o),
(163.996,20,o),
(145.177,116,c)
);
}
);
width = 900;
},
{
anchors = (
{
name = top;
position = "{495, 501}";
}
);
layerId = "E82ED6F4-5586-4A54-A016-86253174F252";
shapes = (
{
closed = 1;
nodes = (
(471.109,456,l),
(471.109,456,o),
(472.505,473,o),
(484.105,476,c),
(505.503,483,o),
(511.908,460,o),
(511.908,460,c),
(524.363,187,l),
(525.378,112,o),
(531.788,59,o),
(547.791,44,c),
(571.191,46,o),
(611.581,93,o),
(676.16,201,c),
(732.34,302,o),
(770.321,397,o),
(790.308,462,c),
(790.308,462,o),
(794.703,484,o),
(816.304,482,cs),
(838.704,479,o),
(833.909,455,o),
(833.909,455,c),
(812.326,372,o),
(776.143,286,o),
(727.161,196,c),
(647.588,58,o),
(588.001,-5,o),
(545.4,2,c),
(507.999,5,o),
(485.394,32,o),
(480.183,86,c)
);
},
{
closed = 1;
nodes = (
(142.109,456,l),
(142.109,456,o),
(140.306,472,o),
(161.105,476,cs),
(182.104,481,o),
(187.708,459,o),
(187.708,459,c),
(202.363,187,l),
(202.378,112,o),
(208.788,59,o),
(224.791,44,c),
(248.191,46,o),
(289.581,93,o),
(353.16,201,c),
(409.34,302,o),
(447.321,397,o),
(467.308,462,c),
(467.308,462,o),
(471.703,484,o),
(494.304,482,c),
(515.704,479,o),
(510.909,455,o),
(510.909,455,c),
(489.326,372,o),
(453.143,286,o),
(404.161,196,c),
(324.588,58,o),
(265.001,-5,o),
(222.4,2,c),
(184.999,5,o),
(163.394,32,o),
(157.183,86,c)
);
}
);
width = 793;
},
{
anchors = (
{
name = top;
position = "{665, 501}";
}
);
layerId = "1EECF98D-35CB-4836-8875-A967ACEC66D2";
shapes = (
{
closed = 1;
nodes = (
(539,386,l),
(539,386,o),
(514,471,o),
(637,482,cs),
(755,493,o),
(811,426,o),
(811,426,c),
(850,350,l),
(890,279,o),
(905,230,o),
(916,217,cs),
(917,215,o),
(941,249,o),
(964,280,c),
(995,338,o),
(1007,361,o),
(1019,413,c),
(1019,413,o),
(1030,491,o),
(1171,481,cs),
(1319,471,o),
(1303,384,o),
(1303,384,c),
(1295,301,o),
(1238,202,o),
(1216,180,c),
(1130,38,o),
(1009,-6,o),
(907,-2,cs),
(850,0,o),
(730,20,o),
(674,116,c)
);
},
{
closed = 1;
nodes = (
(47,386,l),
(47,386,o),
(23,471,o),
(145,482,cs),
(263,493,o),
(319,426,o),
(319,426,c),
(358,350,l),
(398,279,o),
(413,230,o),
(424,217,cs),
(425,215,o),
(449,249,o),
(472,280,c),
(503,338,o),
(515,361,o),
(527,413,c),
(527,413,o),
(538,491,o),
(679,481,cs),
(827,471,o),
(811,384,o),
(811,384,c),
(805,301,o),
(746,202,o),
(724,180,c),
(638,38,o),
(517,-6,o),
(415,-2,cs),
(358,0,o),
(239,20,o),
(182,116,c)
);
}
);
width = 1349;
},
{
anchors = (
{
name = top;
position = "{592, 501}";
}
);
layerId = "1C3422F9-BFDE-4FE8-A46C-291A8D4071B9";
shapes = (
{
closed = 1;
nodes = (
(569,456,l),
(569,456,o),
(566,473,o),
(583,476,c),
(613,483,o),
(629,460,o),
(629,460,c),
(730,187,l),
(754,112,o),
(779,59,o),
(808,44,c),
(842,46,o),
(889,93,o),
(953,201,c),
(1007,302,o),
(1036,397,o),
(1046,462,c),
(1046,462,o),
(1046,484,o),
(1079,482,cs),
(1114,479,o),
(1114,455,o),
(1114,455,c),
(1106,372,o),
(1078,286,o),
(1031,196,c),
(953,58,o),
(883,-5,o),
(817,2,c),
(760,5,o),
(718,32,o),
(694,86,c)
);
},
{
closed = 1;
nodes = (
(76,456,l),
(76,456,o),
(68,472,o),
(98,476,cs),
(128,481,o),
(143,459,o),
(143,459,c),
(247,187,l),
(269,112,o),
(295,59,o),
(323,44,c),
(358,46,o),
(406,93,o),
(469,201,c),
(523,302,o),
(551,397,o),
(562,462,c),
(562,462,o),
(562,484,o),
(596,482,c),
(629,479,o),
(629,455,o),
(629,455,c),
(622,372,o),
(593,286,o),
(547,196,c),
(469,58,o),
(398,-5,o),
(332,2,c),
(275,5,o),
(235,32,o),
(209,86,c)
);
}
);
width = 1189;
},
{
anchors = (
{
name = top;
position = "{444, 501}";
}
);
layerId = "EE7B1B97-935D-491C-911D-EA8B82785AFC";
shapes = (
{
closed = 1;
nodes = (
(360,386,l),
(360,386,o),
(343,471,o),
(425,482,cs),
(504,493,o),
(541,426,o),
(541,426,c),
(567,350,l),
(594,279,o),
(604,230,o),
(611,217,cs),
(612,215,o),
(628,249,o),
(643,280,c),
(664,338,o),
(672,361,o),
(680,413,c),
(680,413,o),
(687,491,o),
(781,481,cs),
(880,471,o),
(869,384,o),
(869,384,c),
(864,301,o),
(826,202,o),
(811,180,c),
(754,38,o),
(673,-6,o),
(605,-2,cs),
(567,0,o),
(487,20,o),
(450,116,c)
);
},
{
closed = 1;
nodes = (
(32,386,l),
(32,386,o),
(16,471,o),
(97,482,cs),
(176,493,o),
(213,426,o),
(213,426,c),
(239,350,l),
(266,279,o),
(276,230,o),
(283,217,cs),
(284,215,o),
(300,249,o),
(315,280,c),
(336,338,o),
(344,361,o),
(352,413,c),
(352,413,o),
(359,491,o),
(453,481,cs),
(552,471,o),
(541,384,o),
(541,384,c),
(537,301,o),
(498,202,o),
(483,180,c),
(426,38,o),
(345,-6,o),
(277,-2,cs),
(239,0,o),
(160,20,o),
(122,116,c)
);
}
);
width = 900;
},
{
anchors = (
{
name = top;
position = "{395, 501}";
}
);
layerId = "6B947F8E-B64D-4F43-8779-746217178CEC";
shapes = (
{
closed = 1;
nodes = (
(380,456,l),
(380,456,o),
(378,473,o),
(389,476,c),
(409,483,o),
(420,460,o),
(420,460,c),
(487,187,l),
(503,112,o),
(520,59,o),
(539,44,c),
(562,46,o),
(593,93,o),
(636,201,c),
(672,302,o),
(691,397,o),
(698,462,c),
(698,462,o),
(698,484,o),
(720,482,cs),
(743,479,o),
(743,455,o),
(743,455,c),
(738,372,o),
(719,286,o),
(688,196,c),
(636,58,o),
(589,-5,o),
(545,2,c),
(507,5,o),
(479,32,o),
(463,86,c)
);
},
{
closed = 1;
nodes = (
(51,456,l),
(51,456,o),
(46,472,o),
(66,476,cs),
(86,481,o),
(96,459,o),
(96,459,c),
(165,187,l),
(180,112,o),
(197,59,o),
(216,44,c),
(239,46,o),
(271,93,o),
(313,201,c),
(349,302,o),
(368,397,o),
(375,462,c),
(375,462,o),
(375,484,o),
(398,482,c),
(420,479,o),
(420,455,o),
(420,455,c),
(415,372,o),
(396,286,o),
(365,196,c),
(313,58,o),
(266,-5,o),
(222,2,c),
(184,5,o),
(157,32,o),
(140,86,c)
);
}
);
width = 793;
}
);
leftKerningGroup = v;
rightKerningGroup = v;
unicode = 119;
},
{
glyphname = x;
layers = (
{
layerId = "FC2E0489-11A5-440C-8B4C-71CFB6149F63";
name = "#instance";
shapes = (
{
closed = 1;
nodes = (
(72,131,o),
(-9,65,o),
(111,10,cs),
(207,-34,o),
(291,8,o),
(291,8,c),
(353,48,o),
(398,76,o),
(431,101,c),
(528,23,l),
(528,23,o),
(596,-26,o),
(693,-4,cs),
(825,25,o),
(759,98,o),
(759,98,c),
(734,125,o),
(689,153,o),
(603,228,c),
(663,277,o),
(677,282,o),
(771,368,c),
(771,368,o),
(831,442,o),
(707,485,cs),
(603,522,o),
(531,473,o),
(531,473,c),
(504,455,o),
(486,438,o),
(411,377,c),
(371,410,o),
(308,459,o),
(282,468,c),
(282,468,o),
(203,506,o),
(122,476,cs),
(35,444,o),
(83,384,o),
(83,384,c),
(162,309,o),
(173,309,o),
(245,251,c),
(191,208,o),
(158,195,o),
(72,131,c)
);
}
);
width = 831;
},
{
layerId = "7E05DFED-BC11-4724-94EA-0D0C4C5F5B37";
shapes = (
{
closed = 1;
nodes = (
(98,131,o),
(4,65,o),
(113,10,cs),
(200,-34,o),
(293,8,o),
(293,8,c),
(363,48,o),
(413,76,o),
(451,101,c),
(533,23,l),
(533,23,o),
(591,-26,o),
(692,-4,cs),
(830,25,o),
(779,98,o),
(779,98,c),
(759,125,o),
(720,153,o),
(649,228,c),
(718,277,o),
(733,282,o),
(845,368,c),
(845,368,o),
(919,442,o),
(804,485,cs),
(707,522,o),
(626,473,o),
(626,473,c),
(595,455,o),
(574,438,o),
(486,377,c),
(453,410,o),
(400,459,o),
(376,468,c),
(376,468,o),
(304,506,o),
(217,476,cs),
(124,444,o),
(160,384,o),
(160,384,c),
(224,309,o),
(235,309,o),
(295,251,c),
(233,208,o),
(197,195,o),
(98,131,c)
);
}
);
width = 831;
},
{
layerId = "99376340-70F9-4B1D-A253-B1BEDBF73140";
shapes = (
{
closed = 1;
nodes = (
(93,33,o),
(64,12,o),
(86,0,cs),
(108,-12,o),
(139,2,o),
(139,2,c),
(216,49,o),
(320,122,o),
(432,200,c),
(604,9,l),
(604,9,o),
(624,-5,o),
(649,1,cs),
(675,8,o),
(670,24,o),
(670,24,c),
(641,61,o),
(559,150,o),
(481,236,c),
(550,285,o),
(664,375,o),
(779,468,c),
(779,468,o),
(793,491,o),
(768,499,cs),
(743,508,o),
(718,490,o),
(718,490,c),
(641,426,o),
(547,354,o),
(444,277,c),
(386,348,o),
(322,415,o),
(259,480,c),
(259,480,o),
(238,491,o),
(218,483,cs),
(196,475,o),
(202,464,o),
(202,464,c),
(265,389,o),
(331,314,o),
(395,241,c),
(293,167,o),
(192,97,o),
(93,33,c)
);
}
);
width = 763;
},
{
layerId = "F94FFD99-753E-41E1-86D1-359C136D3DE6";
shapes = (
{
closed = 1;
nodes = (
(74,131,o),
(7,65,o),
(76,10,cs),
(131,-34,o),
(196,8,o),
(196,8,c),
(245,48,o),
(280,76,o),
(307,101,c),
(357,23,l),
(357,23,o),
(392,-26,o),
(461,-4,cs),
(555,25,o),
(526,98,o),
(526,98,c),
(514,125,o),
(490,153,o),
(448,228,c),
(497,277,o),
(507,282,o),
(588,368,c),
(588,368,o),
(642,442,o),
(568,485,cs),
(506,522,o),
(449,473,o),
(449,473,c),
(427,455,o),
(412,438,o),
(349,377,c),
(329,410,o),
(297,459,o),
(282,468,c),
(282,468,o),
(236,506,o),
(176,476,cs),
(112,444,o),
(132,384,o),
(132,384,c),
(170,309,o),
(177,309,o),
(213,251,c),
(169,208,o),
(144,195,o),
(74,131,c)
);
}
);
width = 554;
},
{
layerId = "E82ED6F4-5586-4A54-A016-86253174F252";
shapes = (
{
closed = 1;
nodes = (
(65,33,o),
(44,12,o),
(58,0,cs),
(72,-12,o),
(93,2,o),
(93,2,c),
(148,49,o),
(222,122,o),
(302,200,c),
(404,9,l),
(404,9,o),
(416,-5,o),
(433,1,cs),
(451,8,o),
(449,24,o),
(449,24,c),
(432,61,o),
(383,150,o),
(337,236,c),
(386,285,o),
(468,375,o),
(551,468,c),
(551,468,o),
(562,491,o),
(546,499,cs),
(530,508,o),
(512,490,o),
(512,490,c),
(456,426,o),
(389,354,o),
(315,277,c),
(281,348,o),
(243,415,o),
(205,480,c),
(205,480,o),
(192,491,o),
(178,483,cs),
(163,475,o),
(166,464,o),
(166,464,c),
(203,389,o),
(242,314,o),
(280,241,c),
(207,167,o),
(135,97,o),
(65,33,c)
);
}
);
width = 509;
},
{
layerId = "1EECF98D-35CB-4836-8875-A967ACEC66D2";
shapes = (
{
closed = 1;
nodes = (
(72,131,o),
(-9,65,o),
(111,10,cs),
(207,-34,o),
(291,8,o),
(291,8,c),
(353,48,o),
(398,76,o),
(431,101,c),
(528,23,l),
(528,23,o),
(596,-26,o),
(693,-4,cs),
(825,25,o),
(759,98,o),
(759,98,c),
(734,125,o),
(689,153,o),
(603,228,c),
(663,277,o),
(677,282,o),
(771,368,c),
(771,368,o),
(831,442,o),
(707,485,cs),
(603,522,o),
(531,473,o),
(531,473,c),
(504,455,o),
(486,438,o),
(411,377,c),
(371,410,o),
(308,459,o),
(282,468,c),
(282,468,o),
(203,506,o),
(122,476,cs),
(35,444,o),
(83,384,o),
(83,384,c),
(162,309,o),
(173,309,o),
(245,251,c),
(191,208,o),
(158,195,o),
(72,131,c)
);
}
);
width = 831;
},
{
layerId = "1C3422F9-BFDE-4FE8-A46C-291A8D4071B9";
shapes = (
{
closed = 1;
nodes = (
(86,33,o),
(62,12,o),
(86,0,cs),
(110,-12,o),
(139,2,o),
(139,2,c),
(206,49,o),
(296,122,o),
(392,200,c),
(602,9,l),
(602,9,o),
(625,-5,o),
(649,1,cs),
(673,8,o),
(665,24,o),
(665,24,c),
(629,61,o),
(529,150,o),
(434,236,c),
(493,285,o),
(589,375,o),
(685,468,c),
(685,468,o),
(695,491,o),
(668,499,cs),
(641,508,o),
(620,490,o),
(620,490,c),
(556,426,o),
(476,354,o),
(389,277,c),
(316,348,o),
(239,415,o),
(163,480,c),
(163,480,o),
(140,491,o),
(121,483,cs),
(101,475,o),
(109,464,o),
(109,464,c),
(187,389,o),
(268,314,o),
(347,241,c),
(260,167,o),
(173,97,o),
(86,33,c)
);
}
);
width = 762;
},
{
layerId = "EE7B1B97-935D-491C-911D-EA8B82785AFC";
shapes = (
{
closed = 1;
nodes = (
(48,131,o),
(-6,65,o),
(74,10,cs),
(138,-34,o),
(194,8,o),
(194,8,c),
(235,48,o),
(265,76,o),
(287,101,c),
(352,23,l),
(352,23,o),
(397,-26,o),
(462,-4,cs),
(550,25,o),
(506,98,o),
(506,98,c),
(489,125,o),
(459,153,o),
(402,228,c),
(442,277,o),
(451,282,o),
(514,368,c),
(514,368,o),
(554,442,o),
(471,485,cs),
(402,522,o),
(354,473,o),
(354,473,c),
(336,455,o),
(324,438,o),
(274,377,c),
(247,410,o),
(205,459,o),
(188,468,c),
(188,468,o),
(135,506,o),
(81,476,cs),
(23,444,o),
(55,384,o),
(55,384,c),
(108,309,o),
(115,309,o),
(163,251,c),
(127,208,o),
(105,195,o),
(48,131,c)
);
}
);
width = 554;
},
{
layerId = "6B947F8E-B64D-4F43-8779-746217178CEC";
shapes = (
{
closed = 1;
nodes = (
(58,33,o),
(42,12,o),
(58,0,cs),
(74,-12,o),
(93,2,o),
(93,2,c),
(138,49,o),
(198,122,o),
(262,200,c),
(402,9,l),
(402,9,o),
(417,-5,o),
(433,1,cs),
(449,8,o),
(444,24,o),
(444,24,c),
(420,61,o),
(353,150,o),
(290,236,c),
(329,285,o),
(393,375,o),
(457,468,c),
(457,468,o),
(464,491,o),
(446,499,cs),
(428,508,o),
(414,490,o),
(414,490,c),
(371,426,o),
(318,354,o),
(260,277,c),
(211,348,o),
(160,415,o),
(109,480,c),
(109,480,o),
(94,491,o),
(81,483,cs),
(68,475,o),
(73,464,o),
(73,464,c),
(125,389,o),
(179,314,o),
(232,241,c),
(174,167,o),
(116,97,o),
(58,33,c)
);
}
);
width = 509;
}
);
unicode = 120;
},
{
glyphname = y;
layers = (
{
anchors = (
{
name = top;
position = "{472, 501}";
}
);
layerId = "FC2E0489-11A5-440C-8B4C-71CFB6149F63";
name = "#instance";
shapes = (
{
closed = 1;
nodes = (
(592,455,o),
(611,498,o),
(710,498,c),
(811,499,o),
(862,440,o),
(862,440,c),
(914,291,o),
(919,180,o),
(907,0,c),
(887,-135,o),
(775,-206,o),
(535,-214,c),
(394,-220,o),
(271,-200,o),
(161,-165,c),
(161,-165,o),
(49,-132,o),
(82,-68,cs),
(115,-4,o),
(223,-23,o),
(223,-23,c),
(326,-42,o),
(374,-50,o),
(445,-53,c),
(584,-49,o),
(620,-13,o),
(619,70,c),
(634,252,o),
(611,307,o),
(592,455,c)
);
},
{
closed = 1;
nodes = (
(824,325,l),
(851,217,o),
(820,137,o),
(743,78,cs),
(656,13,o),
(499,-26,o),
(329,12,c),
(202,50,o),
(91,122,o),
(64,212,cs),
(40,288,o),
(40,332,o),
(62,418,c),
(62,418,o),
(82,496,o),
(199,491,c),
(374,482,o),
(346,372,o),
(346,372,c),
(323,255,o),
(358,196,o),
(383,181,c),
(407,168,o),
(458,166,o),
(544,189,cs),
(557,193,o),
(617,235,o),
(616,298,c)
);
}
);
width = 958;
},
{
anchors = (
{
name = top;
position = "{572, 501}";
}
);
layerId = "7E05DFED-BC11-4724-94EA-0D0C4C5F5B37";
shapes = (
{
closed = 1;
nodes = (
(682.909,455,o),
(710.5,498,o),
(809.5,498,cs),
(910.7,499,o),
(949.912,440,o),
(949.912,440,c),
(972.142,291,o),
(954.964,180,o),
(907,0,c),
(860.027,-135,o),
(733.841,-206,o),
(492.243,-214,cs),
(350.044,-220,o),
(231.04,-200,o),
(128.033,-165,c),
(128.033,-165,o),
(22.626,-132,o),
(68.414,-68,cs),
(114.201,-4,o),
(218.405,-23,o),
(218.405,-23,c),
(317.608,-42,o),
(364.01,-50,o),
(434.411,-53,c),
(574.21,-49,o),
(617.403,-13,o),
(632.986,70,c),
(684.35,252,o),
(672.339,307,o),
(682.909,455,c)
);
},
{
closed = 1;
nodes = (
(888.935,325,l),
(894.357,217,o),
(847.373,137,o),
(758.584,78,cs),
(658.597,13,o),
(493.805,-26,o),
(331.398,12,c),
(211.99,50,o),
(115.376,122,o),
(106.358,212,cs),
(97.542,288,o),
(106.334,332,o),
(145.516,418,c),
(145.516,418,o),
(181.101,496,o),
(297.102,491,cs),
(470.304,482,o),
(420.326,372,o),
(420.326,372,c),
(373.949,255,o),
(397.161,196,o),
(419.164,181,c),
(440.566,168,o),
(491.167,166,o),
(581.762,189,cs),
(595.561,193,o),
(663.953,235,o),
(675.54,298,c)
);
}
);
width = 958;
},
{
anchors = (
{
name = top;
position = "{540, 501}";
}
);
layerId = "99376340-70F9-4B1D-A253-B1BEDBF73140";
shapes = (
{
closed = 1;
nodes = (
(799.507,463,o),
(799.503,483,o),
(830.703,484,cs),
(863.103,486,o),
(869.906,470,o),
(869.906,470,c),
(893.136,321,o),
(859.373,137,o),
(807.208,-39,c),
(758.03,-150,o),
(647.241,-204,o),
(482.242,-209,cs),
(340.043,-215,o),
(220.24,-199,o),
(119.233,-164,c),
(119.233,-164,o),
(94.031,-155,o),
(105.028,-140,c),
(116.825,-126,o),
(145.826,-131,o),
(145.826,-131,c),
(241.832,-161,o),
(351.235,-174,o),
(475.633,-167,c),
(617.433,-163,o),
(704.623,-117,o),
(737.805,-26,c),
(789.169,156,o),
(819.734,329,o),
(799.507,463,c)
);
},
{
closed = 1;
nodes = (
(872.935,325,l),
(878.357,217,o),
(830.373,137,o),
(742.584,78,cs),
(642.597,13,o),
(471.606,-32,o),
(315.398,12,c),
(194.99,50,o),
(139.576,118,o),
(130.558,208,cs),
(123.743,284,o),
(147.526,368,o),
(187.709,454,c),
(187.709,454,o),
(198.106,471,o),
(235.506,468,c),
(268.707,464,o),
(270.111,446,o),
(270.111,446,c),
(213.139,306,o),
(193.961,195,o),
(241.973,135,c),
(310.392,42,o),
(412.996,20,o),
(540.19,51,c),
(701.58,98,o),
(782.965,175,o),
(798.747,264,c)
);
}
);
width = 900;
},
{
anchors = (
{
name = top;
position = "{415, 501}";
}
);
layerId = "F94FFD99-753E-41E1-86D1-359C136D3DE6";
shapes = (
{
closed = 1;
nodes = (
(485.909,455,o),
(507.5,498,o),
(573.5,498,cs),
(640.7,499,o),
(662.912,440,o),
(662.912,440,c),
(668.142,291,o),
(648.964,180,o),
(605,0,c),
(565.027,-135,o),
(475.841,-206,o),
(314.243,-214,cs),
(219.044,-220,o),
(141.04,-200,o),
(75.033,-165,c),
(75.033,-165,o),
(6.626,-132,o),
(41.414,-68,cs),
(76.201,-4,o),
(144.405,-23,o),
(144.405,-23,c),
(209.608,-42,o),
(240.01,-50,o),
(286.411,-53,c),
(380.21,-49,o),
(411.403,-13,o),
(426.986,70,c),
(473.35,252,o),
(469.339,307,o),
(485.909,455,c)
);
},
{
closed = 1;
nodes = (
(614.935,325,l),
(611.357,217,o),
(574.373,137,o),
(511.584,78,cs),
(440.597,13,o),
(327.805,-26,o),
(222.398,12,c),
(144.99,50,o),
(85.376,122,o),
(85.358,212,cs),
(84.542,288,o),
(93.334,332,o),
(125.516,418,c),
(125.516,418,o),
(154.101,496,o),
(231.102,491,cs),
(346.304,482,o),
(305.326,372,o),
(305.326,372,c),
(266.949,255,o),
(278.161,196,o),
(292.164,181,cs),
(305.566,168,o),
(339.167,166,o),
(400.762,189,cs),
(410.561,193,o),
(458.953,235,o),
(470.54,298,c)
);
}
);
width = 639;
},
{
anchors = (
{
name = top;
position = "{394, 501}";
}
);
layerId = "E82ED6F4-5586-4A54-A016-86253174F252";
shapes = (
{
closed = 1;
nodes = (
(564.507,463,o),
(565.503,483,o),
(586.703,484,cs),
(608.103,486,o),
(611.906,470,o),
(611.906,470,c),
(617.136,321,o),
(582.373,137,o),
(536.208,-39,c),
(496.03,-150,o),
(418.241,-204,o),
(308.242,-209,c),
(213.043,-215,o),
(134.24,-199,o),
(69.233,-164,c),
(69.233,-164,o),
(53.031,-155,o),
(61.028,-140,c),
(69.825,-126,o),
(88.826,-131,o),
(88.826,-131,c),
(150.832,-161,o),
(223.235,-174,o),
(306.633,-167,c),
(401.433,-163,o),
(462.623,-117,o),
(490.805,-26,c),
(537.169,156,o),
(568.734,329,o),
(564.507,463,c)
);
},
{
closed = 1;
nodes = (
(603.935,325,l),
(600.357,217,o),
(563.373,137,o),
(500.584,78,cs),
(429.597,13,o),
(312.606,-32,o),
(211.398,12,c),
(133.99,50,o),
(101.576,118,o),
(101.558,208,cs),
(101.743,284,o),
(123.526,368,o),
(155.709,454,c),
(155.709,454,o),
(164.106,471,o),
(188.506,468,c),
(210.707,464,o),
(210.111,446,o),
(210.111,446,c),
(163.139,306,o),
(142.961,195,o),
(170.973,135,c),
(210.392,42,o),
(276.996,20,o),
(364.19,51,c),
(474.58,98,o),
(533.965,175,o),
(550.747,264,c)
);
}
);
width = 600;
},
{
anchors = (
{
name = top;
position = "{472, 501}";
}
);
layerId = "1EECF98D-35CB-4836-8875-A967ACEC66D2";
shapes = (
{
closed = 1;
nodes = (
(592,455,o),
(611,498,o),
(710,498,cs),
(811,499,o),
(862,440,o),
(862,440,c),
(914,291,o),
(919,180,o),
(907,0,c),
(887,-135,o),
(775,-206,o),
(535,-214,cs),
(394,-220,o),
(271,-200,o),
(161,-165,c),
(161,-165,o),
(49,-132,o),
(82,-68,cs),
(115,-4,o),
(223,-23,o),
(223,-23,c),
(326,-42,o),
(374,-50,o),
(445,-53,c),
(584,-49,o),
(620,-13,o),
(619,70,c),
(634,252,o),
(611,307,o),
(592,455,c)
);
},
{
closed = 1;
nodes = (
(824,325,l),
(851,217,o),
(820,137,o),
(743,78,cs),
(656,13,o),
(499,-26,o),
(329,12,c),
(202,50,o),
(91,122,o),
(64,212,cs),
(40,288,o),
(40,332,o),
(62,418,c),
(62,418,o),
(82,496,o),
(199,491,cs),
(374,482,o),
(346,372,o),
(346,372,c),
(323,255,o),
(358,196,o),
(383,181,cs),
(407,168,o),
(458,166,o),
(544,189,cs),
(557,193,o),
(617,235,o),
(616,298,c)
);
}
);
width = 958;
},
{
anchors = (
{
name = top;
position = "{440, 501}";
}
);
layerId = "1C3422F9-BFDE-4FE8-A46C-291A8D4071B9";
shapes = (
{
closed = 1;
nodes = (
(707,463,o),
(703,483,o),
(734,484,cs),
(766,486,o),
(776,470,o),
(776,470,c),
(829,321,o),
(832,137,o),
(815,-39,c),
(788,-150,o),
(688,-204,o),
(524,-209,c),
(383,-215,o),
(260,-199,o),
(152,-164,c),
(152,-164,o),
(125,-155,o),
(133,-140,c),
(142,-126,o),
(172,-131,o),
(172,-131,c),
(274,-161,o),
(386,-174,o),
(509,-167,c),
(650,-163,o),
(728,-117,o),
(743,-26,c),
(758,156,o),
(754,329,o),
(707,463,c)
);
},
{
closed = 1;
nodes = (
(808,325,l),
(835,217,o),
(803,137,o),
(727,78,cs),
(640,13,o),
(478,-32,o),
(313,12,c),
(185,50,o),
(116,118,o),
(89,208,cs),
(67,284,o),
(74,368,o),
(97,454,c),
(97,454,o),
(104,471,o),
(142,468,c),
(176,464,o),
(181,446,o),
(181,446,c),
(152,306,o),
(155,195,o),
(215,135,c),
(302,42,o),
(409,20,o),
(530,51,c),
(682,98,o),
(748,175,o),
(746,264,c)
);
}
);
width = 900;
},
{
anchors = (
{
name = top;
position = "{315, 501}";
}
);
layerId = "EE7B1B97-935D-491C-911D-EA8B82785AFC";
shapes = (
{
closed = 1;
nodes = (
(395,455,o),
(408,498,o),
(474,498,cs),
(541,499,o),
(575,440,o),
(575,440,c),
(610,291,o),
(613,180,o),
(605,0,c),
(592,-135,o),
(517,-206,o),
(357,-214,cs),
(263,-220,o),
(181,-200,o),
(108,-165,c),
(108,-165,o),
(33,-132,o),
(55,-68,cs),
(77,-4,o),
(149,-23,o),
(149,-23,c),
(218,-42,o),
(250,-50,o),
(297,-53,c),
(390,-49,o),
(414,-13,o),
(413,70,c),
(423,252,o),
(408,307,o),
(395,455,c)
);
},
{
closed = 1;
nodes = (
(550,325,l),
(568,217,o),
(547,137,o),
(496,78,cs),
(438,13,o),
(333,-26,o),
(220,12,c),
(135,50,o),
(61,122,o),
(43,212,cs),
(27,288,o),
(27,332,o),
(42,418,c),
(42,418,o),
(55,496,o),
(133,491,cs),
(250,482,o),
(231,372,o),
(231,372,c),
(216,255,o),
(239,196,o),
(256,181,cs),
(272,168,o),
(306,166,o),
(363,189,cs),
(372,193,o),
(412,235,o),
(411,298,c)
);
}
);
width = 639;
},
{
anchors = (
{
name = top;
position = "{294, 501}";
}
);
layerId = "6B947F8E-B64D-4F43-8779-746217178CEC";
shapes = (
{
closed = 1;
nodes = (
(472,463,o),
(469,483,o),
(490,484,cs),
(511,486,o),
(518,470,o),
(518,470,c),
(553,321,o),
(555,137,o),
(544,-39,c),
(526,-150,o),
(459,-204,o),
(350,-209,c),
(256,-215,o),
(174,-199,o),
(102,-164,c),
(102,-164,o),
(84,-155,o),
(89,-140,c),
(95,-126,o),
(115,-131,o),
(115,-131,c),
(183,-161,o),
(258,-174,o),
(340,-167,c),
(434,-163,o),
(486,-117,o),
(496,-26,c),
(506,156,o),
(503,329,o),
(472,463,c)
);
},
{
closed = 1;
nodes = (
(539,325,l),
(557,217,o),
(536,137,o),
(485,78,cs),
(427,13,o),
(319,-32,o),
(209,12,c),
(124,50,o),
(78,118,o),
(60,208,cs),
(45,284,o),
(50,368,o),
(65,454,c),
(65,454,o),
(70,471,o),
(95,468,c),
(118,464,o),
(121,446,o),
(121,446,c),
(102,306,o),
(104,195,o),
(144,135,c),
(202,42,o),
(273,20,o),
(354,51,c),
(455,98,o),
(499,175,o),
(498,264,c)
);
}
);
width = 600;
}
);
leftKerningGroup = u;
rightKerningGroup = g;
unicode = 121;
},
{
glyphname = z;
layers = (
{
anchors = (
{
name = top;
position = "{516, 501}";
}
);
layerId = "7E05DFED-BC11-4724-94EA-0D0C4C5F5B37";
shapes = (
{
closed = 1;
nodes = (
(181.51,448,o),
(105.714,429,o),
(128.727,364,cs),
(145.737,314,o),
(250.938,310,o),
(250.938,310,c),
(299.338,312,o),
(323.937,315,o),
(392.536,318,cs),
(458.936,320,o),
(420.738,309,o),
(410.34,302,c),
(135.569,153,l),
(68.575,123,o),
(30.998,10,o),
(215.8,-1,c),
(700.998,10,l),
(700.998,10,o),
(809.796,19,o),
(806.18,101,cs),
(804.166,171,o),
(665.566,168,o),
(665.566,168,c),
(539.567,163,l),
(649.356,222,o),
(791.344,282,o),
(816.933,335,cs),
(866.713,434,o),
(735.706,469,o),
(662.704,479,c),
(481.501,493,o),
(339.103,486,o),
(181.51,448,c)
);
}
);
width = 834;
},
{
anchors = (
{
name = top;
position = "{524, 501}";
}
);
layerId = "99376340-70F9-4B1D-A253-B1BEDBF73140";
shapes = (
{
closed = 1;
nodes = (
(197.909,455,o),
(160.91,450,o),
(162.314,432,cs),
(162.717,414,o),
(213.516,418,o),
(213.516,418,c),
(346.512,438,o),
(489.51,448,o),
(644.312,442,c),
(712.512,438,o),
(774.913,435,o),
(731.52,398,c),
(167.984,80,l),
(100.99,50,o),
(82.599,3,o),
(176.801,-6,c),
(766.997,15,l),
(766.997,15,o),
(791.397,17,o),
(794.793,34,cs),
(798.19,51,o),
(764.789,54,o),
(764.789,54,c),
(172.994,30,l),
(436.567,163,o),
(782.53,348,o),
(816.92,400,c),
(836.511,443,o),
(806.506,468,o),
(735.504,478,c),
(553.102,491,o),
(374.502,488,o),
(197.909,455,c)
);
}
);
width = 863;
},
{
anchors = (
{
name = top;
position = "{377, 501}";
}
);
layerId = "F94FFD99-753E-41E1-86D1-359C136D3DE6";
shapes = (
{
closed = 1;
nodes = (
(150.51,448,o),
(98.714,429,o),
(109.727,364,cs),
(117.737,314,o),
(187.938,310,o),
(187.938,310,c),
(220.338,312,o),
(236.937,315,o),
(282.536,318,cs),
(326.936,320,o),
(300.738,309,o),
(293.34,302,c),
(100.569,153,l),
(53.575,123,o),
(20.998,10,o),
(143.8,-1,c),
(467.998,10,l),
(467.998,10,o),
(540.796,19,o),
(544.18,101,cs),
(547.166,171,o),
(454.566,168,o),
(454.566,168,c),
(370.567,163,l),
(447.356,222,o),
(546.344,282,o),
(566.933,335,cs),
(606.713,434,o),
(521.706,469,o),
(473.704,479,c),
(353.501,493,o),
(258.103,486,o),
(150.51,448,c)
);
}
);
width = 556;
},
{
anchors = (
{
name = top;
position = "{383, 501}";
}
);
layerId = "E82ED6F4-5586-4A54-A016-86253174F252";
shapes = (
{
closed = 1;
nodes = (
(162.909,455,o),
(137.91,450,o),
(137.314,432,cs),
(136.717,414,o),
(170.516,418,o),
(170.516,418,c),
(260.512,438,o),
(356.51,448,o),
(459.312,442,c),
(504.512,438,o),
(545.913,435,o),
(514.52,398,c),
(117.984,80,l),
(70.99,50,o),
(55.599,3,o),
(117.801,-6,c),
(512.997,15,l),
(512.997,15,o),
(529.397,17,o),
(532.793,34,cs),
(536.19,51,o),
(513.789,54,o),
(513.789,54,c),
(117.994,30,l),
(302.567,163,o),
(545.53,348,o),
(571.92,400,c),
(587.511,443,o),
(569.506,468,o),
(522.504,478,c),
(402.102,491,o),
(282.502,488,o),
(162.909,455,c)
);
}
);
width = 576;
},
{
anchors = (
{
name = top;
position = "{416, 501}";
}
);
layerId = "1EECF98D-35CB-4836-8875-A967ACEC66D2";
shapes = (
{
closed = 1;
nodes = (
(92,448,o),
(20,429,o),
(56,364,cs),
(83,314,o),
(189,310,o),
(189,310,c),
(237,312,o),
(261,315,o),
(329,318,cs),
(395,320,o),
(359,309,o),
(350,302,c),
(105,153,l),
(44,123,o),
(29,10,o),
(216,-1,c),
(699,10,l),
(699,10,o),
(806,19,o),
(786,101,cs),
(770,171,o),
(632,168,o),
(632,168,c),
(507,163,l),
(605,222,o),
(735,282,o),
(750,335,cs),
(780,434,o),
(642,469,o),
(567,479,c),
(383,493,o),
(242,486,o),
(92,448,c)
);
}
);
width = 834;
},
{
anchors = (
{
name = top;
position = "{424, 501}";
}
);
layerId = "1C3422F9-BFDE-4FE8-A46C-291A8D4071B9";
shapes = (
{
closed = 1;
nodes = (
(107,455,o),
(71,450,o),
(76,432,cs),
(80,414,o),
(130,418,o),
(130,418,c),
(259,438,o),
(400,448,o),
(556,442,c),
(625,438,o),
(688,435,o),
(652,398,c),
(152,80,l),
(91,50,o),
(82,3,o),
(178,-6,c),
(764,15,l),
(764,15,o),
(788,17,o),
(788,34,cs),
(788,51,o),
(754,54,o),
(754,54,c),
(167,30,l),
(404,163,o),
(713,348,o),
(737,400,c),
(748,443,o),
(713,468,o),
(640,478,c),
(455,491,o),
(277,488,o),
(107,455,c)
);
}
);
width = 863;
},
{
anchors = (
{
name = top;
position = "{277, 501}";
}
);
layerId = "EE7B1B97-935D-491C-911D-EA8B82785AFC";
shapes = (
{
closed = 1;
nodes = (
(61,448,o),
(13,429,o),
(37,364,cs),
(55,314,o),
(126,310,o),
(126,310,c),
(158,312,o),
(174,315,o),
(219,318,cs),
(263,320,o),
(239,309,o),
(233,302,c),
(70,153,l),
(29,123,o),
(19,10,o),
(144,-1,c),
(466,10,l),
(466,10,o),
(537,19,o),
(524,101,cs),
(513,171,o),
(421,168,o),
(421,168,c),
(338,163,l),
(403,222,o),
(490,282,o),
(500,335,cs),
(520,434,o),
(428,469,o),
(378,479,c),
(255,493,o),
(161,486,o),
(61,448,c)
);
}
);
width = 556;
},
{
anchors = (
{
name = top;
position = "{283, 501}";
}
);
layerId = "6B947F8E-B64D-4F43-8779-746217178CEC";
shapes = (
{
closed = 1;
nodes = (
(72,455,o),
(48,450,o),
(51,432,cs),
(54,414,o),
(87,418,o),
(87,418,c),
(173,438,o),
(267,448,o),
(371,442,c),
(417,438,o),
(459,435,o),
(435,398,c),
(102,80,l),
(61,50,o),
(55,3,o),
(119,-6,c),
(510,15,l),
(510,15,o),
(526,17,o),
(526,34,cs),
(526,51,o),
(503,54,o),
(503,54,c),
(112,30,l),
(270,163,o),
(476,348,o),
(492,400,c),
(499,443,o),
(476,468,o),
(427,478,c),
(304,491,o),
(185,488,o),
(72,455,c)
);
}
);
width = 576;
}
);
leftKerningGroup = z;
rightKerningGroup = z;
unicode = 122;
},
{
glyphname = A;
layers = (
{
anchors = (
{
name = top;
position = "{583, 643}";
},
{
name = bottom;
position = "{733, 76}";
}
);
layerId = "7E05DFED-BC11-4724-94EA-0D0C4C5F5B37";
shapes = (
{
closed = 1;
nodes = (
(65.58,98,o),
(42.398,12,o),
(189.8,-1,cs),
(317.602,-12,o),
(349.988,60,o),
(349.988,60,c),
(385.969,155,o),
(382.371,147,o),
(432.75,249,c),
(460.341,297,o),
(516.127,366,o),
(544.718,409,c),
(558.728,359,o),
(567.738,309,o),
(581.953,235,cs),
(587.959,205,o),
(587.37,152,o),
(598.185,76,c),
(598.185,76,o),
(612.001,-5,o),
(741.001,-5,cs),
(870.001,-5,o),
(878.586,68,o),
(878.586,68,c),
(890.152,241,o),
(838.719,404,o),
(813.904,480,c),
(790.482,588,o),
(656.07,651,o),
(588.471,643,c),
(496.272,642,o),
(412.67,649,o),
(232.317,417,c),
(158.339,307,o),
(89.96,200,o),
(65.58,98,c)
);
},
{
closed = 1;
nodes = (
(235.383,87,l),
(364.978,110,o),
(564.779,104,o),
(702.383,87,c),
(706.752,239,l),
(549.55,248,o),
(427.752,239,o),
(284.357,217,c)
);
}
);
width = 911;
},
{
anchors = (
{
name = top;
position = "{510, 643}";
},
{
name = bottom;
position = "{649, 43}";
}
);
layerId = "99376340-70F9-4B1D-A253-B1BEDBF73140";
shapes = (
{
closed = 1;
nodes = (
(80.595,23,o),
(78.4,2,o),
(111.8,-1,cs),
(146.201,-4,o),
(152.997,15,o),
(152.997,15,c),
(184.173,136,o),
(251.946,270,o),
(341.517,413,cs),
(384.703,484,o),
(439.291,547,o),
(512.48,598,c),
(541.89,550,o),
(566.102,491,o),
(579.516,418,cs),
(603.739,304,o),
(612.767,164,o),
(614.997,15,c),
(614.997,15,o),
(618.6,-2,o),
(650.8,-1,cs),
(682,0,o),
(683.997,15,o),
(683.997,15,c),
(694.762,189,o),
(665.121,396,o),
(640.306,472,c),
(617.084,581,o),
(578.07,651,o),
(510.471,643,c),
(419.272,642,o),
(340.493,533,o),
(263.317,417,c),
(179.344,282,o),
(114.97,150,o),
(80.595,23,c)
);
},
{
closed = 1;
nodes = (
(159.981,95,l),
(288.377,117,o),
(490.376,122,o),
(627.979,105,c),
(627.171,146,l),
(471.769,154,o),
(320.77,149,o),
(176.375,127,c)
);
}
);
width = 757;
},
{
anchors = (
{
name = top;
position = "{432, 643}";
},
{
name = bottom;
position = "{494, 76}";
}
);
layerId = "F94FFD99-753E-41E1-86D1-359C136D3DE6";
shapes = (
{
closed = 1;
nodes = (
(50.58,98,o),
(29.398,12,o),
(126.8,-1,cs),
(211.602,-12,o),
(237.988,60,o),
(237.988,60,c),
(267.969,155,o),
(265.371,147,o),
(305.75,249,c),
(327.341,297,o),
(369.127,366,o),
(390.718,409,c),
(396.728,359,o),
(399.738,309,o),
(403.953,235,cs),
(405.959,205,o),
(402.37,152,o),
(404.185,76,c),
(404.185,76,o),
(408.001,-5,o),
(494.001,-5,cs),
(580.001,-5,o),
(590.586,68,o),
(590.586,68,c),
(610.152,241,o),
(586.719,404,o),
(574.904,480,c),
(566.482,588,o),
(481.07,651,o),
(435.471,643,c),
(374.272,642,o),
(318.67,649,o),
(183.317,417,c),
(126.339,307,o),
(73.96,200,o),
(50.58,98,c)
);
},
{
closed = 1;
nodes = (
(163.383,87,l),
(250.978,110,o),
(383.779,104,o),
(474.383,87,c),
(487.752,239,l),
(383.55,248,o),
(301.752,239,o),
(204.357,217,c)
);
}
);
width = 608;
},
{
anchors = (
{
name = top;
position = "{383, 643}";
},
{
name = bottom;
position = "{436, 43}";
}
);
layerId = "E82ED6F4-5586-4A54-A016-86253174F252";
shapes = (
{
closed = 1;
nodes = (
(55.595,23,o),
(52.4,2,o),
(74.8,-1,cs),
(97.201,-4,o),
(102.997,15,o),
(102.997,15,c),
(132.173,136,o),
(185.946,270,o),
(255.517,413,c),
(288.703,484,o),
(329.291,547,o),
(381.48,598,c),
(397.89,550,o),
(410.102,491,o),
(414.516,418,cs),
(422.739,304,o),
(419.767,164,o),
(410.997,15,c),
(410.997,15,o),
(412.6,-2,o),
(433.8,-1,cs),
(455,0,o),
(456.997,15,o),
(456.997,15,c),
(475.762,189,o),
(470.121,396,o),
(458.306,472,c),
(450.084,581,o),
(429.07,651,o),
(383.471,643,c),
(322.272,642,o),
(262.493,533,o),
(203.317,417,c),
(138.344,282,o),
(86.97,150,o),
(55.595,23,c)
);
},
{
closed = 1;
nodes = (
(112.981,95,l),
(200.377,117,o),
(335.376,122,o),
(425.979,105,c),
(428.171,146,l),
(324.769,154,o),
(223.77,149,o),
(126.375,127,c)
);
}
);
width = 505;
},
{
anchors = (
{
name = top;
position = "{455, 643}";
},
{
name = bottom;
position = "{718, 76}";
}
);
layerId = "1EECF98D-35CB-4836-8875-A967ACEC66D2";
shapes = (
{
closed = 1;
nodes = (
(46,98,o),
(40,12,o),
(190,-1,cs),
(320,-12,o),
(338,60,o),
(338,60,c),
(355,155,o),
(353,147,o),
(383,249,c),
(401,297,o),
(443,366,o),
(463,409,c),
(487,359,o),
(506,309,o),
(535,235,cs),
(547,205,o),
(557,152,o),
(583,76,c),
(583,76,o),
(613,-5,o),
(742,-5,cs),
(871,-5,o),
(865,68,o),
(865,68,c),
(842,241,o),
(758,404,o),
(718,480,c),
(673,588,o),
(526,651,o),
(460,643,c),
(368,642,o),
(283,649,o),
(149,417,c),
(97,307,o),
(50,200,o),
(46,98,c)
);
},
{
closed = 1;
nodes = (
(218,87,l),
(343,110,o),
(544,104,o),
(685,87,c),
(659,239,l),
(500,248,o),
(380,239,o),
(241,217,c)
);
}
);
width = 911;
},
{
anchors = (
{
name = top;
position = "{381, 643}";
},
{
name = bottom;
position = "{639, 43}";
}
);
layerId = "1C3422F9-BFDE-4FE8-A46C-291A8D4071B9";
shapes = (
{
closed = 1;
nodes = (
(75,23,o),
(77,2,o),
(111,-1,cs),
(146,-4,o),
(149,15,o),
(149,15,c),
(156,136,o),
(197,270,o),
(258,413,c),
(287,484,o),
(329,547,o),
(392,598,c),
(431,550,o),
(467,491,o),
(495,418,cs),
(542,304,o),
(579,164,o),
(611,15,c),
(611,15,o),
(618,-2,o),
(650,-1,cs),
(681,0,o),
(680,15,o),
(680,15,c),
(656,189,o),
(585,396,o),
(545,472,c),
(500,581,o),
(447,651,o),
(381,643,c),
(290,642,o),
(233,533,o),
(179,417,c),
(122,282,o),
(84,150,o),
(75,23,c)
);
},
{
closed = 1;
nodes = (
(140,95,l),
(264,117,o),
(465,122,o),
(606,105,c),
(597,146,l),
(440,154,o),
(290,149,o),
(150,127,c)
);
}
);
width = 756;
},
{
anchors = (
{
name = top;
position = "{304, 643}";
},
{
name = bottom;
position = "{479, 76}";
}
);
layerId = "EE7B1B97-935D-491C-911D-EA8B82785AFC";
shapes = (
{
closed = 1;
nodes = (
(31,98,o),
(27,12,o),
(127,-1,cs),
(214,-12,o),
(226,60,o),
(226,60,c),
(237,155,o),
(236,147,o),
(256,249,c),
(268,297,o),
(296,366,o),
(309,409,c),
(325,359,o),
(338,309,o),
(357,235,cs),
(365,205,o),
(372,152,o),
(389,76,c),
(389,76,o),
(409,-5,o),
(495,-5,cs),
(581,-5,o),
(577,68,o),
(577,68,c),
(562,241,o),
(506,404,o),
(479,480,c),
(449,588,o),
(351,651,o),
(307,643,c),
(246,642,o),
(189,649,o),
(100,417,c),
(65,307,o),
(34,200,o),
(31,98,c)
);
},
{
closed = 1;
nodes = (
(146,87,l),
(229,110,o),
(363,104,o),
(457,87,c),
(440,239,l),
(334,248,o),
(254,239,o),
(161,217,c)
);
}
);
width = 608;
},
{
anchors = (
{
name = top;
position = "{254, 643}";
},
{
name = bottom;
position = "{426, 43}";
}
);
layerId = "6B947F8E-B64D-4F43-8779-746217178CEC";
shapes = (
{
closed = 1;
nodes = (
(50,23,o),
(51,2,o),
(74,-1,cs),
(97,-4,o),
(99,15,o),
(99,15,c),
(104,136,o),
(131,270,o),
(172,413,c),
(191,484,o),
(219,547,o),
(261,598,c),
(287,550,o),
(311,491,o),
(330,418,cs),
(361,304,o),
(386,164,o),
(407,15,c),
(407,15,o),
(412,-2,o),
(433,-1,cs),
(454,0,o),
(453,15,o),
(453,15,c),
(437,189,o),
(390,396,o),
(363,472,c),
(333,581,o),
(298,651,o),
(254,643,c),
(193,642,o),
(155,533,o),
(119,417,c),
(81,282,o),
(56,150,o),
(50,23,c)
);
},
{
closed = 1;
nodes = (
(93,95,l),
(176,117,o),
(310,122,o),
(404,105,c),
(398,146,l),
(293,154,o),
(193,149,o),
(100,127,c)
);
}
);
width = 504;
}
);
leftKerningGroup = A1;
rightKerningGroup = A;
unicode = 65;
},
